<?xml version="1.0" encoding="UTF-8"?>
<svg width="250px" height="276px" viewBox="0 0 250 276" version="1.1" xmlns="http://www.w3.org/2000/svg" xmlns:xlink="http://www.w3.org/1999/xlink">
    <!-- Generator: Sketch 50.2 (55047) - http://www.bohemiancoding.com/sketch -->
    <title>logo</title>
    <desc>Created with Sketch.</desc>
    <defs></defs>
    <g id="Page-1" stroke="none" stroke-width="1" fill="none" fill-rule="evenodd">
        <g id="Artboard" fill="#FFFFFF" fill-rule="nonzero">
            <g id="logo">
                <path d="M125,3.9 C192.3,3.9 246.9,54.9 246.9,117.9 C246.9,180.9 192.3,231.9 125,231.9 C57.7,231.9 3.1,180.9 3.1,117.9 C3.1,54.9 57.7,3.9 125,3.9 Z M125,0.8 C108.2,0.8 91.8,3.9 76.4,10 C61.5,15.9 48.2,24.3 36.7,35 C25.2,45.8 16.2,58.3 9.9,72.2 C3.3,86.7 0,102 0,117.9 C0,133.8 3.3,149.1 9.9,163.5 C16.2,177.4 25.2,190 36.7,200.7 C48.2,211.4 61.5,219.9 76.4,225.7 C91.8,231.8 108.1,234.9 125,234.9 C141.9,234.9 158.2,231.8 173.6,225.7 C188.5,219.8 201.8,211.4 213.3,200.7 C224.8,190 233.8,177.4 240.1,163.5 C246.6,149 250,133.7 250,117.9 C250,102.1 246.7,86.7 240.1,72.3 C233.8,58.4 224.8,45.8 213.3,35.1 C201.8,24.4 188.5,15.9 173.6,10.1 C158.2,3.9 141.8,0.8 125,0.8 Z" id="Shape"></path>
                <g id="Group" transform="translate(67.000000, 244.000000)">
                    <path d="M21.5,6 L16.7,12.5 C14.5,15.6 12.8,17.2 11.5,17.2 C10.9,17.2 10.4,16.9 10,16.2 C9.6,15.6 9.1,14.6 8.7,13.3 C8.2,12 7.9,11 7.7,10.3 C7.3,8.7 7,7.8 6.9,7.6 L6.2,11.4 C6,12.6 5.7,13.7 5.5,14.7 C5.3,15.7 5,16.9 4.7,18.4 C4.4,19.8 4.2,20.9 4.2,21.6 C4.2,21.8 4,22.1 3.5,22.4 C3.1,22.7 2.7,22.8 2.5,22.8 C2,22.8 1.6,22.6 1.2,22.2 C0.8,21.8 0.6,21.4 0.6,21 C0.6,20.1 0.8,18.9 1.2,17.5 C2.8,11.7 3.7,8 3.9,6.5 C4.1,5 4.2,3.7 4.2,2.7 C4.2,2.2 4.4,1.8 4.9,1.5 C5.4,1.2 5.9,1.1 6.7,1.1 C7.1,1.1 7.5,1.4 7.9,1.9 C8.3,2.4 8.6,2.9 8.7,3.3 L10.7,8.9 C11.5,11.1 12,12.6 12.3,13.2 C13.3,12.1 14.9,10.1 16.9,7.3 C18.9,4.5 20.3,2.7 21.1,1.9 C21.9,1.1 22.4,0.7 22.7,0.7 C23.2,0.7 23.7,0.9 24.3,1.3 C24.9,1.7 25.2,2 25.2,2.3 C25.2,2.5 25,4 24.6,6.7 C24.3,8.6 24.1,10.7 23.9,13.1 C23.7,15.5 23.6,16.8 23.6,17.3 C23.6,17.8 23.7,18.4 23.8,18.9 C23.9,19.3 23.9,19.7 23.9,20.1 C23.9,21.1 23.7,21.7 23.4,22.1 C23.1,22.4 22.6,22.6 21.9,22.6 C20.6,22.6 20,21.7 20,19.7 C20,17.9 20.2,15.7 20.5,13.1 C20.8,10.5 21.1,8.5 21.4,7.1 C21.4,6.6 21.5,6.2 21.5,6 Z" id="Shape"></path>
                    <path d="M38.6,17.1 C36.1,20.4 33.6,22.1 31.2,22.1 C30.3,22.1 29.6,21.8 29,21.1 C28.4,20.4 28.1,19.5 28.1,18.5 C28.1,15.9 29.2,13.2 31.5,10.3 C33.8,7.4 36.1,6 38.4,6 C39.6,6 40.3,6.6 40.7,7.8 C41.8,7.8 42.4,8.2 42.4,9.1 C42.4,9.5 42.3,10.2 42.1,11.3 C41.7,13.3 41.5,14.9 41.5,16.1 C41.5,17.3 41.6,18.2 41.8,18.7 C42,19.2 42.1,19.5 42.2,19.7 C42.3,19.9 42.5,20 42.9,20.2 C43.3,20.4 43.5,20.6 43.5,21 C43.5,21.5 43.3,21.9 42.8,22.2 C42.3,22.5 41.8,22.7 41.2,22.7 C39.2,22.6 38.4,20.7 38.6,17.1 Z M37.7,9.1 C36.7,9.1 35.5,10.2 33.9,12.3 C32.3,14.5 31.6,16.3 31.6,17.8 C31.6,18.6 31.8,19 32.1,19 C33.2,19 34.6,18 36.3,16 C38,14 38.8,12.2 38.8,10.7 C38.8,10.2 38.7,9.8 38.5,9.5 C38.2,9.2 38,9.1 37.7,9.1 Z" id="Shape"></path>
                    <path d="M52.8,18.3 C52.8,17.8 51.9,17.1 50.3,16.4 C48.3,15.4 47,14.6 46.5,13.9 C46,13.2 45.7,12.5 45.7,11.6 C45.7,9.9 46.7,8.4 48.6,7.1 C50.5,5.8 52.3,5.2 54,5.2 C55.6,5.2 56.4,5.9 56.4,7.3 C56.4,7.7 56.2,8 55.8,8.3 C55.4,8.6 55.1,8.7 54.9,8.7 C54.8,8.7 54.6,8.6 54.3,8.5 C54,8.4 53.8,8.3 53.7,8.3 C52.8,8.3 51.9,8.6 50.9,9.2 C49.9,9.8 49.4,10.5 49.4,11.2 C49.4,11.6 49.6,11.9 49.9,12.3 C50.3,12.7 51,13.1 52.1,13.6 C53.8,14.4 54.9,15.1 55.4,15.7 C55.9,16.3 56.2,17 56.2,17.8 C56.2,19.2 55.2,20.4 53.3,21.3 C51.4,22.2 49.3,22.7 46.9,22.7 C45.2,22.7 44.3,22.1 44.3,20.8 C44.3,20.3 44.5,19.9 44.8,19.6 C45.2,19.3 45.6,19.1 46,19.1 C46.2,19.1 46.5,19.2 46.9,19.3 C47.3,19.4 47.6,19.5 48,19.5 C48.9,19.5 49.9,19.4 50.9,19.1 C51.8,19.1 52.5,18.7 52.8,18.3 Z" id="Shape"></path>
                    <path d="M65.3,18.3 C65.3,17.8 64.4,17.1 62.8,16.4 C60.8,15.4 59.5,14.6 59,13.9 C58.5,13.2 58.2,12.5 58.2,11.6 C58.2,9.9 59.2,8.4 61.1,7.1 C63,5.8 64.8,5.2 66.5,5.2 C68.1,5.2 68.9,5.9 68.9,7.3 C68.9,7.7 68.7,8 68.3,8.3 C67.9,8.6 67.6,8.7 67.4,8.7 C67.3,8.7 67.1,8.6 66.8,8.5 C66.5,8.4 66.3,8.3 66.2,8.3 C65.3,8.3 64.4,8.6 63.4,9.2 C62.4,9.8 61.9,10.5 61.9,11.2 C61.9,11.6 62.1,11.9 62.4,12.3 C62.8,12.7 63.5,13.1 64.6,13.6 C66.3,14.4 67.4,15.1 67.9,15.7 C68.4,16.3 68.7,17 68.7,17.8 C68.7,19.2 67.7,20.4 65.8,21.3 C63.9,22.2 61.8,22.7 59.4,22.7 C57.7,22.7 56.8,22.1 56.8,20.8 C56.8,20.3 57,19.9 57.3,19.6 C57.7,19.3 58.1,19.1 58.5,19.1 C58.7,19.1 59,19.2 59.4,19.3 C59.8,19.4 60.1,19.5 60.5,19.5 C61.4,19.5 62.4,19.4 63.4,19.1 C64.4,19.1 65,18.7 65.3,18.3 Z" id="Shape"></path>
                    <path d="M81,17.1 C78.5,20.4 76,22.1 73.6,22.1 C72.7,22.1 72,21.8 71.4,21.1 C70.8,20.4 70.5,19.5 70.5,18.5 C70.5,15.9 71.6,13.2 73.9,10.3 C76.2,7.4 78.5,6 80.8,6 C82,6 82.7,6.6 83.1,7.8 C84.2,7.8 84.8,8.2 84.8,9.1 C84.8,9.5 84.7,10.2 84.5,11.3 C84.1,13.3 83.9,14.9 83.9,16.1 C83.9,17.3 84,18.2 84.2,18.7 C84.4,19.2 84.5,19.5 84.6,19.7 C84.7,19.9 84.9,20 85.3,20.2 C85.7,20.4 85.9,20.6 85.9,21 C85.9,21.5 85.7,21.9 85.2,22.2 C84.7,22.5 84.2,22.7 83.6,22.7 C81.6,22.6 80.8,20.7 81,17.1 Z M80.1,9.1 C79.1,9.1 77.9,10.2 76.3,12.3 C74.7,14.4 74,16.3 74,17.8 C74,18.6 74.2,19 74.5,19 C75.6,19 77,18 78.7,16 C80.4,14 81.2,12.2 81.2,10.7 C81.2,10.2 81.1,9.8 80.9,9.5 C80.6,9.2 80.4,9.1 80.1,9.1 Z" id="Shape"></path>
                    <path d="M98.3,17.5 C97.2,18.7 96,19.7 94.6,20.5 C93.2,21.3 91.9,21.7 90.9,21.7 C89.9,21.7 89.1,21.4 88.5,20.8 C87.9,20.2 87.7,19.4 87.7,18.3 C87.7,16.8 88.3,15.1 89.4,13.3 C90.5,11.5 92.1,9.9 94.1,8.5 C96.1,7.1 97.9,6.5 99.5,6.5 C100.4,6.5 101.2,6.7 101.8,7.2 C102,7.3 102.1,7.4 102.2,7.5 C102.4,7.7 102.6,8 102.8,8.4 C103,8.8 103.1,9.2 103.1,9.5 C103.1,9.7 102.9,10.3 102.6,11.3 C102.2,12.3 102,13.3 101.8,14.3 C101.7,15.3 101.4,17.7 100.9,21.6 C100.5,25 99.6,27.4 98.1,29 C96.6,30.6 95,31.3 93.2,31.3 C91.3,31.3 89.5,30.7 87.7,29.4 C85.9,28.1 85,27.1 85,26.2 C85,25.5 85.4,25.1 86.1,25.1 C86.4,25.1 86.9,25.4 87.8,25.9 C90,27.3 91.9,28.1 93.5,28.1 C94.7,28.1 95.7,27.3 96.5,25.9 C97.2,24.3 97.8,21.5 98.3,17.5 Z M98.6,9.5 C97.9,9.5 97,9.9 95.8,10.8 C94.6,11.7 93.6,12.8 92.6,14.3 C91.6,15.7 91.1,16.9 91.1,17.9 C91.1,18.4 91.3,18.7 91.6,18.7 C92.8,18.7 94.1,18.2 95.3,17.2 C96.5,16.2 97.5,15 98.3,13.7 C99.1,12.4 99.4,11.4 99.4,10.7 C99.4,10.4 99.3,10.1 99.1,9.9 C99.1,9.6 98.9,9.5 98.6,9.5 Z" id="Shape"></path>
                    <path d="M118.3,17 C118.3,18 117.5,19.2 115.8,20.6 C114.1,22 112.2,22.7 110.1,22.7 C108.5,22.7 107.2,22.2 106.3,21.2 C105.4,20.2 104.9,18.7 104.9,16.9 C104.9,14.2 105.9,11.7 107.8,9.3 C109.7,6.9 111.8,5.8 113.9,5.8 C115,5.8 115.8,6.1 116.5,6.8 C117.2,7.5 117.5,8.3 117.5,9.2 C117.5,10.9 116.7,12.5 115.1,14 C113.5,15.5 111.4,16.6 108.9,17.1 C108.6,17.2 108.5,17.3 108.5,17.6 C108.5,18.1 108.7,18.5 109.1,18.9 C109.5,19.3 110.1,19.5 110.7,19.5 C112.6,19.5 114.6,18.5 116.5,16.5 C116.9,16.1 117.2,15.9 117.6,15.9 C118,16 118.3,16.3 118.3,17 Z M108.6,14.4 C110.1,14.1 111.5,13.4 112.6,12.4 C113.7,11.4 114.3,10.5 114.3,9.7 C114.3,9.4 114.2,9.1 114,8.9 C113.8,8.7 113.6,8.6 113.3,8.6 C112.5,8.6 111.5,9.2 110.5,10.5 C109.5,11.8 108.9,13 108.6,14.4 Z" id="Shape"></path>
                </g>
                <g id="Group" transform="translate(73.000000, 10.000000)">
                    <g id="Shape">
                        <path d="M136.7,109.3 C135.5,109.3 134,110.4 132.2,112.7 C130.3,115 129.4,116.8 129.4,118.1 C129.4,118.4 129.6,118.7 129.9,119 C130.2,119.3 130.6,119.4 131.1,119.4 C132.3,119.4 133.7,118.4 135.3,116.5 C136.9,114.6 137.7,112.8 137.7,111 C137.7,110.4 137.6,110 137.4,109.7 C137.1,109.4 136.9,109.3 136.7,109.3 Z"></path>
                        <path d="M134.8,29.8 C101.6,0.6 82.4,2.7 82.4,2.7 C127.2,23.5 113.3,73.1 84.5,81.9 C55.7,90.7 35.7,72.5 38.6,50.4 C41.4,29.4 76.5,26.4 79.8,50.9 C83,75.3 59.2,75 59.2,75 C95.9,84.1 124.4,26.3 77.4,5.6 C29.5,-15.6 -14.5,35.3 5.1,74.7 C26.9,118.6 102.1,100.7 106.5,164 C108.3,190.2 87.9,210.6 63.5,214.6 C62.8,214.8 62.4,214.9 62.4,214.9 C153.3,215.9 209.2,95.1 134.8,29.8 Z M92,110.8 L91.9,111.1 C91.4,112.9 91.1,114.4 91,115.6 C90.9,116.8 90.8,117.7 90.8,118.4 C90.8,119 90.9,119.8 91.1,120.7 C91.1,120.9 91.1,121 91.1,121.1 C91.1,121.3 90.9,121.6 90.5,122 C90.1,122.4 89.6,122.6 89.2,122.6 C87.9,122.6 87.3,121.6 87.3,119.7 C87.3,118.1 87.5,116.1 88,113.8 C88.1,113.3 88.2,112.8 88.3,112.3 C88.6,110.6 88.8,109.6 88.8,109.3 C88.8,108.6 89,108 89.3,107.5 C89.6,107 90,106.8 90.6,106.8 C91.2,106.8 91.8,107 92.1,107.3 C92.5,107.6 92.6,107.9 92.6,108.3 C92.5,108.8 92.3,109.6 92,110.8 Z M94.2,102.4 C93.6,102.9 93.1,103.2 92.6,103.2 C92,103.2 91.5,103 91.1,102.5 C90.7,102 90.4,101.5 90.4,101.1 C90.4,100.4 90.6,99.9 91.1,99.4 C91.5,99 92.2,98.8 93,98.8 C93.6,98.8 94.2,99 94.6,99.4 C95,99.8 95.2,100.2 95.2,100.7 C95.1,101.3 94.8,101.9 94.2,102.4 Z M122,121.1 C121.5,121.5 120.9,121.7 120.3,121.7 C119.3,121.7 118.6,121.2 118,120.3 C117.5,119.3 117.1,117.4 116.9,114.5 C116.8,113.1 116.7,112.2 116.6,111.7 C116.5,111.2 116.3,111 116.1,111 C115.9,111 115.6,111.3 115.2,112 C114.8,112.7 114.1,114 113.1,116.1 C112.2,117.9 111.5,119.2 110.9,119.9 C110.3,120.6 109.6,121 108.9,121 C108.3,121 107.8,120.8 107.2,120.3 C106.6,119.8 106.3,118.1 106.3,115.1 C106.3,112.4 106.1,111.1 105.8,111.1 C105.4,111.1 104.4,112.3 102.9,114.7 C101.4,117.1 100.2,119.2 99.4,121.1 C99.3,122.1 98.7,122.6 97.8,122.6 C96.5,122.6 95.9,121.7 95.9,119.9 C95.9,117 96.1,114.5 96.4,112.4 C96.6,110.8 96.8,109.2 96.8,107.6 C96.8,107.2 96.9,106.9 97.2,106.7 C97.4,106.4 97.8,106.3 98.2,106.3 C99.6,106.3 100.3,107.2 100.3,108.9 C100.3,109.5 100,110.9 99.5,113.2 C99.2,114.6 99,115.6 99,116.2 C101.7,110.2 104.2,107.2 106.4,107.2 C107.3,107.2 108,107.6 108.5,108.3 C109,109 109.3,110.6 109.3,113 C109.3,115.2 109.4,116.3 109.6,116.3 C109.8,116.3 110.4,115.2 111.4,113.1 C112.5,110.7 113.5,109.2 114.3,108.4 C115.1,107.6 116,107.3 116.8,107.3 C117.9,107.3 118.6,107.8 119.1,108.7 C119.6,109.6 119.9,111.2 120.1,113.3 C120.2,115 120.4,116.3 120.7,117.2 C120.9,118.1 121.4,118.7 122,118.9 C122.5,119.1 122.7,119.5 122.7,119.9 C122.9,120.3 122.6,120.7 122,121.1 Z M137.5,118.5 C135.1,121 132.7,122.3 130.4,122.3 C129.3,122.3 128.6,121.9 128.3,121 C128.1,121.7 128,122.7 127.8,124 L127.1,129.6 C127,130.5 126.8,131.2 126.4,131.5 C126.1,131.9 125.7,132 125.2,132 C124.8,132 124.4,131.8 124,131.5 C123.6,131.2 123.4,130.8 123.4,130.4 C123.4,129.6 123.5,128.7 123.8,127.7 C125.2,122 126,116.1 126.1,110 L126.1,109.7 C126.1,108.4 126.1,107.6 126.2,107.1 C126.3,106.7 126.5,106.3 126.8,106 C127.1,105.7 127.6,105.5 128.2,105.5 C129.2,105.5 129.8,106.3 129.8,107.9 C129.8,108.5 129.7,109.7 129.4,111.2 L129.3,112.2 C130.4,110.4 131.7,108.9 133.2,107.7 C134.7,106.5 136,105.9 137.2,105.9 C138.3,105.9 139.2,106.3 139.9,107 C140.7,107.8 141,108.7 141,109.9 C141.1,113.1 139.9,115.9 137.5,118.5 Z M149.3,105.5 C148.8,107.2 148.5,109.1 148.2,111.1 C148,113.1 147.8,114.7 147.8,115.8 C147.8,117 147.9,118.5 148.1,120.1 C148.1,120.5 148.2,120.8 148.2,120.9 C148.2,121.5 148,122 147.6,122.4 C147.2,122.8 146.7,123 146.2,123 C145.5,123 145,122.7 144.8,122 C144.5,121.4 144.4,120.3 144.4,118.7 C144.4,115.3 144.8,111.4 145.6,106.8 C146.4,102.3 147,99.6 147.5,98.7 C148,97.9 148.6,97.5 149.2,97.5 C150.2,97.5 150.7,98.1 150.7,99.2 C150.7,99.7 150.6,100.3 150.5,100.9 C150.3,101.6 149.9,103.1 149.3,105.5 Z M165.3,120.3 C164.9,122.5 164.3,124.5 163.6,126.2 C162.8,128 162,129.2 161.2,129.8 C160.3,130.4 159.3,130.8 158.1,130.8 C156.8,130.8 155.6,130.6 154.4,130.1 C153.4,129.7 152.5,129.1 151.8,128.4 C151.1,127.7 150.7,127.1 150.7,126.6 C150.7,126.2 150.8,125.8 151,125.5 C151.2,125.2 151.5,125.1 151.9,125.1 C152.2,125.1 152.5,125.2 152.7,125.5 C153.9,127.1 155.7,127.9 158,127.9 C158.9,127.9 159.9,126.9 160.7,124.9 C161.6,122.9 162.1,120.5 162.4,117.8 C159.4,120.1 157.2,121.3 155.6,121.3 C154.6,121.3 153.8,120.9 153.1,120.1 C152.5,119.3 152.2,118.3 152.2,117.1 C152.2,115.9 152.5,114.3 153,112.1 C153.5,109.9 154,108.5 154.4,108 C154.8,107.5 155.4,107.2 156.2,107.2 C156.7,107.2 157,107.4 157.3,107.8 C157.5,108.2 157.7,108.6 157.7,109.1 C157.7,109.2 157.4,110.1 156.7,111.5 C155.9,113.3 155.4,114.8 155.4,116.1 C155.4,116.8 155.5,117.3 155.7,117.6 C155.9,117.9 156.1,118.1 156.3,118.1 C156.8,118.1 157.3,118 158,117.7 C158.7,117.4 159.4,116.9 160.3,116.3 C161.2,115.6 161.8,115.1 162,114.7 C162.3,114.3 162.5,113.9 162.6,113.3 C162.8,112.7 162.9,111.5 163,109.6 C163,108.5 163.1,107.8 163.2,107.5 C163.3,107.2 163.4,107 163.7,106.7 C164,106.5 164.3,106.3 164.8,106.3 C165.4,106.3 165.9,106.4 166.1,106.7 C166.4,107 166.5,107.6 166.5,108.6 L166.2,113.3 C165.9,115.8 165.6,118.1 165.3,120.3 Z"></path>
                    </g>
                    <path d="M56,145.7 C56,145.7 55.4,145.3 55.1,145.1 C54.3,144.6 53.5,144.2 52.7,143.9 C48.5,142.1 44,141.1 39.2,141.1 C19.8,141.1 4.1,157.5 4.1,177.8 C4.1,198.1 19.8,214.5 39.2,214.5 C40.8,214.5 42.3,214.4 43.8,214.2 C26.4,213.7 12.4,198.9 12.4,180.5 C12.4,164.9 22.6,151.7 36.4,147.9 C33.7,150.8 32,154.8 32,159.2 C32,168.1 38.9,175.4 47.5,175.4 C56.1,175.4 63,168.2 63,159.2 C62.9,153.5 60.1,148.6 56,145.7 Z" id="Shape"></path>
                </g>
            </g>
        </g>
    </g>
</svg>