<?xml version="1.0" encoding="UTF-8" standalone="no"?>
<svg width="36px" height="37px" viewBox="0 0 36 37" version="1.1" xmlns="http://www.w3.org/2000/svg" xmlns:xlink="http://www.w3.org/1999/xlink">
    <!-- Generator: Sketch 42 (36781) - http://www.bohemiancoding.com/sketch -->
    <title>Flat_copy</title>
    <desc>Created with Sketch.</desc>
    <defs></defs>
    <g id="Homepage" stroke="none" stroke-width="1" fill="none" fill-rule="evenodd">
        <g id="desktop" transform="translate(-1012.000000, -6047.000000)" fill-rule="nonzero">
            <g id="footer" transform="translate(0.000000, 5882.000000)">
                <g id="bottom-footer">
                    <g id="center" transform="translate(794.000000, 100.000000)">
                        <g id="ig" transform="translate(218.000000, 64.000000)">
                            <g id="Flat_copy">
                                <g id="Group">
                                    <path d="M18,36.6975 C8.308125,36.6975 0.421875,28.81125 0.421875,19.119375 C0.421875,9.4275 8.308125,1.54125 18,1.54125 C27.691875,1.54125 35.578125,9.4275 35.578125,19.119375 C35.578125,28.81125 27.691875,36.6975 18,36.6975 Z" id="Shape" fill="#FFFFFF"></path>
                                    <path d="M18,1.963125 C27.460125,1.963125 35.15625,9.65925 35.15625,19.119375 C35.15625,28.5795 27.460125,36.275625 18,36.275625 C8.539875,36.275625 0.84375,28.5795 0.84375,19.119375 C0.84375,9.65925 8.539875,1.963125 18,1.963125 L18,1.963125 Z M18,1.119375 C8.058375,1.119375 0,9.17775 0,19.119375 C0,29.059875 8.058375,37.119375 18,37.119375 C27.941625,37.119375 36,29.059875 36,19.119375 C36,9.17775 27.941625,1.119375 18,1.119375 L18,1.119375 Z" id="Shape" fill="#E5E5E5"></path>
                                </g>
                                <path d="M24.814125,10.0395 L11.185875,10.0395 C9.903375,10.0395 8.9145,11.028375 8.9145,12.310875 L8.9145,25.938 C8.9145,27.2205 9.903375,28.209375 11.185875,28.209375 L24.813,28.209375 C26.0955,28.209375 27.084375,27.2205 27.084375,25.938 L27.084375,12.310875 C27.0855,11.028375 26.0955,10.0395 24.814125,10.0395 Z M18.0135,15.555375 C20.028375,15.555375 21.661875,17.13825 21.661875,19.090125 C21.661875,21.042 20.028375,22.624875 18.0135,22.624875 C15.99975,22.624875 14.36625,21.040875 14.36625,19.090125 C14.36625,17.13825 15.99975,15.555375 18.0135,15.555375 Z M24.814125,25.371 C24.814125,25.76925 24.64425,25.939125 24.246,25.939125 L11.754,25.939125 C11.356875,25.939125 11.185875,25.76925 11.185875,25.371 L11.185875,17.42175 L12.601125,17.73 C12.44925,18.223875 12.367125,18.745875 12.367125,19.288125 C12.367125,22.307625 14.896125,24.759 18.012375,24.759 C21.130875,24.759 23.65875,22.30875 23.65875,19.288125 C23.65875,18.745875 23.576625,18.223875 23.42475,17.73 L24.813,17.42175 L24.813,25.371 L24.814125,25.371 Z M24.814125,15.150375 C24.814125,15.46425 24.559875,15.7185 24.246,15.7185 L21.974625,15.7185 C21.66075,15.7185 21.4065,15.46425 21.4065,15.150375 L21.4065,12.879 C21.4065,12.565125 21.66075,12.310875 21.974625,12.310875 L24.246,12.310875 C24.559875,12.310875 24.814125,12.565125 24.814125,12.879 L24.814125,15.150375 Z" id="Shape" fill="#43474D"></path>
                            </g>
                        </g>
                    </g>
                </g>
            </g>
        </g>
    </g>
</svg>