<?xml version="1.0" encoding="UTF-8" standalone="no"?>
<svg width="36px" height="37px" viewBox="0 0 36 37" version="1.1" xmlns="http://www.w3.org/2000/svg" xmlns:xlink="http://www.w3.org/1999/xlink">
    <!-- Generator: Sketch 42 (36781) - http://www.bohemiancoding.com/sketch -->
    <title>Flat_copy</title>
    <desc>Created with Sketch.</desc>
    <defs></defs>
    <g id="Homepage" stroke="none" stroke-width="1" fill="none" fill-rule="evenodd">
        <g id="desktop" transform="translate(-936.000000, -6047.000000)" fill-rule="nonzero">
            <g id="footer" transform="translate(0.000000, 5882.000000)">
                <g id="bottom-footer">
                    <g id="center" transform="translate(794.000000, 100.000000)">
                        <g id="twitter" transform="translate(142.000000, 65.062500)">
                            <g id="Flat_copy">
                                <g id="Group">
                                    <path d="M18,35.578125 C8.307,35.578125 0.421875,27.691875 0.421875,18 C0.421875,8.308125 8.307,0.421875 18,0.421875 C27.691875,0.421875 35.578125,8.308125 35.578125,18 C35.578125,27.691875 27.691875,35.578125 18,35.578125 Z" id="Shape" fill="#FFFFFF"></path>
                                    <path d="M18,0.84375 C27.460125,0.84375 35.15625,8.539875 35.15625,18 C35.15625,27.460125 27.460125,35.15625 18,35.15625 C8.539875,35.15625 0.84375,27.460125 0.84375,18 C0.84375,8.539875 8.539875,0.84375 18,0.84375 L18,0.84375 Z M18,0 C8.058375,0 0,8.058375 0,18 C0,27.9405 8.058375,36 18,36 C27.941625,36 36,27.9405 36,18 C36,8.058375 27.941625,0 18,0 L18,0 Z" id="Shape" fill="#E5E5E5"></path>
                                </g>
                                <path d="M20.50425,9.99675 C18.7155,10.648125 17.584875,12.326625 17.713125,14.16375 L17.755875,14.8725 L17.040375,14.785875 C14.436,14.452875 12.160125,13.3245 10.227375,11.428875 L9.282375,10.488375 L9.0405,11.1825 C8.52525,12.7305 8.854875,14.36625 9.928125,15.4665 C10.50075,16.074 10.371375,16.160625 9.38475,15.7995 C9.041625,15.683625 8.740125,15.597 8.712,15.640875 C8.611875,15.742125 8.955,17.058375 9.22725,17.580375 C9.599625,18.304875 10.357875,19.0125 11.188125,19.43325 L11.890125,19.76625 L11.05875,19.778625 C10.25775,19.778625 10.2285,19.79325 10.315125,20.098125 C10.600875,21.038625 11.7315,22.037625 12.9915,22.471875 L13.879125,22.775625 L13.10625,23.239125 C11.961,23.90625 10.6155,24.282 9.27,24.309 C8.625375,24.323625 8.0955,24.381 8.0955,24.424875 C8.0955,24.568875 9.842625,25.378875 10.857375,25.698375 C13.906125,26.638875 17.5275,26.23275 20.246625,24.627375 C22.179375,23.484375 24.111,21.211875 25.01325,19.011375 C25.500375,17.84025 25.986375,15.69825 25.986375,14.671125 C25.986375,14.005125 26.029125,13.9185 26.830125,13.123125 C27.302625,12.659625 27.745875,12.153375 27.8325,12.009375 C27.9765,11.73375 27.96075,11.73375 27.23175,11.980125 C26.015625,12.414375 25.8435,12.357 26.445375,11.705625 C26.888625,11.242125 27.4185,10.402875 27.4185,10.157625 C27.4185,10.114875 27.203625,10.186875 26.960625,10.31625 C26.703,10.461375 26.130375,10.6785 25.700625,10.807875 L24.92775,11.05425 L24.226875,10.575 C23.839875,10.315125 23.297625,10.024875 23.01075,9.93825 C22.2795,9.73575 21.1635,9.765 20.50425,9.99675 Z" id="Shape" fill="#43474D"></path>
                            </g>
                        </g>
                    </g>
                </g>
            </g>
        </g>
    </g>
</svg>