<?xml version="1.0" encoding="UTF-8" standalone="no"?>
<svg width="64px" height="64px" viewBox="0 0 64 64" version="1.1" xmlns="http://www.w3.org/2000/svg" xmlns:xlink="http://www.w3.org/1999/xlink">
    <!-- Generator: Sketch 46.2 (44496) - http://www.bohemiancoding.com/sketch -->
    <title>if_calendar_1055101</title>
    <desc>Created with Sketch.</desc>
    <defs></defs>
    <g id="Page-1" stroke="none" stroke-width="1" fill="none" fill-rule="evenodd">
        <g id="Desktop-HD" transform="translate(-448.000000, -3714.000000)" fill-rule="nonzero">
            <g id="Body" transform="translate(-18.000000, 1304.000000)">
                <g id="Info" transform="translate(268.000000, 2410.000000)">
                    <g id="dates" transform="translate(80.000000, 0.000000)">
                        <g id="if_calendar_1055101" transform="translate(118.000000, 0.000000)">
                            <circle id="Oval" fill="#46B1C9" cx="32" cy="32" r="32"></circle>
                            <g id="Group" transform="translate(12.000000, 8.000000)">
                                <g opacity="0.2" transform="translate(0.000000, 17.000000)" id="Shape" fill="#231F20">
                                    <path d="M0,0 L0,25 C0,27.209 1.791,29 4,29 L36,29 C38.209,29 40,27.209 40,25 L40,0 L0,0 Z"></path>
                                </g>
                                <path d="M0,15 L0,40 C0,42.209 1.791,44 4,44 L36,44 C38.209,44 40,42.209 40,40 L40,15 L0,15 Z" id="Shape" fill="#FFFFFF"></path>
                                <g opacity="0.2" transform="translate(0.000000, 6.000000)" id="Shape" fill="#231F20">
                                    <path d="M36,0 L4,0 C1.791,0 0,1.791 0,4 L0,11 L40,11 L40,4 C40,1.791 38.209,0 36,0 Z"></path>
                                </g>
                                <path d="M36,4 L4,4 C1.791,4 0,5.791 0,8 L0,15 L40,15 L40,8 C40,5.791 38.209,4 36,4 Z" id="Shape" fill="#6D4DC6"></path>
                                <path d="M20,40 C18.896,40 18,39.104 18,38 C18,32.485 19.757,28.545 21.491,26 L15,26 C13.896,26 13,25.104 13,24 C13,22.896 13.896,22 15,22 L26,22 C26.871,22 27.642,22.563 27.906,23.394 C28.17,24.225 27.867,25.129 27.156,25.632 C26.957,25.778 22,29.493 22,38 C22,39.104 21.104,40 20,40 Z" id="Shape" fill="#333E48"></path>
                                <g opacity="0.2" transform="translate(6.000000, 2.000000)" id="Shape" fill="#231F20">
                                    <path d="M2,11 C0.895,11 0,10.105 0,9 L0,2 C0,0.895 0.895,0 2,0 L2,0 C3.105,0 4,0.895 4,2 L4,9 C4,10.105 3.105,11 2,11 L2,11 Z"></path>
                                </g>
                                <g opacity="0.2" transform="translate(31.000000, 2.000000)" id="Shape" fill="#231F20">
                                    <path d="M2,11 C0.895,11 0,10.105 0,9 L0,2 C0,0.895 0.895,0 2,0 L2,0 C3.105,0 4,0.895 4,2 L4,9 C4,10.105 3.105,11 2,11 L2,11 Z"></path>
                                </g>
                                <path d="M8,11 C6.895,11 6,10.105 6,9 L6,2 C6,0.895 6.895,0 8,0 L8,0 C9.105,0 10,0.895 10,2 L10,9 C10,10.105 9.105,11 8,11 L8,11 Z" id="Shape" fill="#E0E0D1"></path>
                                <path d="M33,11 C31.895,11 31,10.105 31,9 L31,2 C31,0.895 31.895,0 33,0 L33,0 C34.105,0 35,0.895 35,2 L35,9 C35,10.105 34.105,11 33,11 L33,11 Z" id="Shape" fill="#E0E0D1"></path>
                            </g>
                        </g>
                    </g>
                </g>
            </g>
        </g>
    </g>
</svg>