<?xml version="1.0" encoding="UTF-8"?>
<svg width="20px" height="16px" viewBox="0 0 20 16" version="1.1" xmlns="http://www.w3.org/2000/svg" xmlns:xlink="http://www.w3.org/1999/xlink">
    <!-- Generator: Sketch 49.3 (51167) - http://www.bohemiancoding.com/sketch -->
    <title>envelope</title>
    <desc>Created with Sketch.</desc>
    <defs>
        <path d="M19.6210938,5.453125 C19.7734375,5.33203125 20,5.4453125 20,5.63671875 L20,13.625 C20,14.6601563 19.1601562,15.5 18.125,15.5 L1.875,15.5 C0.83984375,15.5 0,14.6601563 0,13.625 L0,5.640625 C0,5.4453125 0.22265625,5.3359375 0.37890625,5.45703125 C1.25390625,6.1367188 2.4140625,7 6.3984375,9.8945313 C7.22265625,10.4960938 8.6132812,11.7617188 10,11.7539063 C11.3945312,11.765625 12.8125,10.4726563 13.6054688,9.8945313 C17.5898438,7 18.7460938,6.1328125 19.6210938,5.453125 Z M10,10.5 C10.90625,10.515625 12.2109375,9.359375 12.8671875,8.8828125 C18.0507812,5.12109375 18.4453125,4.79296875 19.640625,3.85546875 C19.8671875,3.6796875 20,3.40625 20,3.1171875 L20,2.375 C20,1.33984375 19.1601562,0.5 18.125,0.5 L1.875,0.5 C0.83984375,0.5 0,1.33984375 0,2.375 L0,3.1171875 C0,3.40625 0.1328125,3.67578125 0.359375,3.85546875 C1.5546875,4.7890625 1.94921875,5.12109375 7.1328125,8.8828125 C7.7890625,9.359375 9.09375,10.515625 10,10.5 Z" id="path-1"></path>
    </defs>
    <g id="Page-1" stroke="none" stroke-width="1" fill="none" fill-rule="evenodd" opacity="0.699999988">
        <g id="envelope">
            <g id="Page-1">
                <g id="homepage">
                    <g id="footer">
                        <g id="Group">
                            <g id="contact-section-copy">
                                <g id="Icons/Solid/envelope">
                                    <g id="envelope" fill="#000000" fill-rule="nonzero">
                                        <path d="M19.6210938,5.453125 C19.7734375,5.33203125 20,5.4453125 20,5.63671875 L20,13.625 C20,14.6601563 19.1601562,15.5 18.125,15.5 L1.875,15.5 C0.83984375,15.5 0,14.6601563 0,13.625 L0,5.640625 C0,5.4453125 0.22265625,5.3359375 0.37890625,5.45703125 C1.25390625,6.1367188 2.4140625,7 6.3984375,9.8945313 C7.22265625,10.4960938 8.6132812,11.7617188 10,11.7539063 C11.3945312,11.765625 12.8125,10.4726563 13.6054688,9.8945313 C17.5898438,7 18.7460938,6.1328125 19.6210938,5.453125 Z M10,10.5 C10.90625,10.515625 12.2109375,9.359375 12.8671875,8.8828125 C18.0507812,5.12109375 18.4453125,4.79296875 19.640625,3.85546875 C19.8671875,3.6796875 20,3.40625 20,3.1171875 L20,2.375 C20,1.33984375 19.1601562,0.5 18.125,0.5 L1.875,0.5 C0.83984375,0.5 0,1.33984375 0,2.375 L0,3.1171875 C0,3.40625 0.1328125,3.67578125 0.359375,3.85546875 C1.5546875,4.7890625 1.94921875,5.12109375 7.1328125,8.8828125 C7.7890625,9.359375 9.09375,10.515625 10,10.5 Z" id="path-1"></path>
                                    </g>
                                    <g id="Colors/5th-Clipped">
                                        <mask id="mask-2" fill="white">
                                            <use xlink:href="#path-1"></use>
                                        </mask>
                                        <g id="path-1"></g>
                                        <g id="Colors/5th" mask="url(#mask-2)" fill="#D33E43">
                                            <g transform="translate(-2.000000, -4.000000)" id="Rectangle">
                                                <rect x="0" y="0" width="24" height="24"></rect>
                                            </g>
                                        </g>
                                    </g>
                                </g>
                            </g>
                        </g>
                    </g>
                </g>
            </g>
        </g>
    </g>
</svg>