<?xml version="1.0" encoding="UTF-8"?>
<svg width="65px" height="65px" viewBox="0 0 65 65" version="1.1" xmlns="http://www.w3.org/2000/svg" xmlns:xlink="http://www.w3.org/1999/xlink">
    <!-- Generator: Sketch 49.3 (51167) - http://www.bohemiancoding.com/sketch -->
    <title>speedometer</title>
    <desc>Created with Sketch.</desc>
    <defs></defs>
    <g id="Page-1" stroke="none" stroke-width="1" fill="none" fill-rule="evenodd">
        <g id="homepage" transform="translate(-962.000000, -753.000000)" fill-rule="nonzero">
            <g id="hero" transform="translate(0.000000, -3.000000)">
                <g id="hero-synopsis" transform="translate(132.000000, 726.000000)">
                    <g id="experience" transform="translate(800.000000, 0.000000)">
                        <g id="speedometer" transform="translate(30.000000, 30.000000)">
                            <circle id="Oval" fill="#D33E43" cx="32.5" cy="32.5" r="31.2304688"></circle>
                            <circle id="Oval" fill="#FFFFFF" cx="32.5" cy="32.5" r="24.375"></circle>
                            <circle id="Oval" fill="#FDB954" cx="32.4834961" cy="32.5" r="2.79296875"></circle>
                            <path d="M54.0704785,11.7063477 C54.3478711,11.9944043 54.6825195,12.1178027 55.0045996,12.1178027 C55.3379785,12.1178027 55.6577734,11.9855176 55.8862891,11.7665234 C56.3358301,11.3358984 56.4655762,10.5386328 55.9043164,9.94957031 C55.3431836,9.36063477 54.5407129,9.45166016 54.0886328,9.87961914 C53.6368066,10.307832 53.503125,11.1044629 54.061084,11.6964453 C54.0642578,11.699873 54.0674316,11.7031738 54.0704785,11.7063477 Z" id="Shape" fill="#000000"></path>
                            <path d="M60.0706641,15.2843945 C59.6988184,14.689873 58.9153906,14.5094727 58.3209961,14.8814453 C57.7266016,15.253418 57.5462012,16.0367187 57.9181738,16.6309863 C60.8900195,21.3808105 62.4609375,26.8682324 62.4609375,32.5 C62.4609375,49.0205371 49.0205371,62.4609375 32.5,62.4609375 C15.9794629,62.4609375 2.5390625,49.0205371 2.5390625,32.5 C2.5390625,15.9794629 15.9794629,2.5390625 32.5,2.5390625 C38.3469531,2.5390625 44.0116016,4.22334961 48.8813965,7.40974609 C49.4684277,7.79352539 50.2550293,7.62924805 50.6389355,7.0424707 C51.0227148,6.45569336 50.8584375,5.66896484 50.2716602,5.28493164 C44.9873633,1.82761719 38.8420703,0 32.5,0 C23.8189453,0 15.6575098,3.38063477 9.51894531,9.51894531 C3.38063477,15.6575098 0,23.8189453 0,32.5 C0,41.1810547 3.38063477,49.3424902 9.51894531,55.4810547 C15.6575098,61.6193652 23.8189453,65 32.5,65 C41.1810547,65 49.3424902,61.6193652 55.4810547,55.4810547 C61.6193652,49.3424902 65,41.1810547 65,32.5 C65,26.3913965 63.2954004,20.4383105 60.0706641,15.2843945 Z" id="Shape" fill="#000000"></path>
                            <path d="M48.8383594,50.6330957 C49.3342383,51.1287207 50.1381055,51.1287207 50.6338574,50.6330957 C55.4771191,45.7894531 58.1445312,39.3496289 58.1445312,32.5 C58.1445312,29.0363379 57.4527637,25.731748 56.2026562,22.714707 C56.1989746,22.7051855 56.1964355,22.6956641 56.1925,22.6861426 C56.1891992,22.6781445 56.1848828,22.6709082 56.181582,22.6630371 C54.9037988,19.5983887 53.047998,16.8333496 50.7509082,14.5040137 C50.7151074,14.4564063 50.6768945,14.4099414 50.6336035,14.3665234 C50.5903125,14.3232324 50.5438477,14.2851465 50.4963672,14.2493457 C48.1663965,11.9516211 45.4007227,10.0955664 42.3353125,8.81765625 C42.3280762,8.81448242 42.3213477,8.81054688 42.3139844,8.8075 C42.3053516,8.80394531 42.2964648,8.8015332 42.2877051,8.79823242 C39.2700293,7.54749023 35.9645508,6.85546875 32.5,6.85546875 C29.0354492,6.85546875 25.7299707,7.54749023 22.7124219,8.79823242 C22.7036621,8.80166016 22.6949023,8.80394531 22.6861426,8.80762695 C22.6787793,8.81067383 22.6720508,8.81460937 22.6648145,8.8177832 C19.5994043,10.0955664 16.8336035,11.951748 14.5037598,14.2494727 C14.4561523,14.2851465 14.4098145,14.3233594 14.3665234,14.3666504 C14.3231055,14.4100684 14.2850195,14.4564062 14.2492187,14.5041406 C11.9516211,16.8339844 10.0954395,19.5996582 8.8177832,22.6649414 C8.81460937,22.6721777 8.81067383,22.6789063 8.80762695,22.6862695 C8.80407227,22.6950293 8.80166016,22.7037891 8.79823242,22.7125488 C7.54749023,25.7300977 6.85546875,29.0354492 6.85546875,32.5 C6.85546875,39.3498828 9.52300781,45.789834 14.3665234,50.6334766 C14.6144629,50.8812891 14.9393359,51.0053223 15.264209,51.0053223 C15.589082,51.0053223 15.9139551,50.8812891 16.1618945,50.6334766 C16.6576465,50.1377246 16.6576465,49.3338574 16.1618945,48.8379785 C14.2883203,46.9644043 12.7771973,44.8251172 11.6614062,42.5058105 L13.5700195,41.7152734 C14.2178613,41.4468945 14.5253418,40.7042188 14.2570898,40.0565039 C13.9887109,39.4086621 13.2462891,39.1016895 12.5983203,39.3694336 L10.689834,40.1599707 C9.9753418,38.1207227 9.54839844,35.9740723 9.42969727,33.7696582 L15.6152344,33.7696582 C16.3162695,33.7696582 16.8847656,33.2011621 16.8847656,32.500127 C16.8847656,31.7990918 16.3162695,31.2305957 15.6152344,31.2305957 L9.42982422,31.2305957 C9.55106445,29.0039648 9.98956055,26.8607422 10.6998633,24.8442188 L12.5988281,25.6308203 C12.7577734,25.696709 12.9223047,25.7279395 13.0841699,25.7279395 C13.582334,25.7279395 14.0549805,25.4327734 14.2574707,24.943877 C14.5258496,24.2960352 14.2182422,23.5534863 13.5705273,23.2852344 L11.672959,22.4991406 C12.6245996,20.5252734 13.8496973,18.7074316 15.2972168,17.0928418 L17.0546289,18.8502539 C17.3025684,19.0980664 17.6274414,19.2220996 17.9523145,19.2220996 C18.2771875,19.2220996 18.6020605,19.0980664 18.85,18.8502539 C19.345752,18.354502 19.345752,17.5506348 18.85,17.0547559 L17.0925879,15.2973437 C18.7071777,13.8498242 20.5250195,12.6247266 22.4988867,11.6730859 L23.2849805,13.5706543 C23.4874707,14.0595508 23.9601172,14.3547168 24.4582813,14.3547168 C24.6201465,14.3547168 24.7846777,14.3234863 24.943623,14.2575977 C25.5914648,13.9893457 25.8989453,13.2466699 25.6305664,12.5989551 L24.8439648,10.6999902 C26.8604883,9.98981445 29.0037109,9.55119141 31.2303418,9.42995117 L31.2303418,14.8535156 C31.2303418,15.5545508 31.7988379,16.1230469 32.499873,16.1230469 C33.2009082,16.1230469 33.7694043,15.5545508 33.7694043,14.8535156 L33.7694043,9.42982422 C35.9960352,9.55106445 38.1392578,9.98956055 40.1557813,10.6998633 L39.3691797,12.5988281 C39.1008008,13.2466699 39.4084082,13.9892188 40.056123,14.2574707 C40.2150684,14.3233594 40.3795996,14.3545898 40.5414648,14.3545898 C41.0396289,14.3545898 41.5122754,14.0594238 41.7147656,13.5705273 L42.5008594,11.672959 C44.4747266,12.6245996 46.2925684,13.8496973 47.9071582,15.2972168 L46.4590039,16.7453711 C45.963252,17.241123 45.963252,18.0449902 46.4590039,18.5408691 C46.7069434,18.7886816 47.0318164,18.9127148 47.3566895,18.9127148 C47.6815625,18.9127148 48.0064355,18.7886816 48.254375,18.5408691 L49.7025293,17.0927148 C51.1500488,18.7073047 52.3751465,20.5251465 53.3267871,22.4988867 L51.4297266,23.2847266 C50.7818848,23.5531055 50.4744043,24.2957813 50.7426563,24.9434961 C50.9452734,25.4323926 51.4179199,25.7275586 51.916084,25.7275586 C52.0779492,25.7275586 52.2424805,25.6963281 52.4014258,25.6305664 L54.3000098,24.8442187 C55.0101855,26.8606152 55.4488086,29.0038379 55.5699219,31.2304687 L50.0195312,31.2304687 C49.3184961,31.2304687 48.75,31.7989648 48.75,32.5 C48.75,33.2010352 49.3184961,33.7695312 50.0195312,33.7695312 L55.5703027,33.7695312 C55.4517285,35.9739453 55.0246582,38.1205957 54.310166,40.1598438 L52.4012988,39.3691797 C51.753457,39.1014355 51.0109082,39.4086621 50.7425293,40.05625 C50.4742773,40.7040918 50.7818848,41.4466406 51.4295996,41.7150195 L53.3384668,42.5056836 C52.2228027,44.8247363 50.7119336,46.9638965 48.8384863,48.8374707 C48.3426074,49.3334766 48.3426074,50.1373437 48.8383594,50.6330957 Z" id="Shape" fill="#000000"></path>
                            <path d="M43.8094922,21.1905078 C43.3136133,20.6948828 42.51,20.6948828 42.0139941,21.1905078 L34.3243164,28.8801855 C33.7713086,28.5978418 33.1460645,28.4375 32.48375,28.4375 C30.2436621,28.4375 28.42125,30.2599121 28.42125,32.5 C28.42125,33.1623145 28.5815918,33.7875586 28.8639355,34.3405664 L28.3822754,34.8222266 C27.8865234,35.3179785 27.8865234,36.1218457 28.3822754,36.6177246 C28.6302148,36.8655371 28.9550879,36.9895703 29.2799609,36.9895703 C29.604834,36.9895703 29.929707,36.8655371 30.1776465,36.6177246 L30.6645117,36.1308594 C31.2121875,36.4064746 31.8299414,36.562627 32.48375,36.562627 C34.7238379,36.562627 36.54625,34.7402148 36.54625,32.500127 C36.54625,31.8463184 36.3900977,31.2286914 36.1144824,30.6808887 L43.8093652,22.9860059 C44.3052441,22.490127 44.3052441,21.6862598 43.8094922,21.1905078 Z M32.483877,34.0234375 C32.0724219,34.0234375 31.6990527,33.8587793 31.424707,33.5926855 C31.4217871,33.5897656 31.419375,33.5864648 31.4164551,33.5835449 C31.4108691,33.577959 31.4047754,33.5732617 31.3990625,33.5678027 C31.1281445,33.2926953 30.9604395,32.9156445 30.9604395,32.499873 C30.9604395,31.6598242 31.6438281,30.9764355 32.483877,30.9764355 C33.3239258,30.9764355 34.0073145,31.6598242 34.0073145,32.499873 C34.0073145,33.3399219 33.3239258,34.0234375 32.483877,34.0234375 Z" id="Shape" fill="#000000"></path>
                            <path d="M27.0410156,50.006709 C26.7071289,50.006709 26.3795898,50.1425488 26.143457,50.3788086 C25.9073242,50.6148145 25.7714844,50.9412109 25.7714844,51.2762402 C25.7714844,51.6102539 25.9071973,51.937666 26.143457,52.1737988 C26.3797168,52.4099316 26.7071289,52.5457715 27.0410156,52.5457715 C27.3749023,52.5457715 27.7024414,52.4100586 27.9384473,52.1737988 C28.1745801,51.937666 28.3105469,51.6102539 28.3105469,51.2762402 C28.3105469,50.941084 28.174707,50.6148145 27.9384473,50.3788086 C27.7024414,50.1426758 27.3749023,50.006709 27.0410156,50.006709 Z" id="Shape" fill="#000000"></path>
                            <path d="M31.9921875,50.0064551 C31.2911523,50.0064551 30.7226562,50.5749512 30.7226562,51.2759863 C30.7226562,51.9770215 31.2911523,52.5455176 31.9921875,52.5455176 L37.9589844,52.5455176 C38.6600195,52.5455176 39.2285156,51.9770215 39.2285156,51.2759863 C39.2285156,50.5749512 38.6600195,50.0064551 37.9589844,50.0064551 L31.9921875,50.0064551 Z" id="Shape" fill="#000000"></path>
                        </g>
                    </g>
                </g>
            </g>
        </g>
    </g>
</svg>