<?xml version="1.0" encoding="UTF-8"?>
<svg width="22px" height="22px" viewBox="0 0 22 22" version="1.1" xmlns="http://www.w3.org/2000/svg" xmlns:xlink="http://www.w3.org/1999/xlink">
    <!-- Generator: Sketch 49.3 (51167) - http://www.bohemiancoding.com/sketch -->
    <title>Icons/Brands/google-plus-square</title>
    <desc>Created with Sketch.</desc>
    <defs>
        <path d="M22.1228565,3.76999989 L5.71714269,3.76999989 C4.48205344,3.76999989 3.4799999,4.74421861 3.4799999,5.94499983 L3.4799999,21.8949994 C3.4799999,23.0957806 4.48205344,24.0699993 5.71714269,24.0699993 L22.1228565,24.0699993 C23.3579458,24.0699993 24.3599993,23.0957806 24.3599993,21.8949994 L24.3599993,5.94499983 C24.3599993,4.74421861 23.3579458,3.76999989 22.1228565,3.76999989 Z M11.1235711,18.4512495 C8.54619618,18.4512495 6.46285696,16.4257808 6.46285696,13.9199996 C6.46285696,11.4142184 8.54619618,9.38874973 11.1235711,9.38874973 C12.3819639,9.38874973 13.4306246,9.83281222 14.2462496,10.5759372 L12.9831961,11.7585934 C12.6383032,11.4368747 12.0370711,11.0607809 11.1282318,11.0607809 C9.5389283,11.0607809 8.24324976,12.3385934 8.24324976,13.9245308 C8.24324976,15.5059371 9.5389283,16.7882808 11.1282318,16.7882808 C12.9738746,16.7882808 13.6636603,15.4968746 13.7755175,14.8353121 L11.1235711,14.8353121 L11.1235711,13.2765621 L15.5232853,13.2765621 C15.5698924,13.5031246 15.5978567,13.7342184 15.5978567,14.0287496 C15.5978567,16.6160933 13.8128032,18.4512495 11.1235711,18.4512495 Z M21.3771422,14.7446871 L20.0255351,14.7446871 L20.0255351,16.0587495 L18.6646066,16.0587495 L18.6646066,14.7446871 L17.3129995,14.7446871 L17.3129995,13.4215621 L18.6646066,13.4215621 L18.6646066,12.1074997 L20.0255351,12.1074997 L20.0255351,13.4215621 L21.3771422,13.4215621 L21.3771422,14.7446871 Z" id="path-1"></path>
    </defs>
    <g id="Page-1" stroke="none" stroke-width="1" fill="none" fill-rule="evenodd">
        <g id="homepage" transform="translate(-231.000000, -5079.000000)">
            <g id="footer" transform="translate(0.000000, 4827.000000)">
                <g id="Group" transform="translate(132.000000, 50.000000)">
                    <g id="logo-section" transform="translate(0.000000, 50.000000)">
                        <g id="social-media-copy" transform="translate(0.000000, 149.000000)">
                            <g id="Icons/Brands/google-plus-square" transform="translate(96.000000, 0.000000)">
                                <mask id="mask-2" fill="white">
                                    <use xlink:href="#path-1"></use>
                                </mask>
                                <use id="google-plus-square" fill="#000000" fill-rule="nonzero" xlink:href="#path-1"></use>
                                <g id="Colors/5th" mask="url(#mask-2)" fill="#FFFFFF" fill-rule="evenodd">
                                    <rect id="Rectangle" x="0" y="0" width="27.9436863" height="27.9436863"></rect>
                                </g>
                            </g>
                        </g>
                    </g>
                </g>
            </g>
        </g>
    </g>
</svg>