<?xml version="1.0" encoding="UTF-8"?>
<svg width="18px" height="18px" viewBox="0 0 18 18" version="1.1" xmlns="http://www.w3.org/2000/svg" xmlns:xlink="http://www.w3.org/1999/xlink">
    <!-- Generator: Sketch 50 (54983) - http://www.bohemiancoding.com/sketch -->
    <title>Icons/Brands/instagram</title>
    <desc>Created with Sketch.</desc>
    <defs>
        <path d="M12.0020078,7.51171875 C9.44807585,7.51171875 7.3880647,9.515625 7.3880647,12 C7.3880647,14.484375 9.44807585,16.4882812 12.0020078,16.4882812 C14.5559398,16.4882812 16.6159509,14.484375 16.6159509,12 C16.6159509,9.515625 14.5559398,7.51171875 12.0020078,7.51171875 Z M12.0020078,14.9179687 C10.3515895,14.9179687 9.00234244,13.609375 9.00234244,12 C9.00234244,10.390625 10.3475739,9.08203125 12.0020078,9.08203125 C13.6564417,9.08203125 15.0016732,10.390625 15.0016732,12 C15.0016732,13.609375 13.6524261,14.9179687 12.0020078,14.9179687 Z M17.8808701,7.328125 C17.8808701,7.91015625 17.3989961,8.375 16.8046849,8.375 C16.2063581,8.375 15.7284997,7.90625 15.7284997,7.328125 C15.7284997,6.75 16.2103737,6.28125 16.8046849,6.28125 C17.3989961,6.28125 17.8808701,6.75 17.8808701,7.328125 Z M20.936754,8.390625 C20.8684886,6.98828125 20.539208,5.74609375 19.4831009,4.72265625 C18.4310095,3.69921875 17.1540435,3.37890625 15.7124373,3.30859375 C14.2266592,3.2265625 9.77334077,3.2265625 8.28756274,3.30859375 C6.84997211,3.375 5.57300613,3.6953125 4.51689905,4.71875 C3.46079197,5.7421875 3.13552705,6.984375 3.06324596,8.38671875 C2.97891801,9.83203125 2.97891801,14.1640625 3.06324596,15.609375 C3.13151143,17.0117188 3.46079197,18.2539062 4.51689905,19.2773438 C5.57300613,20.3007813 6.8459565,20.6210938 8.28756274,20.6914063 C9.77334077,20.7734375 14.2266592,20.7734375 15.7124373,20.6914063 C17.1540435,20.625 18.4310095,20.3046875 19.4831009,19.2773438 C20.5351924,18.2539063 20.864473,17.0117188 20.936754,15.609375 C21.021082,14.1640625 21.021082,9.8359375 20.936754,8.390625 Z M19.0172895,17.1601562 C18.7040714,17.9257812 18.0977133,18.515625 17.3066369,18.8242187 C16.1220301,19.28125 13.3110987,19.1757812 12.0020078,19.1757812 C10.6929169,19.1757812 7.87796988,19.2773437 6.69737869,18.8242187 C5.9103179,18.5195312 5.30395984,17.9296875 4.98672616,17.1601562 C4.51689905,16.0078125 4.62532069,13.2734375 4.62532069,12 C4.62532069,10.7265625 4.52091467,7.98828125 4.98672616,6.83984375 C5.29994423,6.07421875 5.90630229,5.484375 6.69737869,5.17578125 C7.8819855,4.71875 10.6929169,4.82421875 12.0020078,4.82421875 C13.3110987,4.82421875 16.1260457,4.72265625 17.3066369,5.17578125 C18.0936977,5.48046875 18.7000558,6.0703125 19.0172895,6.83984375 C19.4871166,7.9921875 19.3786949,10.7265625 19.3786949,12 C19.3786949,13.2734375 19.4871166,16.0117187 19.0172895,17.1601562 Z" id="path-1"></path>
    </defs>
    <g id="Page-1" stroke="none" stroke-width="1" fill="none" fill-rule="evenodd">
        <g id="homepage-copy" transform="translate(-269.000000, -5128.000000)">
            <g id="Icons/Brands/instagram" transform="translate(266.000000, 5125.000000)">
                <mask id="mask-2" fill="white">
                    <use xlink:href="#path-1"></use>
                </mask>
                <use id="instagram" fill="#000000" fill-rule="nonzero" xlink:href="#path-1"></use>
                <g id="Colors/5th" mask="url(#mask-2)" fill="#FFFFFF" fill-rule="evenodd">
                    <rect id="Rectangle" x="0" y="0" width="24" height="24"></rect>
                </g>
            </g>
        </g>
    </g>
</svg>