<?xml version="1.0" encoding="UTF-8"?>
<svg width="22px" height="22px" viewBox="0 0 22 22" version="1.1" xmlns="http://www.w3.org/2000/svg" xmlns:xlink="http://www.w3.org/1999/xlink">
    <!-- Generator: Sketch 49.3 (51167) - http://www.bohemiancoding.com/sketch -->
    <title>Icons/Brands/linkedin</title>
    <desc>Created with Sketch.</desc>
    <defs>
        <path d="M22.8685708,3.76999989 L4.96676771,3.76999989 C4.14648202,3.76999989 3.4799999,4.42703112 3.4799999,5.2335936 L3.4799999,22.6064056 C3.4799999,23.4129681 4.14648202,24.0699993 4.96676771,24.0699993 L22.8685708,24.0699993 C23.6888565,24.0699993 24.3599993,23.4129681 24.3599993,22.6064056 L24.3599993,5.2335936 C24.3599993,4.42703112 23.6888565,3.76999989 22.8685708,3.76999989 Z M9.79060686,21.1699994 L6.69589266,21.1699994 L6.69589266,11.4821872 L9.79526758,11.4821872 L9.79526758,21.1699994 L9.79060686,21.1699994 Z M8.24324976,10.1590622 C7.25051765,10.1590622 6.44887481,9.37515598 6.44887481,8.41453101 C6.44887481,7.45390604 7.25051765,6.66999981 8.24324976,6.66999981 C9.23132116,6.66999981 10.0376247,7.45390604 10.0376247,8.41453101 C10.0376247,9.37968723 9.23598188,10.1590622 8.24324976,10.1590622 Z M21.3911244,21.1699994 L18.2964102,21.1699994 L18.2964102,16.4574995 C18.2964102,15.3337496 18.2731066,13.8882809 16.6884638,13.8882809 C15.0758567,13.8882809 14.8288389,15.1117183 14.8288389,16.375937 L14.8288389,21.1699994 L11.7341247,21.1699994 L11.7341247,11.4821872 L14.7029996,11.4821872 L14.7029996,12.8053121 L14.744946,12.8053121 C15.1597496,12.0440622 16.1711245,11.2420309 17.6765352,11.2420309 C20.8085351,11.2420309 21.3911244,13.2493746 21.3911244,15.8593745 L21.3911244,21.1699994 Z" id="path-1"></path>
    </defs>
    <g id="Page-1" stroke="none" stroke-width="1" fill="none" fill-rule="evenodd">
        <g id="homepage" transform="translate(-135.000000, -5079.000000)">
            <g id="footer" transform="translate(0.000000, 4827.000000)">
                <g id="Group" transform="translate(132.000000, 50.000000)">
                    <g id="logo-section" transform="translate(0.000000, 50.000000)">
                        <g id="social-media-copy" transform="translate(0.000000, 149.000000)">
                            <g id="Icons/Brands/linkedin">
                                <mask id="mask-2" fill="white">
                                    <use xlink:href="#path-1"></use>
                                </mask>
                                <use id="linkedin" fill="#000000" fill-rule="nonzero" xlink:href="#path-1"></use>
                                <g id="Colors/5th" mask="url(#mask-2)" fill="#FFFFFF" fill-rule="evenodd">
                                    <rect id="Rectangle" x="0" y="0" width="27.9436863" height="27.9436863"></rect>
                                </g>
                            </g>
                        </g>
                    </g>
                </g>
            </g>
        </g>
    </g>
</svg>