<?xml version="1.0" encoding="UTF-8"?>
<svg width="20px" height="20px" viewBox="0 0 20 20" version="1.1" xmlns="http://www.w3.org/2000/svg" xmlns:xlink="http://www.w3.org/1999/xlink">
    <!-- Generator: Sketch 49.3 (51167) - http://www.bohemiancoding.com/sketch -->
    <title>phone</title>
    <desc>Created with Sketch.</desc>
    <defs>
        <path d="M19.2733127,0.96151298 L15.2108127,0.02413017 C14.7688596,-0.07786202 14.3171018,0.15116142 14.1383127,0.56830986 L12.2633127,4.94319267 C12.098778,5.32711503 12.2080802,5.77357872 12.5313596,6.03807548 L14.8992111,7.97541923 C13.4940158,10.9705364 11.0344455,13.464013 7.97542207,14.8991692 L6.03807832,12.5313567 C5.77358157,12.2080774 5.32711787,12.0987751 4.94319551,12.2633099 L0.5683127,14.1383099 C0.15128145,14.3170208 -0.07789824,14.7687395 0.02413301,15.2108099 L0.96151582,19.2733099 C1.0589377,19.6954583 1.43546114,19.9999895 1.87499239,19.9999895 C11.8783908,19.9999895 19.9999924,11.8932708 19.9999924,1.87498954 C19.9999924,1.43842704 19.6986643,1.05963798 19.2733127,0.96151298 Z" id="path-1"></path>
    </defs>
    <g id="Page-1" stroke="none" stroke-width="1" fill="none" fill-rule="evenodd" opacity="0.699999988">
        <g id="phone">
            <g id="Page-1">
                <g id="homepage">
                    <g id="footer">
                        <g id="Group">
                            <g id="contact-section-copy">
                                <g id="Icons/Solid/phone">
                                    <g id="phone" fill="#000000" fill-rule="nonzero">
                                        <path d="M19.2733127,0.96151298 L15.2108127,0.02413017 C14.7688596,-0.07786202 14.3171018,0.15116142 14.1383127,0.56830986 L12.2633127,4.94319267 C12.098778,5.32711503 12.2080802,5.77357872 12.5313596,6.03807548 L14.8992111,7.97541923 C13.4940158,10.9705364 11.0344455,13.464013 7.97542207,14.8991692 L6.03807832,12.5313567 C5.77358157,12.2080774 5.32711787,12.0987751 4.94319551,12.2633099 L0.5683127,14.1383099 C0.15128145,14.3170208 -0.07789824,14.7687395 0.02413301,15.2108099 L0.96151582,19.2733099 C1.0589377,19.6954583 1.43546114,19.9999895 1.87499239,19.9999895 C11.8783908,19.9999895 19.9999924,11.8932708 19.9999924,1.87498954 C19.9999924,1.43842704 19.6986643,1.05963798 19.2733127,0.96151298 Z" id="path-1"></path>
                                    </g>
                                    <g id="Colors/5th-Clipped">
                                        <mask id="mask-2" fill="white">
                                            <use xlink:href="#path-1"></use>
                                        </mask>
                                        <g id="path-1"></g>
                                        <g id="Colors/5th" mask="url(#mask-2)" fill="#D33E43">
                                            <g transform="translate(-2.000000, -2.000000)" id="Rectangle">
                                                <rect x="0" y="0" width="24" height="24"></rect>
                                            </g>
                                        </g>
                                    </g>
                                </g>
                            </g>
                        </g>
                    </g>
                </g>
            </g>
        </g>
    </g>
</svg>