<?xml version="1.0" encoding="UTF-8"?>
<svg width="69px" height="65px" viewBox="0 0 69 65" version="1.1" xmlns="http://www.w3.org/2000/svg" xmlns:xlink="http://www.w3.org/1999/xlink">
    <!-- Generator: Sketch 49.3 (51167) - http://www.bohemiancoding.com/sketch -->
    <title>car-engine</title>
    <desc>Created with Sketch.</desc>
    <defs></defs>
    <g id="Page-1" stroke="none" stroke-width="1" fill="none" fill-rule="evenodd">
        <g id="homepage" transform="translate(-562.000000, -753.000000)" fill-rule="nonzero">
            <g id="hero" transform="translate(0.000000, -3.000000)">
                <g id="hero-synopsis" transform="translate(132.000000, 726.000000)">
                    <g id="quality" transform="translate(400.000000, 0.000000)">
                        <g id="car-engine" transform="translate(30.000000, 30.000000)">
                            <polygon id="Shape" fill="#D33E43" points="1.33096018 8.5544257 6.4479697 8.5544257 13.5574266 1.33741838 26.9908077 1.33741838 34.0725806 8.5544257 66.8142011 8.5544257 66.8142011 56.2652592 1.33096018 56.2652592"></polygon>
                            <path d="M66.8142011,19.513585 L66.8142011,29.1362614 L37.2668851,29.1362614 C34.62067,29.1362614 32.4754284,26.9821184 32.4754284,24.3249232 C32.4754284,21.667728 34.62067,19.513585 37.2668851,19.513585 L65.6252544,19.513585" id="Shape" fill="#F4F4F4"></path>
                            <polygon id="Shape" fill="#F2777B" points="56.0318265 56.2652592 49.2439296 63.0813217 14.5415386 63.0813217 7.76189359 56.2736791"></polygon>
                            <ellipse id="Oval" fill="#F4F4F4" cx="18.0012365" cy="41.598162" rx="10.6157384" ry="10.6597871"></ellipse>
                            <polygon id="Shape" fill="#D33E43" points="19.0593498 48.5232814 19.3614778 47.3050773 21.0380883 46.6074333 22.1125725 47.2560284 23.6120322 45.7594349 22.9627898 44.6747455 23.657551 42.9913117 24.8929483 42.6821832 24.9005347 40.5692038 23.657551 40.2582043 22.9627898 38.5747705 23.6288023 37.4621485 22.1515696 35.9698318 21.0380883 36.6420827 19.3614778 35.9444386 19.0461733 34.6730425 16.9552348 34.6730425 16.6397973 35.9444386 14.9633198 36.6420827 13.8497055 35.9698318 12.3724728 37.4621485 13.0384852 38.5747705 12.343724 40.2582043 11.1007403 40.5692038 11.1083268 42.6821832 12.343724 42.9913117 13.0384852 44.6747455 12.3892428 45.7594349 13.8887026 47.2560284 14.9633198 46.6074333 16.6397973 47.3050773 16.9419252 48.5232814"></polygon>
                            <ellipse id="Oval" fill="#F2777B" cx="18.0012365" cy="14.0612696" rx="5.48488691" ry="5.50764577"></ellipse>
                            <path d="M66.8142011,7.21794286 L34.6297206,7.21794286 L27.9388506,0.399341072 C27.6886301,0.144340146 27.3472388,0.000935537986 26.9908077,0.000935537986 L13.5574266,0.000935537986 C13.2019271,0.000935537986 12.8612013,0.143671905 12.611247,0.397469996 L5.89256001,7.21794286 L1.33096018,7.21794286 C0.596003969,7.21794286 0,7.81628623 0,8.5544257 L0,56.2651256 C0,57.0032651 0.596003969,57.6016084 1.33096018,57.6016084 L7.20222483,57.6016084 L13.6004166,64.0262151 C13.8501047,64.2768056 14.1885679,64.4176709 14.5415386,64.4176709 L49.2437965,64.4176709 C49.5967671,64.4176709 49.9352303,64.2768056 50.1849184,64.0262151 L56.5829771,57.6016084 L66.8142011,57.6016084 C67.5491573,57.6016084 68.1451613,57.0032651 68.1451613,56.2651256 L68.1451613,8.5544257 C68.1451613,7.81628623 67.5491573,7.21794286 66.8142011,7.21794286 Z M41.1266696,54.9287764 C40.3917134,54.9287764 39.7957094,55.5271198 39.7957094,56.2652592 C39.7957094,57.0033987 40.3917134,57.6017421 41.1266696,57.6017421 L52.8184893,57.6017421 L48.6925128,61.7448389 L15.0928223,61.7448389 L10.9668457,57.6017421 L26.4861076,57.6017421 C27.2210638,57.6017421 27.8170678,57.0033987 27.8170678,56.2652592 C27.8170678,55.5271198 27.2210638,54.9287764 26.4861076,54.9287764 L2.66192036,54.9287764 L2.66192036,9.89090854 L6.4479697,9.89090854 C6.80346916,9.89090854 7.14419497,9.74817217 7.39414929,9.49437408 L14.1128363,2.67390121 L26.4335347,2.67390121 L33.1244046,9.492503 C33.3746251,9.74737028 33.7160164,9.89090854 34.0724475,9.89090854 L65.4831078,9.89090854 L65.4831078,27.7997786 L62.0226114,27.7997786 L62.0226114,25.1268129 C62.0226114,24.3886734 61.4266074,23.7903301 60.6916512,23.7903301 C59.956695,23.7903301 59.360691,24.3886734 59.360691,25.1268129 L59.360691,27.7997786 L52.4396981,27.7997786 L52.4396981,25.1268129 C52.4396981,24.3886734 51.8436941,23.7903301 51.1087379,23.7903301 C50.3737817,23.7903301 49.7777777,24.3886734 49.7777777,25.1268129 L49.7777777,27.7997786 L42.8567847,27.7997786 L42.8567847,25.1268129 C42.8567847,24.3886734 42.2607808,23.7903301 41.5258246,23.7903301 C40.7908684,23.7903301 40.1948644,24.3886734 40.1948644,25.1268129 L40.1948644,27.7997786 L37.266752,27.7997786 C35.3585544,27.7997786 33.8062555,26.240905 33.8062555,24.3249232 C33.8062555,22.4089414 35.3585544,20.8500678 37.266752,20.8500678 L54.8354264,20.8500678 C55.5703826,20.8500678 56.1663866,20.2517244 56.1663866,19.513585 C56.1663866,18.7754455 55.5703826,18.1771021 54.8354264,18.1771021 L37.2668851,18.1771021 C33.8910377,18.1771021 31.1444682,20.9350681 31.1444682,24.3249232 C31.1444682,27.7147783 33.8910377,30.4727442 37.2668851,30.4727442 L40.1949975,30.4727442 L40.1949975,33.0120616 C40.1949975,35.5176997 38.165017,37.5561033 35.6697329,37.5561033 C34.9347767,37.5561033 34.3387727,38.1544466 34.3387727,38.8925861 C34.3387727,39.6307256 34.9347767,40.229069 35.6697329,40.229069 C39.6326668,40.229069 42.8569178,36.9915729 42.8569178,33.0120616 L42.8569178,30.4727442 L49.7779108,30.4727442 L49.7779108,33.0120616 C49.7779108,35.5176997 47.7479303,37.5561033 45.2526462,37.5561033 C44.51769,37.5561033 43.921686,38.1544466 43.921686,38.8925861 C43.921686,39.6307256 44.51769,40.229069 45.2526462,40.229069 C49.2155801,40.229069 52.4398311,36.9915729 52.4398311,33.0120616 L52.4398311,30.4727442 L59.3608241,30.4727442 L59.3608241,33.0120616 C59.3608241,35.5176997 57.3308436,37.5561033 54.8355595,37.5561033 C54.1006033,37.5561033 53.5045993,38.1544466 53.5045993,38.8925861 C53.5045993,39.6307256 54.1006033,40.229069 54.8355595,40.229069 C58.7984934,40.229069 62.0227445,36.9915729 62.0227445,33.0120616 L62.0227445,30.4727442 L65.4832409,30.4727442 L65.4832409,54.9286427 L41.1266696,54.9286427 L41.1266696,54.9287764 Z" id="Shape" fill="#000000"></path>
                            <path d="M18.000571,38.1233066 C16.0923734,38.1233066 14.5400745,39.6821802 14.5400745,41.598162 C14.5400745,43.5141438 16.0923734,45.0730174 18.000571,45.0730174 C19.9087686,45.0730174 21.4610674,43.5141438 21.4610674,41.598162 C21.4610674,39.6821802 19.9087686,38.1233066 18.000571,38.1233066 Z M18.000571,42.4000517 C17.5601562,42.4000517 17.2019949,42.0404041 17.2019949,41.598162 C17.2019949,41.1559198 17.5601562,40.7962723 18.000571,40.7962723 C18.4409857,40.7962723 18.7991471,41.1559198 18.7991471,41.598162 C18.7991471,42.0404041 18.4409857,42.4000517 18.000571,42.4000517 Z" id="Shape" fill="#000000"></path>
                            <path d="M21.465992,34.8243324 L20.9274855,35.149365 L20.4907975,34.9676033 L20.337604,34.349881 C20.1900005,33.7543442 19.6573502,33.336426 19.0461733,33.336426 L16.9552348,33.336426 C16.3440579,33.336426 15.8114077,33.7543442 15.6638042,34.349881 L15.5106107,34.9676033 L15.0739226,35.149365 L14.5354161,34.8243324 C14.0104854,34.5074523 13.337552,34.5912498 12.9057885,35.0276114 L11.4285558,36.5199281 C10.9987887,36.9541514 10.9177333,37.6260013 11.2317068,38.1507045 L11.5519358,38.6856986 L11.3710583,39.1241986 L10.7791803,39.2722809 C10.1843742,39.4210314 9.76765058,39.9584312 9.76991321,40.5738815 L9.77749968,42.6869945 C9.77976232,43.29897 10.1954212,43.8311575 10.7867668,43.9791062 L11.3711914,44.1253174 L11.5520689,44.5638174 L11.24861,45.070879 C10.9330393,45.5981215 11.0166236,46.2735799 11.451049,46.7072686 L12.9506419,48.203862 C13.3830708,48.6354124 14.0522776,48.7166705 14.5746795,48.4013942 L15.0739226,48.1000173 L15.5104776,48.2816454 L15.6506277,48.8461757 C15.7982312,49.4417125 16.3308814,49.8596306 16.9420583,49.8596306 L19.0593498,49.8596306 C19.6705267,49.8596306 20.2030439,49.4417125 20.3507805,48.8463093 L20.4909306,48.2816454 L20.9276186,48.0998837 L21.4268618,48.4012606 C21.9493967,48.7165369 22.6184704,48.6352787 23.0508994,48.2037284 L24.5504922,46.7071349 C24.9850507,46.2734462 25.068635,45.5978542 24.7529313,45.0706117 L24.4494723,44.5636837 L24.6304829,44.1251837 L25.2149075,43.9789725 C25.8062532,43.8310239 26.221912,43.2988364 26.2241746,42.6868609 L26.2317611,40.5737479 C26.2340238,39.9582975 25.8173001,39.4208978 25.2226271,39.2721472 L24.630616,39.1240649 L24.4496054,38.6855649 L24.7698345,38.1507045 C25.0839411,37.6260013 25.0028856,36.9541514 24.5731185,36.5199281 L23.0958858,35.0276114 C22.66359,34.5913834 21.9911889,34.5075859 21.465992,34.8243324 Z M23.5658479,41.612596 L23.5658479,41.63692 L23.335858,41.6943887 C22.9264546,41.796897 22.5895886,42.0881166 22.42801,42.4795724 L21.7331157,44.1630062 C21.5715371,44.5545957 21.6044119,45.0000454 21.8220238,45.3633014 L21.9338245,45.5500081 L21.909601,45.5741984 L21.723799,45.4619339 C21.3621771,45.2436862 20.9188343,45.2102741 20.5284636,45.3727905 L18.8519862,46.0704345 C18.4622811,46.2326835 18.1722648,46.5708137 18.0701802,46.9819158 L18.0193375,47.1867986 L17.9820706,47.1867986 L17.9312279,46.9820494 C17.8292764,46.5708137 17.5392602,46.2326835 17.1494219,46.0704345 L15.4729445,45.3727905 C15.0828401,45.2104078 14.6393641,45.2435526 14.2776092,45.4619339 L14.0918071,45.5741984 L14.0675836,45.5500081 L14.1793843,45.3633014 C14.3968632,45.0000454 14.4297379,44.5547293 14.2681593,44.1632735 L13.5733981,42.4798397 C13.4118196,42.0883839 13.0750866,41.7970306 12.6655502,41.694656 L12.4355603,41.6371873 L12.4355603,41.6128633 L12.6655502,41.5553945 C13.0750866,41.4528863 13.4118196,41.1616667 13.5733981,40.7702109 L14.2681593,39.0867771 C14.4297379,38.6951876 14.3968632,38.2498715 14.1793843,37.8866155 L14.0474861,37.6663631 L14.0582669,37.655404 L14.2777423,37.7878494 C14.6397634,38.006498 15.0832394,38.0392418 15.4728114,37.8769928 L17.1492888,37.1793488 C17.5391271,37.0170998 17.8291433,36.6788359 17.9312279,36.2677338 L17.9952471,36.009659 L18.0060279,36.009659 L18.0700471,36.2677338 C18.1721317,36.6788359 18.462148,37.0170998 18.8519862,37.1793488 L20.5284636,37.8769928 C20.9183019,38.0392418 21.362044,38.0059634 21.7235328,37.7878494 L21.9430081,37.655404 L21.9536558,37.6663631 L21.8218908,37.8866155 C21.6042788,38.2498715 21.571404,38.6953213 21.7329826,39.0869107 L22.4278769,40.7703445 C22.5894555,41.1618003 22.9263215,41.4530199 23.3355918,41.5555282 L23.5658479,41.612596 Z" id="Shape" fill="#000000"></path>
                            <path d="M29.7509529,39.4231698 L24.7514672,13.1007394 C24.7492046,13.089112 24.7457441,13.0781528 24.7432153,13.0666591 C24.261807,9.76300713 21.4219372,7.21794286 18.0004379,7.21794286 C14.5770752,7.21794286 11.7362738,9.76581374 11.2571281,13.0721386 C11.2551317,13.0817613 11.2520705,13.090983 11.2502071,13.1006057 L6.25098759,39.4231698 C6.25005592,39.4281148 6.24978972,39.4330598 6.24885805,39.4380048 C6.12135207,40.13899 6.05440477,40.8608244 6.05440477,41.598162 C6.05440477,48.2126828 11.4135159,53.5938973 18.000571,53.5938973 C24.5877591,53.5938973 29.9468703,48.2125492 29.9468703,41.598162 C29.9468703,40.8651011 29.8807216,40.1472762 29.7548127,39.4501668 C29.7532156,39.4412123 29.7526832,39.4322579 29.7509529,39.4231698 Z M18.000571,20.9055318 C20.0213678,20.9055318 21.8386608,20.0170381 23.0879001,18.609588 L25.7162802,32.4479322 C23.6331945,30.6741522 20.9394642,29.6024266 18.0007041,29.6024266 C15.0623433,29.6024266 12.3690123,30.6738849 10.2860596,32.447264 L12.9141735,18.6101226 C14.1631466,20.0171717 15.9800403,20.9055318 18.000571,20.9055318 Z M18.000571,9.89090854 C20.2908873,9.89090854 22.1542315,11.7619845 22.1542315,14.0616705 C22.1542315,16.3614902 20.2908873,18.2325662 18.000571,18.2325662 C15.7102547,18.2325662 13.8470435,16.3614902 13.8470435,14.0616705 C13.8470435,11.7619845 15.7102547,9.89090854 18.000571,9.89090854 Z M18.000571,50.9209317 C12.8811657,50.9209317 8.71632513,46.7388096 8.71632513,41.598162 C8.71632513,36.457648 12.8811657,32.2753923 18.000571,32.2753923 C23.1199762,32.2753923 27.2849499,36.4575144 27.2849499,41.598162 C27.2849499,46.7388096 23.1199762,50.9209317 18.000571,50.9209317 Z" id="Shape" fill="#000000"></path>
                            <path d="M17.9999055,15.3977524 C18.351279,15.3977524 18.6933357,15.2560852 18.9420922,15.006163 C19.1896508,14.7575771 19.3321966,14.4127646 19.3321966,14.0612696 C19.3321966,13.7097746 19.1897839,13.3662985 18.9420922,13.1163762 C18.6933357,12.8677904 18.351279,12.7247867 17.9999055,12.7247867 C17.6497299,12.7247867 17.3063421,12.8677904 17.0589166,13.1163762 C16.8113581,13.364962 16.6689453,13.7097746 16.6689453,14.0612696 C16.6689453,14.4141011 16.811225,14.7575771 17.0589166,15.006163 C17.3063421,15.2560852 17.6497299,15.3977524 17.9999055,15.3977524 Z" id="Shape" fill="#000000"></path>
                            <path d="M49.9110068,15.5277922 L50.0441028,15.5277922 C50.779059,15.5277922 51.375063,14.9294488 51.375063,14.1913094 C51.375063,13.4531699 50.779059,12.8548265 50.0441028,12.8548265 L49.9110068,12.8548265 C49.1760506,12.8548265 48.5800466,13.4531699 48.5800466,14.1913094 C48.5800466,14.9294488 49.1760506,15.5277922 49.9110068,15.5277922 Z" id="Shape" fill="#000000"></path>
                            <path d="M44.4540701,15.5277922 L44.5871661,15.5277922 C45.3221223,15.5277922 45.9181263,14.9294488 45.9181263,14.1913094 C45.9181263,13.4531699 45.3221223,12.8548265 44.5871661,12.8548265 L44.4540701,12.8548265 C43.7191138,12.8548265 43.1231099,13.4531699 43.1231099,14.1913094 C43.1231099,14.9294488 43.7191138,15.5277922 44.4540701,15.5277922 Z" id="Shape" fill="#000000"></path>
                            <path d="M55.3679435,15.5277922 L55.5010396,15.5277922 C56.2359958,15.5277922 56.8319997,14.9294488 56.8319997,14.1913094 C56.8319997,13.4531699 56.2359958,12.8548265 55.5010396,12.8548265 L55.3679435,12.8548265 C54.6329873,12.8548265 54.0369834,13.4531699 54.0369834,14.1913094 C54.0369834,14.9294488 54.6329873,15.5277922 55.3679435,15.5277922 Z" id="Shape" fill="#000000"></path>
                            <path d="M60.8248803,15.5277922 L60.9579763,15.5277922 C61.6929325,15.5277922 62.2889365,14.9294488 62.2889365,14.1913094 C62.2889365,13.4531699 61.6929325,12.8548265 60.9579763,12.8548265 L60.8248803,12.8548265 C60.0899241,12.8548265 59.4939201,13.4531699 59.4939201,14.1913094 C59.4939201,14.9294488 60.0899241,15.5277922 60.8248803,15.5277922 Z" id="Shape" fill="#000000"></path>
                            <path d="M33.5401966,15.5277922 L33.6732926,15.5277922 C34.4082488,15.5277922 35.0042528,14.9294488 35.0042528,14.1913094 C35.0042528,13.4531699 34.4082488,12.8548265 33.6732926,12.8548265 L33.5401966,12.8548265 C32.8052404,12.8548265 32.2092364,13.4531699 32.2092364,14.1913094 C32.2092364,14.9294488 32.8052404,15.5277922 33.5401966,15.5277922 Z" id="Shape" fill="#000000"></path>
                            <path d="M38.9971333,15.5277922 L39.1302293,15.5277922 C39.8651855,15.5277922 40.4611895,14.9294488 40.4611895,14.1913094 C40.4611895,13.4531699 39.8651855,12.8548265 39.1302293,12.8548265 L38.9971333,12.8548265 C38.2621771,12.8548265 37.6661731,13.4531699 37.6661731,14.1913094 C37.6661731,14.9294488 38.2621771,15.5277922 38.9971333,15.5277922 Z" id="Shape" fill="#000000"></path>
                            <path d="M34.0725806,55.028478 C33.7225381,55.028478 33.3791504,55.1701452 33.1315918,55.4200675 C32.8840332,55.6686533 32.7416205,56.0121294 32.7416205,56.3649608 C32.7416205,56.7164558 32.8839001,57.0612684 33.1315918,57.3098542 C33.3791504,57.55844 33.7225381,57.7014437 34.0725806,57.7014437 C34.4226232,57.7014437 34.7660109,57.55844 35.0134364,57.3098542 C35.260995,57.0612684 35.4035408,56.7164558 35.4035408,56.3649608 C35.4035408,56.0134659 35.2611281,55.6686533 35.0134364,55.4200675 C34.7660109,55.1701452 34.4226232,55.028478 34.0725806,55.028478 Z" id="Shape" fill="#000000"></path>
                        </g>
                    </g>
                </g>
            </g>
        </g>
    </g>
</svg>