<?xml version="1.0" encoding="UTF-8"?>
<svg width="60px" height="67px" viewBox="0 0 60 67" version="1.1" xmlns="http://www.w3.org/2000/svg" xmlns:xlink="http://www.w3.org/1999/xlink">
    <!-- Generator: Sketch 49.3 (51167) - http://www.bohemiancoding.com/sketch -->
    <title>settings</title>
    <desc>Created with Sketch.</desc>
    <defs></defs>
    <g id="Page-1" stroke="none" stroke-width="1" fill="none" fill-rule="evenodd">
        <g id="Artboard" transform="translate(-902.000000, -646.000000)" fill="#D33E43" fill-rule="nonzero" stroke="#000000" stroke-width="0.5">
            <path d="M961.392629,677.864303 C961.392374,677.163394 960.821522,676.595278 960.117553,676.595278 L956.730568,676.595278 C956.140845,674.317229 955.238983,672.14836 954.039774,670.124725 L956.435005,667.739908 C956.932922,667.244156 956.932922,666.440288 956.435005,665.944408 L949.256708,658.797321 C948.758791,658.301569 947.951412,658.301569 947.453367,658.797321 L946.731292,659.516258 C946.663585,654.438128 943.894502,649.720672 939.467182,647.170816 C939.072673,646.943443 938.586359,646.943316 938.191723,647.169927 C937.79696,647.396666 937.553675,647.815865 937.553675,648.269723 L937.553675,658.248249 L932.198227,661.326865 L926.842779,658.248249 L926.842779,648.269596 C926.842779,647.815865 926.599495,647.396666 926.204731,647.1698 C925.809967,646.943062 925.323653,646.943443 924.929272,647.170689 C920.507818,649.717371 917.740392,654.425559 917.665545,659.495945 L916.951502,658.785007 C916.453585,658.289254 915.646207,658.289254 915.148162,658.785007 L907.969865,665.932094 C907.471948,666.427846 907.471948,667.231714 907.969865,667.727594 L910.377209,670.124344 C909.178127,672.147979 908.276011,674.316975 907.686288,676.595151 L904.278774,676.595151 C903.574804,676.595151 903.003953,677.163267 903.003698,677.864176 L903,687.971686 C902.999873,688.308493 903.134138,688.631462 903.373342,688.869626 C903.612419,689.107917 903.936799,689.241726 904.275076,689.241726 L907.686033,689.241726 C908.275756,691.519775 909.177617,693.688898 910.376826,695.71266 L907.961322,698.117662 C907.463405,698.613415 907.463405,699.417283 907.961322,699.913162 L915.139619,707.060249 C915.637536,707.555875 916.444915,707.555875 916.942959,707.060249 L919.358464,704.655247 C921.390935,705.849115 923.569658,706.747309 925.857783,707.334468 L925.857783,710.730468 C925.857783,711.067148 925.992176,711.390244 926.23138,711.628281 C926.470457,711.866318 926.794709,712 927.132859,712 C927.132987,712 927.133114,712 927.133369,712 L937.285017,711.996318 C937.988986,711.996064 938.559583,711.427695 938.559583,710.726786 L938.559583,707.334214 C940.84758,706.747055 943.026175,705.849115 945.058774,704.654993 L947.465991,707.05187 C947.705067,707.289908 948.029447,707.423716 948.367597,707.423716 C948.367725,707.423716 948.367852,707.423716 948.36798,707.423716 C948.706257,707.423589 949.030637,707.289654 949.269714,707.051362 L956.444058,699.90034 C956.941465,699.40446 956.94121,698.6011 956.443548,698.105348 L954.040157,695.712279 C955.239238,693.688644 956.141227,691.519775 956.73095,689.241599 L960.121633,689.241599 C960.459911,689.241599 960.78429,689.10779 961.023367,688.869499 C961.262444,688.631335 961.396837,688.308366 961.396709,687.971559 L961.392629,677.864303 Z M924.292499,650.738583 L924.292499,658.981023 C924.292499,659.434627 924.535529,659.853699 924.930037,660.080438 L931.560689,663.891955 C931.955198,664.118694 932.441257,664.118694 932.835765,663.891955 L939.466417,660.080438 C939.860926,659.853699 940.103955,659.434627 940.103955,658.981023 L940.103955,650.738583 C942.663288,652.983116 944.184327,656.250004 944.184327,659.706434 C944.184327,666.286928 938.807458,671.64042 932.198227,671.64042 C925.588997,671.64042 920.212127,666.286928 920.212127,659.706434 C920.212127,656.250004 921.733166,652.98299 924.292499,650.738583 Z M955.721982,686.702788 L955.721982,686.702661 C955.121039,686.702661 954.601573,687.120464 954.47534,687.705465 C953.896838,690.386463 952.846813,692.911563 951.354208,695.210814 C951.027916,695.713295 951.098556,696.374467 951.523411,696.797602 L953.738984,699.003542 L948.367087,704.358049 L946.148709,702.149317 C945.723726,701.726435 945.059794,701.655849 944.554864,701.98085 C942.245573,703.46671 939.709447,704.512424 937.016485,705.088538 C936.42893,705.214222 936.009303,705.731429 936.009303,706.32976 L936.009303,709.457634 L928.407935,709.4603 L928.407935,706.329887 C928.407935,705.731556 927.988308,705.214349 927.400753,705.088792 C924.707791,704.512678 922.171665,703.467091 919.862374,701.980977 C919.357571,701.656103 918.693512,701.726435 918.268529,702.149444 L916.041353,704.366936 L910.666141,699.015476 L912.893317,696.797983 C913.3183,696.374848 913.388812,695.713676 913.06252,695.211195 C911.57017,692.911944 910.520018,690.386717 909.94126,687.705592 C909.815028,687.120591 909.295689,686.702788 908.694618,686.702788 L905.55079,686.702788 L905.553468,679.13447 L908.695001,679.13447 C909.295944,679.13447 909.81541,678.716667 909.941643,678.131666 C910.520273,675.450414 911.570298,672.925314 913.062902,670.62619 C913.389194,670.123709 913.318555,669.46241 912.8937,669.039275 L910.674684,666.830034 L916.049641,661.478447 L918.202862,663.622307 C919.170263,667.045601 921.373722,669.958416 924.301042,671.851797 L924.301042,696.276332 C924.267253,696.256528 924.233081,696.237993 924.199419,696.217934 C923.595925,695.856879 922.812391,696.051625 922.449886,696.652876 C922.087382,697.253872 922.282979,698.033873 922.886727,698.394801 C925.781278,700.125174 928.998678,700.969159 932.194274,700.969032 C936.872019,700.968905 941.502586,699.160329 945.001651,695.676605 C948.101361,692.590245 949.970241,688.494987 950.264018,684.144934 C950.554863,679.837156 949.289987,675.571273 946.70222,672.133252 C946.279787,671.572373 945.480824,671.458369 944.917113,671.878711 C944.353657,672.29918 944.239155,673.094923 944.66146,673.656057 C949.264996,679.77241 948.636001,688.467311 943.198438,693.881232 C942.255774,694.819798 941.217479,695.61681 940.112498,696.268969 L940.112498,681.743867 C940.112498,681.042831 939.541647,680.474335 938.837422,680.474335 C938.133197,680.474335 937.562346,681.042831 937.562346,681.743867 L937.562346,697.475025 C935.83959,698.106617 934.021204,698.428825 932.194019,698.428698 C930.393484,698.428571 928.584788,698.114362 926.85145,697.480103 L926.85145,673.164874 C928.507264,673.819318 930.311497,674.179485 932.198482,674.179485 C938.841247,674.179485 944.457321,669.720125 946.186197,663.650236 L948.355484,661.490381 L953.730441,666.841968 L951.523538,669.039148 C951.098556,669.462283 951.028044,670.123455 951.354336,670.626063 C952.846685,672.925187 953.896838,675.450287 954.475468,678.131412 C954.6017,678.716413 955.121039,679.134216 955.72211,679.134216 L958.843241,679.134216 L958.846047,686.702534 L955.721982,686.702534 L955.721982,686.702788 Z M919.448739,671.913242 C918.884136,671.494297 918.085173,671.610586 917.664398,672.172735 C913.875381,677.235884 913.037018,684.011506 915.476622,689.855545 C915.680379,690.343807 916.154707,690.638212 916.654537,690.638212 C916.817619,690.638212 916.983507,690.606854 917.143401,690.540585 C917.79369,690.271571 918.101749,689.52864 917.831433,688.881179 C915.735207,683.859797 916.45486,678.038863 919.709237,673.689953 C920.130268,673.127677 920.013471,672.332315 919.448739,671.913242 Z M920.012068,692.696251 C920.011303,692.695489 920.010538,692.694727 920.009773,692.693966 C919.511983,692.198721 918.701545,692.194658 918.203372,692.689903 C917.7052,693.185148 917.708133,693.992063 918.205285,694.48845 C918.4552,694.737913 918.784425,694.863089 919.113394,694.863089 C919.438539,694.863089 919.763683,694.740706 920.011558,694.494797 C920.510368,694.000188 920.508455,693.193273 920.012068,692.696251 Z M939.739283,675.598187 C939.502119,675.362054 939.173149,675.226214 938.837804,675.226214 C938.501184,675.226214 938.172215,675.362054 937.936325,675.598187 C937.697886,675.83432 937.562728,676.16186 937.562728,676.495747 C937.562728,676.830903 937.697886,677.157173 937.936325,677.393306 C938.17349,677.630709 938.501184,677.765279 938.837804,677.765279 C939.173149,677.765279 939.502119,677.630709 939.739283,677.393306 C939.976448,677.157173 940.112881,676.830903 940.112881,676.495747 C940.112881,676.16186 939.976448,675.83432 939.739283,675.598187 Z" id="settings"></path>
        </g>
    </g>
</svg>