<?xml version="1.0" encoding="UTF-8"?>
<svg width="65px" height="65px" viewBox="0 0 65 65" version="1.1" xmlns="http://www.w3.org/2000/svg" xmlns:xlink="http://www.w3.org/1999/xlink">
    <!-- Generator: Sketch 49.3 (51167) - http://www.bohemiancoding.com/sketch -->
    <title>simple-complex-icon</title>
    <desc>Created with Sketch.</desc>
    <defs></defs>
    <g id="Page-1" stroke="none" stroke-width="1" fill="none" fill-rule="evenodd">
        <g id="homepage" transform="translate(-162.000000, -753.000000)" fill-rule="nonzero">
            <g id="hero" transform="translate(0.000000, -3.000000)">
                <g id="hero-synopsis" transform="translate(132.000000, 726.000000)">
                    <g id="simple-complex">
                        <g id="simple-complex-icon" transform="translate(30.000000, 30.000000)">
                            <circle id="Oval" fill="#FFFFFF" cx="50.0197852" cy="32.4857813" r="13.7103027"></circle>
                            <polygon id="Shape" fill="#D33E43" points="51.4226172 41.6218359 51.8230273 40.0147363 54.0438184 39.0943262 55.4673437 39.9501172 57.4536523 37.9757422 56.5935449 36.5447266 57.5138281 34.3239355 59.1503809 33.9161621 59.1604102 31.1285254 57.5138281 30.7183398 56.5935449 28.4975488 57.4757422 27.0299707 55.5190137 25.0610547 54.0438184 25.9479492 51.8230273 25.0275391 51.4052246 23.3503613 48.6353613 23.3503613 48.2174316 25.0275391 45.9966406 25.9479492 44.5215723 25.0610547 42.5647168 27.0299707 43.447041 28.4975488 42.5266309 30.7183398 40.8800488 31.1285254 40.8900781 33.9161621 42.5266309 34.3239355 43.447041 36.5447266 42.5868066 37.9757422 44.5732422 39.9501172 45.9966406 39.0943262 48.2174316 40.0147363 48.6178418 41.6218359"></polygon>
                            <circle id="Oval" fill="#F4F4F4" cx="50.0197852" cy="32.4857812" r="2.53893555"></circle>
                            <circle id="Oval" fill="#D33E43" cx="11.4252734" cy="53.5754883" r="10.1557422"></circle>
                            <circle id="Oval" fill="#F4F4F4" cx="11.4252734" cy="53.5754883" r="4.82396484"></circle>
                            <circle id="Oval" fill="#D33E43" cx="11.4252734" cy="11.5355957" r="10.1557422"></circle>
                            <circle id="Oval" fill="#F4F4F4" cx="11.4252734" cy="11.5355957" r="4.82396484"></circle>
                            <path d="M59.4672559,29.8966992 L58.4416016,29.6410156 L58.0112305,28.602666 L58.5637305,27.6835254 C58.8632129,27.1851074 58.7858984,26.547041 58.3759668,26.1346973 L56.4192383,24.1660352 C56.0071484,23.7516602 55.3654004,23.6721875 54.8648242,23.9729395 L53.9383203,24.5298828 L52.8999707,24.0995117 L52.6367969,23.0432617 C52.4960059,22.4775586 51.9879395,22.0805762 51.4049707,22.0805762 L48.6351074,22.0805762 C48.0521387,22.0805762 47.5440723,22.4775586 47.4032813,23.0432617 L47.1401074,24.0995117 L46.1017578,24.5298828 L45.1752539,23.9729395 C44.6745508,23.6716797 44.0328027,23.7515332 43.6208398,24.1660352 L41.6641113,26.1346973 C41.2541797,26.547168 41.1768652,27.1853613 41.4764746,27.6836523 L42.0289746,28.602666 L41.5986035,29.6410156 L40.5729492,29.8966992 C40.0055957,30.037998 39.6081055,30.5484766 39.6102637,31.1330957 L39.620293,33.9207324 C39.6224512,34.5019238 40.0190527,35.0075781 40.5829785,35.1479883 L41.5986035,35.4010059 L42.0289746,36.4393555 L41.4985645,37.3215527 C41.1974316,37.8223828 41.2771582,38.4640039 41.6916602,38.8758398 L43.6779688,40.8503418 C44.0904395,41.2604004 44.7286328,41.3377148 45.2269238,41.0381055 L46.1017578,40.5122656 L47.1402344,40.9426367 L47.3860156,41.9289355 C47.5269336,42.4945117 48.034873,42.8914941 48.6178418,42.8914941 L51.4226172,42.8914941 C52.0055859,42.8914941 52.5136523,42.4945117 52.6544434,41.9288086 L52.9002246,40.9426367 L53.9385742,40.5122656 L54.8134082,41.0381055 C55.3119531,41.3377148 55.9501465,41.2605273 56.3623633,40.8503418 L58.3486719,38.8758398 C58.7631738,38.4640039 58.8429004,37.8222559 58.5417676,37.3215527 L58.0114844,36.4393555 L58.4418555,35.4010059 L59.4574805,35.1479883 C60.0214062,35.0075781 60.4180078,34.5019238 60.420166,33.9207324 L60.4301953,31.1330957 C60.4320996,30.5484766 60.0346094,30.038125 59.4672559,29.8966992 Z M57.8846582,32.9231348 L57.2071094,33.0919824 C56.8166016,33.1892285 56.4952832,33.4658594 56.3411621,33.837832 L55.420752,36.058623 C55.2666309,36.4305957 55.2979883,36.8536035 55.5055566,37.1986621 L55.8529004,37.7766797 L55.2736133,38.3525391 L54.6977539,38.0063379 C54.3528223,37.7988965 53.9296875,37.7672852 53.5577148,37.9215332 L51.3369238,38.8419434 C50.9649512,38.9960645 50.6883203,39.3173828 50.5910742,39.7078906 L50.4304785,40.3523047 L49.6097266,40.3523047 L49.4490039,39.7077637 C49.3516309,39.3172559 49.075,38.9960645 48.7031543,38.8419434 L46.4823633,37.9215332 C46.1103906,37.7671582 45.6871289,37.7987695 45.3423242,38.0063379 L44.7664648,38.3525391 L44.1871777,37.7768066 L44.5346484,37.1986621 C44.7422168,36.8536035 44.7735742,36.4304688 44.6194531,36.058623 L43.699043,33.837832 C43.5449219,33.4658594 43.2236035,33.1892285 42.8330957,33.0919824 L42.1555469,32.9231348 L42.1527539,32.1196484 L42.8330957,31.9500391 C43.2237305,31.852793 43.5449219,31.5760352 43.699043,31.2041895 L44.6194531,28.9833984 C44.7735742,28.6114258 44.7422168,28.188418 44.5346484,27.8433594 L44.1617871,27.2231934 L44.719873,26.6616797 L45.3420703,27.0356836 C45.687002,27.243125 46.1101367,27.2748633 46.4821094,27.1204883 L48.7029004,26.2000781 C49.074873,26.045957 49.3515039,25.7246387 49.44875,25.3341309 L49.6267383,24.6195117 L50.4125781,24.6195117 L50.5905664,25.3341309 C50.6878125,25.7246387 50.9644434,26.045957 51.336416,26.2000781 L53.557207,27.1204883 C53.9290527,27.2746094 54.3523145,27.243125 54.6972461,27.0356836 L55.3194434,26.6616797 L55.8775293,27.2231934 L55.504668,27.8434863 C55.2972266,28.1885449 55.2658691,28.6115527 55.4199902,28.9833984 L56.3404004,31.2041895 C56.4945215,31.5760352 56.8157129,31.852793 57.2063477,31.9500391 L57.8866895,32.1196484 L57.8846582,32.9231348 Z" id="Shape" fill="#000000"></path>
                            <path d="M65,32.4861621 C65,24.2263379 58.2801172,17.5064551 50.020293,17.5064551 C46.9864941,17.5064551 44.1611523,18.413916 41.7994434,19.9702344 C41.7721484,19.9849609 41.7448535,19.9995605 41.7183203,20.0165723 L22.8341699,32.1228223 C22.6396777,29.64 20.5585352,27.6788281 18.026582,27.6788281 C17.8201562,27.6788281 17.6171582,27.6933008 17.4174609,27.7185645 L22.0391895,15.665 C22.0437598,15.6530664 22.0468066,15.6410059 22.0508691,15.6290723 C22.5666797,14.3284375 22.8505469,12.9115137 22.8505469,11.4295898 C22.8505469,5.12966797 17.7251953,0.00431640649 11.4252734,0.00431640649 C5.12535156,0.00431640649 0,5.12954102 0,11.4293359 L0,54.2105078 C0,54.332002 0.0181542969,54.4490527 0.0500195312,54.5603906 C0.272060547,57.1498535 1.36969727,59.6776172 3.34686523,61.6549121 C5.57425781,63.8823047 8.50001953,64.9958105 11.4257812,64.9958105 C13.6957031,64.9958105 15.9642285,64.3221973 17.9081348,62.9815723 L32.6096875,56.5134375 C33.2514355,56.2309668 33.542793,55.4819434 33.2604492,54.8401953 C32.9781055,54.1984473 32.2288281,53.9072168 31.587207,54.1894336 L21.7229492,58.5293262 C22.9377637,56.0053711 23.2016992,53.0787207 22.3744727,50.3033984 C22.1742676,49.6315625 21.4668848,49.2486719 20.7954297,49.4493848 C20.1234668,49.6495898 19.741084,50.3565918 19.941416,51.0284277 C20.8760449,54.1641699 20.0207617,57.5479785 17.7094531,59.8592871 C14.2447754,63.3239648 8.60729492,63.3242188 5.14249023,59.8592871 C1.67768555,56.3944824 1.67768555,50.756875 5.14249023,47.2921973 C7.30691406,45.1276465 10.3848926,44.2349121 13.3769238,44.9049707 C14.0606934,45.0575684 14.7397656,44.6275781 14.892998,43.9434277 C15.0461035,43.2591504 14.6156055,42.580459 13.9314551,42.4273535 C10.0868066,41.5669922 6.12980469,42.7142676 3.34699219,45.4969531 C3.05880859,45.7851367 2.79004883,46.0855078 2.53918945,46.3956543 L2.53918945,18.6016797 C4.63543945,21.1938086 7.83986328,22.8544824 11.4255273,22.8544824 C13.5122559,22.8544824 15.470127,22.2915723 17.1555566,21.3104785 L13.5886816,30.6129688 C13.3404883,31.1936523 13.2027441,31.8322266 13.2027441,32.5025391 C13.2027441,35.1624609 15.3667871,37.3265039 18.026709,37.3265039 C19.0794043,37.3265039 20.0536426,36.9865234 20.8477344,36.4120605 C20.8483691,36.4116797 20.8491309,36.4114258 20.8497656,36.410918 L36.2828223,26.5170801 C35.484668,28.3469824 35.0407129,30.3655371 35.0407129,32.4860352 C35.0407129,39.8500781 40.3822656,45.9899121 47.3941406,47.2350684 L40.8530078,50.1128418 C40.2112598,50.3951855 39.9199023,51.1443359 40.2022461,51.786084 C40.4113379,52.2615234 40.876748,52.5447559 41.3648828,52.5447559 C41.5356348,52.5447559 41.7093066,52.5100977 41.8754883,52.4368457 C41.8754883,52.4368457 56.3018066,46.0871582 56.3400195,46.0653223 C61.4502637,43.6775879 65,38.4890137 65,32.4861621 Z M2.53893555,11.4293359 C2.53893555,6.52945313 6.52539062,2.54299805 11.4252734,2.54299805 C16.3251562,2.54299805 20.3116113,6.52945313 20.3116113,11.4293359 C20.3116113,16.3292188 16.3251562,20.3156738 11.4252734,20.3156738 C6.52539062,20.3156738 2.53893555,16.3290918 2.53893555,11.4293359 Z M15.7414258,32.502666 C15.7414258,31.2426563 16.7665723,30.2176367 18.0264551,30.2176367 C19.2863379,30.2176367 20.3114844,31.2427832 20.3114844,32.502666 C20.3114844,33.7626758 19.2863379,34.7876953 18.0264551,34.7876953 C16.7665723,34.7876953 15.7414258,33.7625488 15.7414258,32.502666 Z M50.020293,44.9269336 C43.1605078,44.9269336 37.5795215,39.3459473 37.5795215,32.4861621 C37.5795215,25.626377 43.1605078,20.0453906 50.020293,20.0453906 C56.8800781,20.0453906 62.4610645,25.626377 62.4610645,32.4861621 C62.4610645,39.3459473 56.8802051,44.9269336 50.020293,44.9269336 Z" id="Shape" fill="#000000"></path>
                            <path d="M50.020293,28.6776953 C47.9203613,28.6776953 46.2118262,30.3861035 46.2118262,32.4861621 C46.2118262,34.5862207 47.9202344,36.2946289 50.020293,36.2946289 C52.1202246,36.2946289 53.8287598,34.5862207 53.8287598,32.4861621 C53.8287598,30.3861035 52.1202246,28.6776953 50.020293,28.6776953 Z M50.020293,33.7555664 C49.3202734,33.7555664 48.7507617,33.1860547 48.7507617,32.4860352 C48.7507617,31.7860156 49.3202734,31.2165039 50.020293,31.2165039 C50.7203125,31.2165039 51.2898242,31.7860156 51.2898242,32.4860352 C51.2896973,33.1860547 50.7201855,33.7555664 50.020293,33.7555664 Z" id="Shape" fill="#000000"></path>
                            <path d="M36.4426562,52.1703711 C36.1087695,52.1703711 35.7812305,52.3062109 35.5452246,52.5423438 C35.3090918,52.7784766 35.173125,53.1060156 35.173125,53.4399023 C35.173125,53.7750586 35.3089648,54.1013281 35.5452246,54.3374609 C35.7812305,54.5734668 36.1087695,54.7094336 36.4426562,54.7094336 C36.7766699,54.7094336 37.104082,54.5735938 37.3402148,54.3374609 C37.5763477,54.1013281 37.7121875,53.7737891 37.7121875,53.4399023 C37.7121875,53.1060156 37.5764746,52.7784766 37.3402148,52.5423438 C37.1039551,52.3063379 36.776543,52.1703711 36.4426562,52.1703711 Z" id="Shape" fill="#000000"></path>
                            <path d="M17.6454687,47.2301172 C17.89125,47.4673926 18.2090137,47.5860937 18.5270313,47.5860937 C18.8515234,47.5860937 19.1758887,47.4624414 19.4237012,47.2152637 C19.9200879,46.7201465 19.9211035,45.9162793 19.4258594,45.4200195 L19.4165918,45.410625 C19.4101172,45.4040234 19.4035156,45.3974219 19.3969141,45.3909473 C19.3613672,45.3560352 19.3241699,45.3236621 19.2855762,45.2937012 C18.7786523,44.893291 18.040166,44.936582 17.5837695,45.4127832 C17.0986816,45.9189453 17.1156934,46.7224316 17.6219824,47.2076465 C17.6295996,47.2152637 17.6375977,47.2228809 17.6454687,47.2301172 Z" id="Shape" fill="#000000"></path>
                            <path d="M11.4252734,47.482373 C8.06520508,47.482373 5.33177734,50.2158008 5.33177734,53.5758691 C5.33177734,56.9359375 8.06520508,59.6693652 11.4252734,59.6693652 C14.7853418,59.6693652 17.5187695,56.9359375 17.5187695,53.5758691 C17.5187695,50.2158008 14.7853418,47.482373 11.4252734,47.482373 Z M11.4252734,57.1303027 C9.46537109,57.1303027 7.87071289,55.5357715 7.87071289,53.5757422 C7.87071289,51.6158398 9.46524414,50.0211816 11.4252734,50.0211816 C13.3853027,50.0211816 14.979834,51.6157129 14.979834,53.5757422 C14.979707,55.5357715 13.3851758,57.1303027 11.4252734,57.1303027 Z" id="Shape" fill="#000000"></path>
                            <path d="M11.4252734,52.3063379 L11.4025488,52.3063379 C10.7015137,52.3063379 10.1330176,52.874834 10.1330176,53.5758691 C10.1330176,54.2769043 10.7015137,54.8454004 11.4025488,54.8454004 L11.4252734,54.8454004 C12.1263086,54.8454004 12.6948047,54.2769043 12.6948047,53.5758691 C12.6946777,52.874834 12.1263086,52.3063379 11.4252734,52.3063379 Z" id="Shape" fill="#000000"></path>
                            <path d="M11.4252734,5.3359668 C8.06520508,5.3359668 5.33177734,8.06939453 5.33177734,11.4294629 C5.33177734,14.7895313 8.06520508,17.522959 11.4252734,17.522959 C14.7853418,17.522959 17.5187695,14.7895312 17.5187695,11.4294629 C17.5187695,8.06939453 14.7853418,5.3359668 11.4252734,5.3359668 Z M11.4252734,14.9838965 C9.46537109,14.9838965 7.87071289,13.3893652 7.87071289,11.4293359 C7.87071289,9.46930664 9.46537109,7.87490234 11.4252734,7.87490234 C13.3851758,7.87490234 14.979834,9.46943359 14.979834,11.4294629 C14.979834,13.3894922 13.3851758,14.9838965 11.4252734,14.9838965 Z" id="Shape" fill="#000000"></path>
                            <path d="M11.4252734,10.1599316 L11.4025488,10.1599316 C10.7015137,10.1599316 10.1330176,10.7284277 10.1330176,11.4294629 C10.1330176,12.130498 10.7015137,12.6989941 11.4025488,12.6989941 L11.4252734,12.6989941 C12.1263086,12.6989941 12.6948047,12.130498 12.6948047,11.4294629 C12.6948047,10.7284277 12.1263086,10.1599316 11.4252734,10.1599316 Z" id="Shape" fill="#000000"></path>
                        </g>
                    </g>
                </g>
            </g>
        </g>
    </g>
</svg>