<?xml version="1.0" encoding="UTF-8"?>
<svg width="50px" height="67px" viewBox="0 0 50 67" version="1.1" xmlns="http://www.w3.org/2000/svg" xmlns:xlink="http://www.w3.org/1999/xlink">
    <!-- Generator: Sketch 49.3 (51167) - http://www.bohemiancoding.com/sketch -->
    <title>human</title>
    <desc>Created with Sketch.</desc>
    <defs></defs>
    <g id="Page-1" stroke="none" stroke-width="1" fill="none" fill-rule="evenodd">
        <g id="Artboard" transform="translate(-912.000000, -526.000000)" fill="#D33E43" fill-rule="nonzero" stroke="#000000" stroke-width="0.5">
            <path d="M935.46187,582.605469 C936.166742,582.605469 936.738118,583.173965 936.738246,583.875 L936.738246,590.730469 C936.738246,591.431504 936.166869,592 935.461997,592 C934.757125,592 934.185749,591.431504 934.185749,590.730469 L934.185749,585.13793 C930.44749,585.027988 926.941125,583.536924 924.269938,580.911152 L924.206253,580.848057 C923.81036,580.454248 923.431698,580.032002 923.082261,579.594521 C922.92005,579.391396 922.760646,579.180527 922.608517,578.967627 C920.830065,576.478457 919.889981,573.543809 919.889981,570.480557 L919.889981,569.910156 L914.276275,569.910156 C913.893145,569.910156 913.53018,569.738896 913.287821,569.44373 C913.045461,569.148564 912.949232,568.760596 913.025679,568.387227 L915.807645,554.801592 L915.807645,549.597656 C915.807645,544.837168 917.278521,540.28374 920.061253,536.429316 C920.472461,535.859678 921.269861,535.729678 921.842386,536.138721 C922.414911,536.547764 922.545726,537.340967 922.134519,537.910352 C919.665361,541.330469 918.360142,545.371895 918.360142,549.597656 L918.360142,554.929688 C918.360142,555.014746 918.351463,555.099678 918.334489,555.183086 L915.838658,567.371094 L921.166102,567.371094 C921.870974,567.371094 922.44235,567.93959 922.44235,568.640625 L922.44235,570.480557 C922.44235,573.013525 923.219202,575.439727 924.68893,577.496621 C924.814768,577.672705 924.946604,577.847266 925.080866,578.015225 C925.370064,578.377549 925.68351,578.727051 926.012399,579.054209 L926.064853,579.106133 C928.360186,581.362344 931.40289,582.605469 934.631415,582.605469 L935.46187,582.605469 Z M925.57822,532.547979 C926.03601,533.081182 925.972708,533.88251 925.436684,534.337891 L925.386144,534.380801 C925.145572,534.585957 924.85012,534.686377 924.5562,534.686377 C924.196553,534.686377 923.839076,534.535938 923.586507,534.243057 C923.127823,533.710615 923.189849,532.909287 923.724979,532.452891 L923.778837,532.407061 C924.314989,531.951934 925.120557,532.014775 925.57822,532.547979 Z M938.524738,527 C951.051116,527 961.242086,537.137334 961.242086,549.597656 L961.242086,576.259082 C961.242086,578.359141 959.524511,580.067676 957.413341,580.067676 L944.132446,580.067676 C942.021276,580.067676 940.303701,578.359141 940.303701,576.259082 L940.303701,565.909863 L929.561774,557.536543 C929.253049,557.295967 929.072715,556.927422 929.072715,556.537295 L929.072715,550.455479 C928.442887,550.257178 927.850325,549.91123 927.351822,549.415352 C925.690147,547.762295 925.690147,545.072793 927.351822,543.419736 C929.013497,541.766934 931.71723,541.766807 933.379032,543.419736 C935.040708,545.072793 935.040708,547.762295 933.379032,549.415352 C932.871979,549.919863 932.267293,550.269492 931.625212,550.466016 L931.625212,555.919414 L940.303701,562.684238 L940.303701,552.410303 C940.303701,551.709268 940.875077,551.140771 941.579949,551.140771 C942.284821,551.140771 942.856197,551.709268 942.856197,552.410303 L942.856197,558.046514 L949.119386,554.332119 L949.119386,550.996426 C948.464288,550.795713 947.864068,550.438213 947.365566,549.942461 C946.560636,549.141768 946.117267,548.077139 946.117267,546.944717 C946.117267,545.812422 946.560508,544.74792 947.365566,543.9471 C949.027241,542.294297 951.730973,542.294297 953.392776,543.9471 C955.054452,545.600156 955.054452,548.289531 953.392776,549.942588 C952.902697,550.429961 952.314091,550.783145 951.671883,550.985635 L951.671883,555.05334 C951.671883,555.500596 951.435266,555.914717 951.049201,556.14374 L942.856197,561.002617 L942.856197,563.835703 L947.489234,563.835703 C947.687691,563.203096 948.037383,562.607686 948.540225,562.10749 C950.202028,560.454688 952.90576,560.454561 954.567435,562.10749 C956.22911,563.760547 956.22911,566.449922 954.567435,568.102979 C953.762505,568.903672 952.692243,569.344707 951.55383,569.344707 C950.415416,569.344707 949.345155,568.903799 948.540225,568.102852 C948.037383,567.602783 947.687818,567.007373 947.489234,566.374893 L942.856197,566.374893 L942.856197,576.259336 C942.856197,576.959355 943.428722,577.528867 944.132446,577.528867 L957.413341,577.528867 C958.117065,577.528867 958.68959,576.959355 958.68959,576.259336 L958.68959,549.597656 C958.68959,538.537373 949.643797,529.539062 938.524866,529.539062 C935.353261,529.539062 932.318598,530.250127 929.504981,531.652451 C928.874769,531.96666 928.107872,531.712881 927.792255,531.086113 C927.476511,530.459219 927.731378,529.696484 928.36159,529.382402 C931.533322,527.801455 934.952774,527 938.524738,527 Z M950.345095,563.902988 C949.678638,564.565811 949.678638,565.644531 950.345095,566.30748 C950.667986,566.628672 951.097188,566.805645 951.55383,566.805645 C952.010344,566.805645 952.439674,566.628672 952.762565,566.30748 C953.429022,565.644658 953.429022,564.565938 952.762565,563.902988 C952.429336,563.571514 951.991583,563.405713 951.55383,563.405713 C951.116077,563.405713 950.678324,563.571514 950.345095,563.902988 Z M948.669764,546.944844 C948.669764,547.399082 948.847545,547.826152 949.170436,548.147217 C949.836893,548.810293 950.921321,548.810293 951.587778,548.147217 C952.254235,547.484395 952.254235,546.405674 951.587778,545.742725 C951.25455,545.41125 950.816924,545.245449 950.379171,545.245449 C949.941418,545.245449 949.503665,545.41125 949.170436,545.742725 C948.847545,546.063789 948.669764,546.490732 948.669764,546.944844 Z M929.15682,547.61998 C929.823149,548.283057 930.907705,548.283057 931.57429,547.61998 C932.240874,546.957158 932.240874,545.878311 931.57429,545.215361 C931.241061,544.883887 930.803308,544.718086 930.365555,544.718086 C929.927802,544.718086 929.490049,544.883887 929.15682,545.215361 C928.490236,545.878311 928.490236,546.957158 929.15682,547.61998 Z M941.579949,535.273281 C944.254072,535.273281 946.429693,537.437451 946.429693,540.0975 C946.429693,542.757549 944.254072,544.921719 941.579949,544.921719 C938.905826,544.921719 936.730205,542.757549 936.730205,540.0975 C936.730205,537.437451 938.905826,535.273281 941.579949,535.273281 Z M941.579949,542.382656 C942.846626,542.382656 943.877196,541.35751 943.877196,540.0975 C943.877196,538.83749 942.846626,537.812344 941.579949,537.812344 C940.313273,537.812344 939.282702,538.83749 939.282702,540.0975 C939.282702,541.35751 940.313273,542.382656 941.579949,542.382656 Z M942.482512,547.243945 C942.719894,547.479951 942.856453,547.80749 942.856453,548.141504 C942.856453,548.475391 942.719894,548.80293 942.482512,549.038936 C942.24513,549.275195 941.915858,549.411035 941.580204,549.411035 C941.244551,549.411035 940.915279,549.275068 940.677897,549.038936 C940.440515,548.80293 940.303956,548.475391 940.303956,548.141504 C940.303956,547.80749 940.440515,547.479951 940.677897,547.243945 C940.915279,547.007812 941.244551,546.871973 941.580204,546.871973 C941.915858,546.871973 942.24513,547.007812 942.482512,547.243945 Z" id="human"></path>
        </g>
    </g>
</svg>