<?xml version="1.0" encoding="UTF-8"?>
<svg width="67px" height="67px" viewBox="0 0 67 67" version="1.1" xmlns="http://www.w3.org/2000/svg" xmlns:xlink="http://www.w3.org/1999/xlink">
    <!-- Generator: Sketch 49.3 (51167) - http://www.bohemiancoding.com/sketch -->
    <title>analysis</title>
    <desc>Created with Sketch.</desc>
    <defs></defs>
    <g id="Page-1" stroke="none" stroke-width="1" fill="none" fill-rule="evenodd">
        <g id="Artboard" transform="translate(-1020.000000, -526.000000)" fill="#D33E43" fill-rule="nonzero" stroke="#000000" stroke-width="0.5">
            <path d="M1085.11421,557.82281 C1084.7459,557.331988 1084.12253,556.530496 1083.24537,555.500733 C1081.79728,553.800755 1079.43686,551.22603 1076.41601,548.614106 C1071.61036,544.459124 1064.36063,539.581112 1056.10145,538.701795 L1062.21706,532.586188 L1069.31634,532.586188 C1070.01753,532.586188 1070.58593,532.017794 1070.58593,531.3166 C1070.58593,530.615407 1070.01753,530.047012 1069.31634,530.047012 L1061.69119,530.047012 C1061.3545,530.047012 1061.03152,530.180826 1060.79347,530.418874 L1052.63408,538.577883 C1043.64844,538.899978 1035.7224,544.144647 1030.59187,548.566369 C1027.55031,551.187815 1025.19764,553.7567 1023.7597,555.450077 C1022.86617,556.502312 1022.24801,557.305961 1021.88655,557.794879 C1021.14372,558.800013 1021.0033,559.070816 1021.0033,559.500063 C1021.0033,559.950513 1021.16022,560.202273 1021.89201,561.177317 C1022.26045,561.668393 1022.88382,562.470011 1023.76097,563.499647 C1025.20907,565.199753 1027.56948,567.774478 1030.59034,570.386275 C1035.39535,574.540749 1042.64381,579.418126 1050.90172,580.298205 L1044.78612,586.413939 L1029.442,586.413939 C1028.89849,584.651496 1027.25475,583.367054 1025.31647,583.367054 C1022.93625,583.367308 1021,585.303557 1021,587.683654 C1021,590.063751 1022.93625,592 1025.31635,592 C1027.25475,592 1028.89862,590.715558 1029.44187,588.953115 L1045.31185,588.953115 C1045.64855,588.953115 1045.97153,588.8193 1046.20958,588.581253 L1054.36833,580.422497 C1063.35562,580.101673 1071.28306,574.856369 1076.41423,570.434012 C1079.45591,567.812566 1081.80845,565.243554 1083.24639,563.550304 C1084.13993,562.498069 1084.75822,561.69442 1085.11954,561.205374 C1085.86263,560.200368 1086.00292,559.929438 1086.00292,559.500063 C1086.00292,559.049614 1085.846,558.797854 1085.11421,557.82281 Z M1025.31635,589.461204 C1024.33622,589.461204 1023.53905,588.663903 1023.53905,587.683908 C1023.53905,586.703786 1024.33635,585.906611 1025.31635,585.906611 C1026.29647,585.906611 1027.09364,586.703912 1027.09364,587.683908 C1027.09377,588.663903 1026.29647,589.461204 1025.31635,589.461204 Z M1074.26786,568.927518 C1069.40762,573.02029 1061.85979,577.899318 1053.50311,577.899318 C1045.14414,577.899318 1037.57625,572.97814 1032.69964,568.849946 C1028.1196,564.972497 1024.90373,560.986497 1023.79551,559.485844 C1024.86793,558.009694 1028.06386,554.009856 1032.73849,550.07337 C1037.59885,545.980472 1045.14668,541.101444 1053.50324,541.101444 C1061.86221,541.101444 1069.4301,546.022495 1074.30671,550.150942 C1078.88688,554.028265 1082.10287,558.014264 1083.21097,559.515045 C1082.13842,560.990941 1078.94274,564.990779 1074.26786,568.927518 Z M1065.49399,547.509437 C1058.88464,540.900341 1048.13072,540.900341 1041.52137,547.509564 C1038.89104,550.139897 1037.23042,553.47282 1036.71903,557.147643 C1036.22439,560.701729 1036.88483,564.389883 1038.57834,567.532876 C1038.91084,568.150022 1039.68085,568.38096 1040.29812,568.048455 C1040.9154,567.715823 1041.14621,566.945691 1040.81358,566.328671 C1037.81989,560.772699 1038.8494,553.772443 1043.31682,549.305016 C1048.93602,543.685691 1058.07921,543.685691 1063.69854,549.304889 C1069.31786,554.924213 1069.31786,564.067407 1063.69854,569.686732 C1059.23086,574.154286 1052.23022,575.183795 1046.67463,572.189725 C1046.05761,571.857474 1045.28748,572.087904 1044.95485,572.705178 C1044.62221,573.322452 1044.85302,574.092457 1045.4703,574.425089 C1047.93266,575.751809 1050.72969,576.444497 1053.53472,576.444497 C1054.31006,576.444497 1055.08616,576.391555 1055.85578,576.284528 C1059.53086,575.773138 1062.86366,574.112517 1065.49399,571.482184 C1072.10321,564.872707 1072.10321,554.11866 1065.49399,547.509437 Z M1043.31733,569.685209 C1042.82168,569.189561 1042.01778,569.189561 1041.52201,569.685209 L1041.51185,569.695365 C1041.01607,570.191139 1041.01607,570.995043 1041.51185,571.490817 C1041.7598,571.738641 1042.08469,571.862679 1042.40958,571.862679 C1042.73446,571.862679 1043.05948,571.738641 1043.3073,571.490817 L1043.31746,571.48066 C1043.8131,570.985013 1043.8131,570.18111 1043.31733,569.685209 Z M1060.61242,558.230729 C1059.91123,558.230729 1059.34284,558.799124 1059.34284,559.500317 C1059.34284,562.720374 1056.72304,565.34017 1053.50298,565.34017 C1050.28293,565.34017 1047.66313,562.720374 1047.66313,559.500317 C1047.66313,556.280261 1050.28293,553.660465 1053.50298,553.660465 C1054.20418,553.660465 1054.77257,553.092071 1054.77257,552.390877 C1054.77257,551.689683 1054.20418,551.121289 1053.50298,551.121289 C1048.88282,551.121289 1045.12408,554.880032 1045.12408,559.50019 C1045.12408,564.120349 1048.88282,567.879092 1053.50298,567.879092 C1058.12314,567.879092 1061.88189,564.120349 1061.88189,559.50019 C1061.88189,558.799124 1061.31349,558.230729 1060.61242,558.230729 Z M1074.83994,530.419255 C1075.07608,530.655399 1075.21193,530.982952 1075.21193,531.316854 C1075.21193,531.650756 1075.07608,531.97831 1074.83994,532.214453 C1074.60379,532.450596 1074.27624,532.586442 1073.94234,532.586442 C1073.60844,532.586442 1073.28088,532.450596 1073.04474,532.214453 C1072.8086,531.97831 1072.67275,531.650756 1072.67275,531.316854 C1072.67275,530.982952 1072.8086,530.655399 1073.04474,530.419255 C1073.28088,530.181842 1073.60844,530.047266 1073.94234,530.047266 C1074.27624,530.047266 1074.60379,530.181842 1074.83994,530.419255 Z M1081.68657,527 C1084.06667,527 1086.00292,528.936376 1086.00292,531.316473 C1086.00292,533.69657 1084.06667,535.632819 1081.68657,535.632692 C1079.3066,535.632692 1077.37023,533.696443 1077.37023,531.316346 C1077.37023,528.936249 1079.30648,527 1081.68657,527 Z M1081.68657,533.09377 C1082.66657,533.09377 1083.46387,532.296468 1083.46387,531.316473 C1083.46387,530.336478 1082.6667,529.539177 1081.68657,529.539177 C1080.70671,529.539177 1079.90928,530.336478 1079.90928,531.316473 C1079.90928,532.296468 1080.70645,533.09377 1081.68657,533.09377 Z M1031.54025,536.330712 C1032.24144,536.330712 1032.80971,536.899107 1032.80984,537.6003 C1032.80984,538.301494 1032.24144,538.869889 1031.54025,538.869889 L1022.27276,538.869889 C1021.57157,538.869889 1021.00317,538.301494 1021.00317,537.6003 C1021.00317,536.899107 1021.57157,536.330712 1022.27276,536.330712 L1031.54025,536.330712 Z M1031.54025,530.236942 C1032.24144,530.236942 1032.80971,530.805337 1032.80984,531.506531 C1032.80984,532.207724 1032.24144,532.776119 1031.54025,532.776119 L1022.27276,532.776119 C1021.57157,532.776119 1021.00317,532.207724 1021.00317,531.506531 C1021.00317,530.805337 1021.57157,530.236942 1022.27276,530.236942 L1031.54025,530.236942 Z M1044.28704,530.236942 C1044.98824,530.236942 1045.55663,530.805337 1045.55663,531.506531 C1045.55663,532.207724 1044.98824,532.776119 1044.28704,532.776119 L1036.74531,532.776119 C1036.04411,532.776119 1035.47572,532.207724 1035.47572,531.506531 C1035.47572,530.805337 1036.04411,530.236942 1036.74531,530.236942 L1044.28704,530.236942 Z M1084.73333,580.130873 C1085.43453,580.130873 1086.00292,580.699395 1086.00292,581.400461 C1086.00292,582.101528 1085.43453,582.67005 1084.73333,582.67005 L1075.63508,582.67005 C1074.93389,582.67005 1074.36549,582.101528 1074.36549,581.400461 C1074.36549,580.699395 1074.93389,580.130873 1075.63508,580.130873 L1084.73333,580.130873 Z M1058.70804,586.224643 C1059.40924,586.224643 1059.97776,586.793165 1059.97776,587.494231 C1059.97776,588.195298 1059.40936,588.763819 1058.70817,588.763819 L1055.03639,588.763819 C1054.3352,588.763819 1053.7668,588.195298 1053.7668,587.494231 C1053.7668,586.793165 1054.3352,586.224643 1055.03639,586.224643 L1058.70804,586.224643 Z M1070.38775,586.224643 C1071.08894,586.224643 1071.65733,586.793165 1071.65733,587.494231 C1071.65733,588.195298 1071.08894,588.763819 1070.38775,588.763819 L1064.04006,588.763819 C1063.33886,588.763819 1062.77047,588.195298 1062.77047,587.494231 C1062.77047,586.793165 1063.33886,586.224643 1064.04006,586.224643 L1070.38775,586.224643 Z M1084.73333,586.224643 C1085.43453,586.224643 1086.00292,586.793165 1086.00292,587.494231 C1086.00292,588.195298 1085.43453,588.763819 1084.73333,588.763819 L1075.63508,588.763819 C1074.93389,588.763819 1074.36549,588.195298 1074.36549,587.494231 C1074.36549,586.793165 1074.93389,586.224643 1075.63508,586.224643 L1084.73333,586.224643 Z M1035.60966,578.035037 C1036.31085,578.035037 1036.87938,578.603558 1036.87938,579.304625 C1036.87938,580.005692 1036.31098,580.574213 1035.60979,580.574213 L1022.26959,580.574213 C1021.56839,580.574213 1021,580.005692 1021,579.304625 C1021,578.603558 1021.56839,578.035037 1022.26959,578.035037 L1035.60966,578.035037 Z M1029.12816,572.956938 C1029.82935,572.956938 1030.39775,573.525459 1030.39775,574.226526 C1030.39775,574.927592 1029.82935,575.496114 1029.12816,575.496114 L1022.26959,575.496114 C1021.56839,575.496114 1021,574.927592 1021,574.226526 C1021,573.525459 1021.56839,572.956938 1022.26959,572.956938 L1029.12816,572.956938 Z" id="analysis"></path>
        </g>
    </g>
</svg>