<?xml version="1.0" encoding="UTF-8"?>
<svg width="20px" height="20px" viewBox="0 0 20 20" version="1.1" xmlns="http://www.w3.org/2000/svg" xmlns:xlink="http://www.w3.org/1999/xlink">
    <!-- Generator: Sketch 49.3 (51167) - http://www.bohemiancoding.com/sketch -->
    <title>fax</title>
    <desc>Created with Sketch.</desc>
    <defs>
        <path d="M5,5.625 L5,18.125 C5,19.1605469 4.16054688,20 3.125,20 L1.875,20 C0.83945312,20 0,19.1605469 0,18.125 L0,5.625 C0,4.58945312 0.83945312,3.75 1.875,3.75 L3.125,3.75 C4.16054688,3.75 5,4.58945312 5,5.625 Z M20,8.125 L20,18.125 C20,19.1605469 19.1605469,20 18.125,20 L7.5,20 C6.46445313,20 5.625,19.1605469 5.625,18.125 L5.625,1.5625 C5.625,0.69957031 6.32457031,0 7.1875,0 L15.2903125,0 C15.7047145,-1.155e-05 16.1021447,0.16461482 16.3951562,0.45765625 L18.2923828,2.35488281 C18.5853894,2.64789847 18.7499987,3.04530717 18.75,3.4596875 L18.75,6.35710938 C19.4781641,6.61457031 20,7.30867187 20,8.125 Z M7.5,7.5 L16.875,7.5 L16.875,3.75 L15.9375,3.75 C15.4217578,3.75 15,3.32824219 15,2.8125 L15,1.875 L7.5,1.875 L7.5,7.5 Z M11.25,15.46875 C11.25,15.2098828 11.0401172,15 10.78125,15 L9.21875,15 C8.9598828,15 8.75,15.2098828 8.75,15.46875 L8.75,17.03125 C8.75,17.2901172 8.9598828,17.5 9.21875,17.5 L10.78125,17.5 C11.0401172,17.5 11.25,17.2901172 11.25,17.03125 L11.25,15.46875 Z M11.25,10.46875 C11.25,10.2098828 11.0401172,10 10.78125,10 L9.21875,10 C8.9598828,10 8.75,10.2098828 8.75,10.46875 L8.75,12.03125 C8.75,12.2901172 8.9598828,12.5 9.21875,12.5 L10.78125,12.5 C11.0401172,12.5 11.25,12.2901172 11.25,12.03125 L11.25,10.46875 Z M16.25,15.46875 C16.25,15.2098828 16.0401172,15 15.78125,15 L14.21875,15 C13.9598828,15 13.75,15.2098828 13.75,15.46875 L13.75,17.03125 C13.75,17.2901172 13.9598828,17.5 14.21875,17.5 L15.78125,17.5 C16.0401172,17.5 16.25,17.2901172 16.25,17.03125 L16.25,15.46875 Z M16.25,10.46875 C16.25,10.2098828 16.0401172,10 15.78125,10 L14.21875,10 C13.9598828,10 13.75,10.2098828 13.75,10.46875 L13.75,12.03125 C13.75,12.2901172 13.9598828,12.5 14.21875,12.5 L15.78125,12.5 C16.0401172,12.5 16.25,12.2901172 16.25,12.03125 L16.25,10.46875 Z" id="path-1"></path>
    </defs>
    <g id="Page-1" stroke="none" stroke-width="1" fill="none" fill-rule="evenodd" opacity="0.699999988">
        <g id="fax">
            <g id="Page-1">
                <g id="homepage">
                    <g id="footer">
                        <g id="Group">
                            <g id="contact-section-copy">
                                <g id="Icons/Solid/fax">
                                    <g id="fax" fill="#000000" fill-rule="nonzero">
                                        <path d="M5,5.625 L5,18.125 C5,19.1605469 4.16054688,20 3.125,20 L1.875,20 C0.83945312,20 0,19.1605469 0,18.125 L0,5.625 C0,4.58945312 0.83945312,3.75 1.875,3.75 L3.125,3.75 C4.16054688,3.75 5,4.58945312 5,5.625 Z M20,8.125 L20,18.125 C20,19.1605469 19.1605469,20 18.125,20 L7.5,20 C6.46445313,20 5.625,19.1605469 5.625,18.125 L5.625,1.5625 C5.625,0.69957031 6.32457031,0 7.1875,0 L15.2903125,0 C15.7047145,-1.155e-05 16.1021447,0.16461482 16.3951562,0.45765625 L18.2923828,2.35488281 C18.5853894,2.64789847 18.7499987,3.04530717 18.75,3.4596875 L18.75,6.35710938 C19.4781641,6.61457031 20,7.30867187 20,8.125 Z M7.5,7.5 L16.875,7.5 L16.875,3.75 L15.9375,3.75 C15.4217578,3.75 15,3.32824219 15,2.8125 L15,1.875 L7.5,1.875 L7.5,7.5 Z M11.25,15.46875 C11.25,15.2098828 11.0401172,15 10.78125,15 L9.21875,15 C8.9598828,15 8.75,15.2098828 8.75,15.46875 L8.75,17.03125 C8.75,17.2901172 8.9598828,17.5 9.21875,17.5 L10.78125,17.5 C11.0401172,17.5 11.25,17.2901172 11.25,17.03125 L11.25,15.46875 Z M11.25,10.46875 C11.25,10.2098828 11.0401172,10 10.78125,10 L9.21875,10 C8.9598828,10 8.75,10.2098828 8.75,10.46875 L8.75,12.03125 C8.75,12.2901172 8.9598828,12.5 9.21875,12.5 L10.78125,12.5 C11.0401172,12.5 11.25,12.2901172 11.25,12.03125 L11.25,10.46875 Z M16.25,15.46875 C16.25,15.2098828 16.0401172,15 15.78125,15 L14.21875,15 C13.9598828,15 13.75,15.2098828 13.75,15.46875 L13.75,17.03125 C13.75,17.2901172 13.9598828,17.5 14.21875,17.5 L15.78125,17.5 C16.0401172,17.5 16.25,17.2901172 16.25,17.03125 L16.25,15.46875 Z M16.25,10.46875 C16.25,10.2098828 16.0401172,10 15.78125,10 L14.21875,10 C13.9598828,10 13.75,10.2098828 13.75,10.46875 L13.75,12.03125 C13.75,12.2901172 13.9598828,12.5 14.21875,12.5 L15.78125,12.5 C16.0401172,12.5 16.25,12.2901172 16.25,12.03125 L16.25,10.46875 Z" id="path-1"></path>
                                    </g>
                                    <g id="Colors/5th-Clipped">
                                        <mask id="mask-2" fill="white">
                                            <use xlink:href="#path-1"></use>
                                        </mask>
                                        <g id="path-1"></g>
                                        <g id="Colors/5th" mask="url(#mask-2)" fill="#D33E43">
                                            <g transform="translate(-2.000000, -2.000000)" id="Rectangle">
                                                <rect x="0" y="0" width="24" height="24"></rect>
                                            </g>
                                        </g>
                                    </g>
                                </g>
                            </g>
                        </g>
                    </g>
                </g>
            </g>
        </g>
    </g>
</svg>