<?xml version="1.0" encoding="UTF-8"?>
<svg width="20px" height="20px" viewBox="0 0 20 20" version="1.1" xmlns="http://www.w3.org/2000/svg" xmlns:xlink="http://www.w3.org/1999/xlink">
    <!-- Generator: Sketch 49.3 (51167) - http://www.bohemiancoding.com/sketch -->
    <title>Icons/Solid/fax</title>
    <desc>Created with Sketch.</desc>
    <defs>
        <path d="M7,7.625 L7,20.125 C7,21.1605469 6.16054688,22 5.125,22 L3.875,22 C2.83945312,22 2,21.1605469 2,20.125 L2,7.625 C2,6.58945312 2.83945312,5.75 3.875,5.75 L5.125,5.75 C6.16054688,5.75 7,6.58945312 7,7.625 Z M22,10.125 L22,20.125 C22,21.1605469 21.1605469,22 20.125,22 L9.5,22 C8.46445313,22 7.625,21.1605469 7.625,20.125 L7.625,3.5625 C7.625,2.69957031 8.32457031,2 9.1875,2 L17.2903125,2 C17.7047145,1.99998845 18.1021447,2.16461482 18.3951562,2.45765625 L20.2923828,4.35488281 C20.5853894,4.64789847 20.7499987,5.04530717 20.75,5.4596875 L20.75,8.35710938 C21.4781641,8.61457031 22,9.30867187 22,10.125 Z M9.5,9.5 L18.875,9.5 L18.875,5.75 L17.9375,5.75 C17.4217578,5.75 17,5.32824219 17,4.8125 L17,3.875 L9.5,3.875 L9.5,9.5 Z M13.25,17.46875 C13.25,17.2098828 13.0401172,17 12.78125,17 L11.21875,17 C10.9598828,17 10.75,17.2098828 10.75,17.46875 L10.75,19.03125 C10.75,19.2901172 10.9598828,19.5 11.21875,19.5 L12.78125,19.5 C13.0401172,19.5 13.25,19.2901172 13.25,19.03125 L13.25,17.46875 Z M13.25,12.46875 C13.25,12.2098828 13.0401172,12 12.78125,12 L11.21875,12 C10.9598828,12 10.75,12.2098828 10.75,12.46875 L10.75,14.03125 C10.75,14.2901172 10.9598828,14.5 11.21875,14.5 L12.78125,14.5 C13.0401172,14.5 13.25,14.2901172 13.25,14.03125 L13.25,12.46875 Z M18.25,17.46875 C18.25,17.2098828 18.0401172,17 17.78125,17 L16.21875,17 C15.9598828,17 15.75,17.2098828 15.75,17.46875 L15.75,19.03125 C15.75,19.2901172 15.9598828,19.5 16.21875,19.5 L17.78125,19.5 C18.0401172,19.5 18.25,19.2901172 18.25,19.03125 L18.25,17.46875 Z M18.25,12.46875 C18.25,12.2098828 18.0401172,12 17.78125,12 L16.21875,12 C15.9598828,12 15.75,12.2098828 15.75,12.46875 L15.75,14.03125 C15.75,14.2901172 15.9598828,14.5 16.21875,14.5 L17.78125,14.5 C18.0401172,14.5 18.25,14.2901172 18.25,14.03125 L18.25,12.46875 Z" id="path-1"></path>
    </defs>
    <g id="Page-1" stroke="none" stroke-width="1" fill="none" fill-rule="evenodd" opacity="0.699999988">
        <g id="homepage" transform="translate(-934.000000, -5165.000000)">
            <g id="footer" transform="translate(0.000000, 4827.000000)">
                <g id="Group" transform="translate(132.000000, 50.000000)">
                    <g id="contact-section-copy" transform="translate(800.000000, 53.000000)">
                        <g id="Icons/Solid/fax" transform="translate(0.000000, 233.000000)">
                            <mask id="mask-2" fill="white">
                                <use xlink:href="#path-1"></use>
                            </mask>
                            <use id="fax" fill="#000000" fill-rule="nonzero" xlink:href="#path-1"></use>
                            <g id="Colors/5th" mask="url(#mask-2)" fill="#FFFFFF" fill-rule="evenodd">
                                <rect id="Rectangle" x="0" y="0" width="24" height="24"></rect>
                            </g>
                        </g>
                    </g>
                </g>
            </g>
        </g>
    </g>
</svg>