<?xml version="1.0" encoding="UTF-8" standalone="no"?>
<svg width="64px" height="64px" viewBox="0 0 64 64" version="1.1" xmlns="http://www.w3.org/2000/svg" xmlns:xlink="http://www.w3.org/1999/xlink">
    <!-- Generator: Sketch 46.2 (44496) - http://www.bohemiancoding.com/sketch -->
    <title>if_money_1055022</title>
    <desc>Created with Sketch.</desc>
    <defs></defs>
    <g id="Page-1" stroke="none" stroke-width="1" fill="none" fill-rule="evenodd">
        <g id="Desktop-HD" transform="translate(-928.000000, -3714.000000)" fill-rule="nonzero">
            <g id="Body" transform="translate(-18.000000, 1304.000000)">
                <g id="Info" transform="translate(268.000000, 2410.000000)">
                    <g id="investment" transform="translate(560.000000, 0.000000)">
                        <g id="if_money_1055022" transform="translate(118.000000, 0.000000)">
                            <circle id="Oval" fill="#46B1C9" cx="32" cy="32" r="32"></circle>
                            <g id="Group" transform="translate(13.000000, 23.000000)">
                                <g opacity="0.2" transform="translate(0.000000, 2.000000)" fill="#231F20">
                                    <g transform="translate(4.000000, 3.000000)" id="Shape">
                                        <path d="M32.969,5.062 C30.743,5.062 28.938,3.257 28.938,1.031 C28.938,0.672 29,0.331 29.088,0 L4.881,0 C4.969,0.331 5.031,0.672 5.031,1.031 C5.031,3.257 3.226,5.062 1,5.062 C0.653,5.062 0.322,5.004 0,4.922 L0,13.109 C0.322,13.026 0.653,12.969 1,12.969 C3.226,12.969 5.031,14.774 5.031,17 C5.031,17.347 4.973,17.678 4.891,18 L29.078,18 C28.995,17.678 28.938,17.347 28.938,17 C28.938,14.774 30.743,12.969 32.969,12.969 C33.328,12.969 33.669,13.031 34,13.119 L34,4.913 C33.669,5.001 33.328,5.062 32.969,5.062 Z M17,15 C13.686,15 11,12.314 11,9 C11,5.686 13.686,3 17,3 C20.314,3 23,5.686 23,9 C23,12.314 20.314,15 17,15 Z"></path>
                                    </g>
                                    <g id="Shape">
                                        <path d="M37,0 L5,0 C4.724,0 4.454,0.028 4.194,0.081 C2.354,0.455 0.969,2.081 0.969,4.031 C0.969,4.137 0.992,4.237 1,4.341 L1,19.69 C0.992,19.794 0.969,19.894 0.969,20 C0.969,22.226 2.774,24.031 5,24.031 C5.106,24.031 5.206,24.008 5.31,24 L36.659,24 C36.763,24.008 36.863,24.031 36.969,24.031 C38.919,24.031 40.545,22.646 40.919,20.806 C40.972,20.546 41,20.276 41,20 L41,4 C41,1.791 39.209,0 37,0 Z M36.969,15.969 C34.743,15.969 32.938,17.774 32.938,20 C32.938,20.347 32.996,20.678 33.078,21 L8.891,21 C8.974,20.678 9.031,20.347 9.031,20 C9.031,17.774 7.226,15.969 5,15.969 C4.653,15.969 4.322,16.027 4,16.109 L4,7.922 C4.322,8.005 4.653,8.062 5,8.062 C7.226,8.062 9.031,6.257 9.031,4.031 C9.031,3.672 8.969,3.331 8.881,3 L33.087,3 C32.999,3.331 32.937,3.672 32.937,4.031 C32.937,6.257 34.742,8.062 36.968,8.062 C37.327,8.062 37.668,8 37.999,7.912 L37.999,16.118 C37.669,16.031 37.328,15.969 36.969,15.969 Z"></path>
                                    </g>
                                    <g transform="translate(15.000000, 6.000000)" id="Oval">
                                        <circle cx="6" cy="6" r="6"></circle>
                                    </g>
                                </g>
                                <g transform="translate(1.000000, 0.000000)" id="Shape">
                                    <path d="M4,23 C2.346,23 1,21.654 1,20 L1,4 C1,2.346 2.346,1 4,1 L36,1 C37.654,1 39,2.346 39,4 L39,20 C39,21.654 37.654,23 36,23 L4,23 Z" fill="#76C2AF"></path>
                                    <path d="M36,2 C37.103,2 38,2.897 38,4 L38,20 C38,21.103 37.103,22 36,22 L4,22 C2.897,22 2,21.103 2,20 L2,4 C2,2.897 2.897,2 4,2 L36,2 L36,2 Z M36,0 L4,0 C1.791,0 0,1.791 0,4 L0,20 C0,22.209 1.791,24 4,24 L36,24 C38.209,24 40,22.209 40,20 L40,4 C40,1.791 38.209,0 36,0 L36,0 Z" fill="#E0E0D1"></path>
                                </g>
                                <circle id="Oval" fill="#4F5D73" cx="21" cy="12" r="6"></circle>
                                <circle id="Oval" fill="#E0E0D1" cx="36.969" cy="4.031" r="4.031"></circle>
                                <circle id="Oval" fill="#E0E0D1" cx="5" cy="4.031" r="4.031"></circle>
                                <circle id="Oval" fill="#E0E0D1" cx="36.969" cy="20" r="4.031"></circle>
                                <circle id="Oval" fill="#E0E0D1" cx="5" cy="20" r="4.031"></circle>
                            </g>
                            <g id="Group" transform="translate(9.000000, 19.000000)">
                                <g opacity="0.2" transform="translate(2.000000, 2.000000)" fill="#231F20">
                                    <g transform="translate(4.000000, 3.000000)" id="Shape">
                                        <path d="M32.969,5.062 C30.743,5.062 28.938,3.257 28.938,1.031 C28.938,0.672 29,0.331 29.088,3.55271368e-15 L4.881,3.55271368e-15 C4.969,0.331 5.031,0.672 5.031,1.031 C5.031,3.257 3.226,5.062 1,5.062 C0.653,5.062 0.322,5.004 0,4.922 L0,13.109 C0.322,13.026 0.653,12.969 1,12.969 C3.226,12.969 5.031,14.774 5.031,17 C5.031,17.347 4.973,17.678 4.891,18 L29.078,18 C28.995,17.678 28.938,17.347 28.938,17 C28.938,14.774 30.743,12.969 32.969,12.969 C33.328,12.969 33.669,13.031 34,13.119 L34,4.913 C33.669,5.001 33.328,5.062 32.969,5.062 Z M17,15 C13.686,15 11,12.314 11,9 C11,5.686 13.686,3 17,3 C20.314,3 23,5.686 23,9 C23,12.314 20.314,15 17,15 Z"></path>
                                    </g>
                                    <g id="Shape">
                                        <path d="M37,0 L5,0 C4.724,0 4.454,0.028 4.194,0.081 C2.354,0.455 0.969,2.081 0.969,4.031 C0.969,4.137 0.992,4.237 1,4.341 L1,19.69 C0.992,19.794 0.969,19.894 0.969,20 C0.969,22.226 2.774,24.031 5,24.031 C5.106,24.031 5.206,24.008 5.31,24 L36.659,24 C36.763,24.008 36.863,24.031 36.969,24.031 C38.919,24.031 40.545,22.646 40.919,20.806 C40.972,20.546 41,20.276 41,20 L41,4 C41,1.791 39.209,0 37,0 Z M36.969,15.969 C34.743,15.969 32.938,17.774 32.938,20 C32.938,20.347 32.996,20.678 33.078,21 L8.891,21 C8.974,20.678 9.031,20.347 9.031,20 C9.031,17.774 7.226,15.969 5,15.969 C4.653,15.969 4.322,16.027 4,16.109 L4,7.922 C4.322,8.005 4.653,8.062 5,8.062 C7.226,8.062 9.031,6.257 9.031,4.031 C9.031,3.672 8.969,3.331 8.881,3 L33.087,3 C32.999,3.331 32.937,3.672 32.937,4.031 C32.937,6.257 34.742,8.062 36.968,8.062 C37.327,8.062 37.668,8 37.999,7.912 L37.999,16.118 C37.669,16.031 37.328,15.969 36.969,15.969 Z"></path>
                                    </g>
                                    <g transform="translate(15.000000, 6.000000)" id="Oval">
                                        <circle cx="6" cy="6" r="6"></circle>
                                    </g>
                                </g>
                                <g transform="translate(1.000000, 0.000000)" id="Shape">
                                    <path d="M4,23 C2.346,23 1,21.654 1,20 L1,4 C1,2.346 2.346,1 4,1 L36,1 C37.654,1 39,2.346 39,4 L39,20 C39,21.654 37.654,23 36,23 L4,23 Z" fill="#76C2AF"></path>
                                    <path d="M36,2 C37.103,2 38,2.897 38,4 L38,20 C38,21.103 37.103,22 36,22 L4,22 C2.897,22 2,21.103 2,20 L2,4 C2,2.897 2.897,2 4,2 L36,2 L36,2 Z M36,0 L4,0 C1.791,0 0,1.791 0,4 L0,20 C0,22.209 1.791,24 4,24 L36,24 C38.209,24 40,22.209 40,20 L40,4 C40,1.791 38.209,0 36,0 L36,0 Z" fill="#E0E0D1"></path>
                                </g>
                                <circle id="Oval" fill="#46B1C9" cx="21" cy="12" r="6"></circle>
                                <circle id="Oval" fill="#E0E0D1" cx="36.969" cy="4.031" r="4.031"></circle>
                                <circle id="Oval" fill="#E0E0D1" cx="5" cy="4.031" r="4.031"></circle>
                                <circle id="Oval" fill="#E0E0D1" cx="36.969" cy="20" r="4.031"></circle>
                                <circle id="Oval" fill="#E0E0D1" cx="5" cy="20" r="4.031"></circle>
                            </g>
                        </g>
                    </g>
                </g>
            </g>
        </g>
    </g>
</svg>