<?xml version="1.0" encoding="UTF-8"?>
<svg width="16px" height="20px" viewBox="0 0 16 20" version="1.1" xmlns="http://www.w3.org/2000/svg" xmlns:xlink="http://www.w3.org/1999/xlink">
    <!-- Generator: Sketch 49.3 (51167) - http://www.bohemiancoding.com/sketch -->
    <title>map-pin</title>
    <desc>Created with Sketch.</desc>
    <defs>
        <path d="M7.2292187,19.5964796 C1.55351563,11.3683957 0.5,10.5239427 0.5,7.49999817 C0.5,3.35785074 3.85785156,0 8,0 C12.1421484,0 15.5,3.35785074 15.5,7.49999817 C15.5,10.5239427 14.4464844,11.3683957 8.7707812,19.5964796 C8.3983203,20.1345263 7.6016406,20.1344873 7.2292187,19.5964796 Z M8,10.6249974 C9.7258984,10.6249974 11.125,9.2258962 11.125,7.49999817 C11.125,5.77410015 9.7258984,4.37499893 8,4.37499893 C6.2741016,4.37499893 4.875,5.77410015 4.875,7.49999817 C4.875,9.2258962 6.2741016,10.6249974 8,10.6249974 Z" id="path-1"></path>
    </defs>
    <g id="Page-1" stroke="none" stroke-width="1" fill="none" fill-rule="evenodd" opacity="0.699999988">
        <g id="map-pin">
            <g id="Page-1">
                <g id="homepage">
                    <g id="footer">
                        <g id="Group">
                            <g id="contact-section-copy">
                                <g id="Icons/Solid/map-marker-alt">
                                    <g id="map-marker-alt" fill="#000000" fill-rule="nonzero">
                                        <path d="M7.2292187,19.5964796 C1.55351563,11.3683957 0.5,10.5239427 0.5,7.49999817 C0.5,3.35785074 3.85785156,0 8,0 C12.1421484,0 15.5,3.35785074 15.5,7.49999817 C15.5,10.5239427 14.4464844,11.3683957 8.7707812,19.5964796 C8.3983203,20.1345263 7.6016406,20.1344873 7.2292187,19.5964796 Z M8,10.6249974 C9.7258984,10.6249974 11.125,9.2258962 11.125,7.49999817 C11.125,5.77410015 9.7258984,4.37499893 8,4.37499893 C6.2741016,4.37499893 4.875,5.77410015 4.875,7.49999817 C4.875,9.2258962 6.2741016,10.6249974 8,10.6249974 Z" id="path-1"></path>
                                    </g>
                                    <g id="Colors/5th-Clipped">
                                        <mask id="mask-2" fill="white">
                                            <use xlink:href="#path-1"></use>
                                        </mask>
                                        <g id="path-1"></g>
                                        <g id="Colors/5th" mask="url(#mask-2)" fill="#D33E43">
                                            <g transform="translate(-4.000000, -2.000000)" id="Rectangle">
                                                <rect x="0" y="0" width="24" height="24"></rect>
                                            </g>
                                        </g>
                                    </g>
                                </g>
                            </g>
                        </g>
                    </g>
                </g>
            </g>
        </g>
    </g>
</svg>