<?xml version="1.0" encoding="UTF-8"?>
<svg width="21px" height="21px" viewBox="0 0 21 21" version="1.1" xmlns="http://www.w3.org/2000/svg" xmlns:xlink="http://www.w3.org/1999/xlink">
    <!-- Generator: Sketch 50.2 (55047) - http://www.bohemiancoding.com/sketch -->
    <title>if_check-circle-outline_326568</title>
    <desc>Created with Sketch.</desc>
    <defs></defs>
    <g id="Page-1" stroke="none" stroke-width="1" fill="none" fill-rule="evenodd">
        <g id="if_check-circle-outline_326568" transform="translate(-2.000000, -3.000000)">
            <path d="M20.8073291,13.2066294 C20.8073291,17.6066294 17.2073291,21.2066294 12.8073291,21.2066294 C8.40732909,21.2066294 4.80732909,17.6066294 4.80732909,13.2066294 C4.80732909,8.8066294 8.40732909,5.2066294 12.8073291,5.2066294 C13.6073291,5.2066294 14.3073291,5.3066294 15.0073291,5.5066294 L16.6073291,3.9066294 C15.4073291,3.5066294 14.1073291,3.2066294 12.8073291,3.2066294 C7.30732909,3.2066294 2.80732909,7.7066294 2.80732909,13.2066294 C2.80732909,18.7066294 7.30732909,23.2066294 12.8073291,23.2066294 C18.3073291,23.2066294 22.8073291,18.7066294 22.8073291,13.2066294 L20.8073291,13.2066294 Z" id="Shape" fill="#000000" fill-rule="nonzero" transform="translate(12.807329, 13.206629) rotate(-195.000000) translate(-12.807329, -13.206629) "></path>
            <path d="M14.5078125,15.9492188 L10.9121094,15.9492188 L10.2285156,18 L8.04785156,18 L11.7529297,8.046875 L13.6533203,8.046875 L17.3789062,18 L15.1982422,18 L14.5078125,15.9492188 Z M11.4658203,14.2880859 L13.9541016,14.2880859 L12.703125,10.5625 L11.4658203,14.2880859 Z" id="A" fill="#D33E43"></path>
        </g>
    </g>
</svg>