<?xml version="1.0" encoding="UTF-8" standalone="no"?>
<svg width="120px" height="128px" viewBox="0 0 120 128" version="1.1" xmlns="http://www.w3.org/2000/svg" xmlns:xlink="http://www.w3.org/1999/xlink">
    <!-- Generator: Sketch 42 (36781) - http://www.bohemiancoding.com/sketch -->
    <title>contract</title>
    <desc>Created with Sketch.</desc>
    <defs></defs>
    <g id="Page-1" stroke="none" stroke-width="1" fill="none" fill-rule="evenodd">
        <g id="Colorful-Business-Element-Icons" transform="translate(-1335.000000, -676.000000)" fill-rule="nonzero">
            <g id="contract" transform="translate(1335.000000, 676.000000)">
                <polygon id="Shape" fill="#FFFFFF" points="65.528 70 60 72.764 60 67.236"></polygon>
                <rect id="Rectangle-path" fill="#FFFFFF" x="4" y="66" width="4" height="8"></rect>
                <path d="M116,104 C116,107.308 113.308,110 110,110 L41.948,110 C43.218,108.324 44,106.26 44,104 L44,78 L58.472,78 L74.472,70 L58.472,62 L44,62 L44,10 C44,7.75 43.252,5.672 41.996,4 L110,4 C113.308,4 116,6.692 116,10 L116,104 Z" id="Shape" fill="#FFFFFF"></path>
                <rect id="Rectangle-path" fill="#75D5E0" x="10" y="64" width="48" height="12"></rect>
                <path d="M26,98 L26,104 C26,108.42 29.58,112 34,112 C38.42,112 42,108.42 42,104 L42,98 L26,98 Z" id="Shape" fill="#809BCE"></path>
                <path d="M42,16 L42,10 C42,5.58 38.42,2 34,2 C29.58,2 26,5.58 26,10 L26,16 L42,16 Z" id="Shape" fill="#809BCE"></path>
                <rect id="Rectangle-path" fill="#809BCE" x="50" y="30" width="60" height="16"></rect>
                <polygon id="Shape" fill="#75D5E0" points="72 126 80 124 88 126 88 104 72 104"></polygon>
                <path d="M80,84 C73.372,84 68,89.372 68,96 C68,102.628 73.372,108 80,108 C86.628,108 92,102.628 92,96 C92,89.372 86.628,84 80,84 Z M80,100 C77.79,100 76,98.21 76,96 C76,93.79 77.79,92 80,92 C82.21,92 84,93.79 84,96 C84,98.21 82.21,100 80,100 Z" id="Shape" fill="#B8E0D2"></path>
                <rect id="Rectangle-path" fill="#0C3847" x="98" y="94" width="4" height="4"></rect>
                <rect id="Rectangle-path" fill="#0C3847" x="58" y="94" width="4" height="4"></rect>
                <rect id="Rectangle-path" fill="#0C3847" x="48" y="52" width="64" height="4"></rect>
                <rect id="Rectangle-path" fill="#0C3847" x="68" y="16" width="24" height="4"></rect>
                <rect id="Rectangle-path" fill="#0C3847" x="78" y="60" width="34" height="4"></rect>
                <rect id="Rectangle-path" fill="#0C3847" x="78" y="68" width="34" height="4"></rect>
                <path d="M80,90 C76.692,90 74,92.692 74,96 C74,99.308 76.692,102 80,102 C83.308,102 86,99.308 86,96 C86,92.692 83.308,90 80,90 Z M80,98 C78.898,98 78,97.104 78,96 C78,94.896 78.898,94 80,94 C81.102,94 82,94.896 82,96 C82,97.104 81.102,98 80,98 Z" id="Shape" fill="#0C3847"></path>
                <path d="M48,48 L112,48 L112,28 L48,28 L48,48 Z M52,32 L108,32 L108,44 L52,44 L52,32 Z" id="Shape" fill="#0C3847"></path>
                <rect id="Rectangle-path" fill="#FFFFFF" x="74" y="36" width="12" height="4"></rect>
                <rect id="Rectangle-path" fill="#FFFFFF" x="90" y="36" width="12" height="4"></rect>
                <rect id="Rectangle-path" fill="#FFFFFF" x="58" y="36" width="12" height="4"></rect>
                <path d="M110,0 L34,0 C28.486,0 24,4.486 24,10 L24,18 L40,18 L40,62 L0,62 L0,78 L8.93,78 L12.93,84 L34,84 L34,80 L15.07,80 L13.736,78 L40,78 L40,96 L24,96 L24,104 C24,109.514 28.486,114 34,114 L70,114 L70,128 L80,125.5 L90,128 L90,114 L110,114 C115.514,114 120,109.514 120,104 L120,10 C120,4.486 115.514,0 110,0 Z M28,14 L28,10 C28,6.692 30.692,4 34,4 C37.308,4 40,6.692 40,10 L40,14 L28,14 Z M4,66 L8,66 L8,74 L4,74 L4,66 Z M12,74 L12,66 L34,66 L34,74 L12,74 Z M38,66 L56,66 L56,74 L38,74 L38,66 Z M65.528,70 L60,72.764 L60,67.236 L65.528,70 Z M28,104 L28,100 L40,100 L40,104 C40,107.308 37.308,110 34,110 C30.692,110 28,107.308 28,104 Z M80,106 C74.486,106 70,101.514 70,96 C70,90.486 74.486,86 80,86 C85.514,86 90,90.486 90,96 C90,101.514 85.514,106 80,106 Z M80,121.376 L74,122.876 L74,108.63 C75.822,109.498 77.85,110 80,110 C82.15,110 84.178,109.498 86,108.63 L86,122.876 L80,121.376 Z M116,104 C116,107.308 113.308,110 110,110 L90,110 L90,105.778 C92.47,103.252 94,99.802 94,96 C94,88.282 87.72,82 80,82 C72.28,82 66,88.282 66,96 C66,99.804 67.53,103.254 70,105.778 L70,110 L41.948,110 C43.218,108.324 44,106.26 44,104 L44,78 L58.472,78 L74.472,70 L58.472,62 L44,62 L44,10 C44,7.75 43.252,5.672 41.996,4 L110,4 C113.308,4 116,6.692 116,10 L116,104 Z" id="Shape" fill="#0C3847"></path>
            </g>
        </g>
    </g>
</svg>