<?xml version="1.0" encoding="UTF-8"?>
<svg width="18px" height="18px" viewBox="0 0 18 18" version="1.1" xmlns="http://www.w3.org/2000/svg" xmlns:xlink="http://www.w3.org/1999/xlink">
    <!-- Generator: Sketch 50 (54983) - http://www.bohemiancoding.com/sketch -->
    <title>Icons/Brands/twitter-square</title>
    <desc>Created with Sketch.</desc>
    <defs>
        <path d="M19.0714286,3.25 L4.92857143,3.25 C3.86383929,3.25 3,4.08984375 3,5.125 L3,18.875 C3,19.9101562 3.86383929,20.75 4.92857143,20.75 L19.0714286,20.75 C20.1361607,20.75 21,19.9101562 21,18.875 L21,5.125 C21,4.08984375 20.1361607,3.25 19.0714286,3.25 Z M17.1066964,9.453125 C17.1147321,9.5625 17.1147321,9.67578125 17.1147321,9.78515625 C17.1147321,13.171875 14.4629464,17.0742188 9.61741071,17.0742188 C8.12276786,17.0742188 6.73660714,16.6523438 5.57142857,15.9257812 C5.784375,15.9492188 5.98928571,15.9570313 6.20625,15.9570313 C7.43973214,15.9570313 8.57276786,15.5507813 9.47678571,14.8632812 C8.31964286,14.8398438 7.34732143,14.1015625 7.01383929,13.0859375 C7.41964286,13.1445313 7.78526786,13.1445313 8.203125,13.0390625 C6.99776786,12.8007812 6.09375,11.7695313 6.09375,10.5234375 L6.09375,10.4921875 C6.44330357,10.6835938 6.853125,10.8007812 7.28303571,10.8164062 C6.54891221,10.341655 6.10837797,9.54079793 6.10982143,8.68359375 C6.10982143,8.20703125 6.23839286,7.76953125 6.46741071,7.390625 C7.76517857,8.9453125 9.71383929,9.9609375 11.8995536,10.0703125 C11.5258929,8.33203125 12.8638393,6.921875 14.4709821,6.921875 C15.2303571,6.921875 15.9133929,7.23046875 16.3955357,7.73046875 C16.9901786,7.62109375 17.5607143,7.40625 18.0669643,7.11328125 C17.8700893,7.70703125 17.45625,8.20703125 16.9098214,8.5234375 C17.4401786,8.46875 17.9544643,8.32421875 18.4285714,8.125 C18.0709821,8.63671875 17.6209821,9.08984375 17.1066964,9.453125 Z" id="path-1"></path>
    </defs>
    <g id="Page-1" stroke="none" stroke-width="1" fill="none" fill-rule="evenodd">
        <g id="homepage-copy" transform="translate(-231.000000, -5128.000000)">
            <g id="Icons/Brands/twitter-square" transform="translate(228.000000, 5125.000000)">
                <mask id="mask-2" fill="white">
                    <use xlink:href="#path-1"></use>
                </mask>
                <use id="twitter-square" fill="#000000" fill-rule="nonzero" xlink:href="#path-1"></use>
                <g id="Colors/5th" mask="url(#mask-2)" fill="#FFFFFF" fill-rule="evenodd">
                    <rect id="Rectangle" x="0" y="0" width="24" height="24"></rect>
                </g>
            </g>
        </g>
    </g>
</svg>