<?xml version="1.0" encoding="UTF-8"?>
<svg width="512px" height="512px" viewBox="0 0 512 512" version="1.1" xmlns="http://www.w3.org/2000/svg" xmlns:xlink="http://www.w3.org/1999/xlink">
    <!-- Generator: Sketch 52.2 (67145) - http://www.bohemiancoding.com/sketch -->
    <title>if_yelp_386761</title>
    <desc>Created with Sketch.</desc>
    <g id="Page-1" stroke="none" stroke-width="1" fill="none" fill-rule="evenodd">
        <g id="if_yelp_386761">
            <rect id="rect2987" fill="#FFFFFF" x="0" y="5.68434189e-14" width="512" height="512" rx="64"></rect>
            <path d="M153.05798,66.782475 C174.06175,50.268945 214.427631,45.541335 231.041361,48.769125 C247.673571,51.972255 256.361171,61.268715 256.461371,72.595275 L257.424771,216.9765 C257.494071,228.32155 251.608901,238.74019 244.328631,240.14137 C237.009851,241.51635 226.239741,234.7756 220.314431,225.12613 L144.55535,101.33095 C138.68707,91.661445 126.83797,87.405515 153.05798,66.782475 Z M127.90465,341.33895 L204.177011,314.3482 C214.802211,310.5732 224.323731,300.08673 225.390411,290.97985 C226.415471,281.8699 218.698991,271.05664 208.218681,266.91169 L127.64876,234.96211 C117.15613,230.81253 105.06193,240.64696 101.87422,256.73352 C101.87422,256.73352 99.95357,312.75435 101.87422,324.3522 C103.8149,335.94234 117.2779,345.11857 127.90465,341.33895 Z M260.946981,354.82353 C261.162791,343.45074 255.098721,333.63942 247.457771,332.93806 C239.802941,332.23053 227.664041,338.75086 220.422321,347.41842 L167.21773,411.2143 C159.976,419.8834 163.56911,440.24284 174.12958,444.10108 L229.760411,463.41697 C240.347081,467.27676 259.001681,455.87004 259.215941,444.53731 L260.946981,354.82353 Z M393.192381,339.97168 L326.481621,320.793 C315.665291,317.68236 303.386111,317.97676 299.228831,321.49897 C295.060761,324.97186 296.105861,335.97316 301.542551,345.89854 L343.650261,422.95398 C349.086951,432.87319 370.862981,431.17297 376.857671,421.54818 C376.857671,421.54818 402.23452,384.11566 406.89586,370.07307 C411.57415,356.00428 404.00257,343.0777 393.192381,339.97168 Z M409.43771,231.62641 C406.4288,221.87368 385.577631,193.14109 374.278821,183.35136 C362.995431,173.5308 350.081181,174.75933 342.807101,183.38226 L299.817671,234.59839 C292.529691,243.21508 290.579771,256.88926 295.438421,264.91866 C300.290891,272.95731 313.243671,277.50766 324.229571,275.0398 L398.59516,261.25464 C412.01038,258.03301 412.49285,241.36996 409.43771,231.62647 L409.43771,231.62641 Z" id="Yelp_3_" fill="#212121" fill-rule="nonzero"></path>
        </g>
    </g>
</svg>