<?xml version="1.0" encoding="UTF-8"?>
<svg width="512px" height="512px" viewBox="0 0 512 512" version="1.1" xmlns="http://www.w3.org/2000/svg" xmlns:xlink="http://www.w3.org/1999/xlink">
    <!-- Generator: Sketch 50.2 (55047) - http://www.bohemiancoding.com/sketch -->
    <title>if_social_style_3_youtube_341094</title>
    <desc>Created with Sketch.</desc>
    <defs></defs>
    <g id="Page-1" stroke="none" stroke-width="1" fill="none" fill-rule="evenodd">
        <g id="if_social_style_3_youtube_341094" fill-rule="nonzero">
            <rect id="rect2989" fill="#FFFFFF" transform="translate(256.000000, 256.000000) rotate(180.000000) translate(-256.000000, -256.000000) " x="0" y="0" width="512" height="512" rx="70"></rect>
            <g id="g3294" transform="translate(80.195389, 60.147505)" fill="#000000">
                <path d="M293.472254,247.369408 C289.755683,247.369408 287.069265,249.149044 286.08075,252.173192 C285.685961,253.5164 285.21098,252.094542 285.21098,261.561775 L285.21098,278.007216 L301.301728,278.007216 L301.301728,261.561775 C301.301728,252.745328 300.786651,254.051525 300.391862,252.688268 C299.363251,249.347981 296.794036,247.369408 293.472254,247.369408 Z M215.910036,253.044504 C212.471051,253.044504 209.823187,255.080136 208.834672,258.420424 C208.358149,259.940979 207.843072,262.948164 207.843072,273.086229 L207.843072,303.290695 C207.843072,313.094115 208.436798,316.237008 208.951875,317.856261 C210.057593,321.395486 212.668446,323.431118 216.108973,323.431118 C219.666703,323.431118 222.274472,321.316836 223.340094,317.618771 C223.776522,315.97947 224.331694,312.71629 224.331694,302.041557 L224.331694,273.084687 C224.331694,263.538805 223.656234,260.334227 223.184338,258.775117 C222.036981,255.158786 219.389117,253.044504 215.910036,253.044504 Z M348.579289,209.539032 C345.615285,182.458953 321.619498,160.360005 294.619611,158.461624 C215.356406,155.08124 136.252042,155.08124 56.9487419,158.461624 C30.0275045,160.358463 5.99162158,182.458953 3.02761755,209.539032 C0.0636135101,252.332033 0.0636135101,294.414104 3.02761755,337.228696 C5.99162158,364.288726 30.0275045,386.407722 56.9487419,388.304561 C136.252042,391.704992 215.354864,391.664897 294.619611,388.304561 C321.619498,386.407722 345.615285,364.288726 348.579289,337.228696 C351.546377,294.414104 351.546377,252.332033 348.579289,209.539032 Z M102.451293,217.780258 L79.9575558,217.780258 L79.9575558,343.967872 L56.3981959,343.967872 L56.3981959,217.780258 L33.9831082,217.780258 L33.9831082,193.844615 L102.451293,193.844615 L102.451293,217.780258 Z M144.869553,344.126713 L145.185692,337.840927 L138.148882,336.099845 C136.369245,339.600516 134.196362,342.208284 131.745893,343.907729 C129.333977,345.530066 126.607463,346.318102 123.444522,346.318102 C119.806601,346.318102 116.760863,345.547029 114.469234,344.04498 C112.098956,342.482786 110.396428,340.447154 109.292251,337.857891 C108.027692,334.952488 107.235029,331.928341 106.960527,328.805496 C106.602749,325.443618 106.44545,318.547143 106.44545,308.268741 L106.44545,230.094292 L128.740251,230.094292 L128.740251,301.805609 C128.740251,314.753464 129.138124,318.053656 129.532914,319.497104 C130.402684,322.85744 133.167751,324.873024 136.924418,324.873024 C140.839926,324.873024 143.686727,322.777248 144.474763,319.258072 C144.829457,317.796118 145.185692,314.45583 145.185692,300.897285 L145.185692,230.094292 L167.445023,230.094292 L167.445023,344.126713 L144.869553,344.126713 Z M246.586399,321.335342 C246.586399,320.920505 246.109876,327.779969 245.24319,332.167373 C244.411973,336.059749 242.592241,339.342977 239.628237,342.246838 C236.781436,344.994941 233.459654,346.319644 229.585784,346.319644 C226.779079,346.319644 224.286972,345.530066 221.839587,343.909271 C219.270372,342.208284 216.89701,339.540372 214.682488,335.982642 L209.739911,327.997411 L207.923264,337.285755 L206.618609,343.96633 L185.54673,343.96633 L185.54673,193.843073 L207.84153,193.843073 L207.84153,248.239178 L214.642393,237.743334 C216.778264,234.483238 219.148542,232.031227 221.639108,230.489081 C224.129673,228.946935 226.698888,228.214416 229.584242,228.214416 C232.984674,228.214416 235.948678,228.926887 238.360594,230.271638 C240.730871,231.614847 242.471954,233.453085 243.69796,235.826447 C245.041169,238.455806 245.872385,240.986467 246.108334,243.436936 C247.457711,255.791065 246.586399,261.9396 246.586399,261.722158 L246.586399,321.335342 Z M285.21098,290.402983 L285.21098,315.803665 C285.21098,323.630055 285.84326,326.200812 286.398432,327.584116 C287.585884,330.508025 290.193653,332.188963 293.552446,332.188963 C297.389304,332.188963 300.314755,330.173379 301.579314,326.694298 C302.48918,324.182143 302.961077,319.953579 302.961077,313.428761 L302.961077,301.193377 L323.678262,301.193377 L323.678262,306.49219 C323.678262,313.647746 323.280389,319.201012 322.569459,322.937631 C321.897084,326.495361 320.277831,330.367689 317.708616,334.519146 C315.256605,338.434653 312.172313,341.458801 308.458826,343.374146 C304.780809,345.332671 299.919966,346.319644 294.146172,346.319644 C288.454112,346.319644 283.432886,345.312623 279.125673,343.35564 C274.975759,341.397115 271.692531,338.750793 269.39936,335.410506 C267.029082,331.891329 265.326553,327.997411 264.378134,323.787354 C263.429714,319.379901 262.917722,312.777975 262.917722,308.270284 L262.917722,273.283624 C262.917722,259.111305 264.02344,251.163086 266.159312,245.55276 C268.174896,240.17684 271.414944,236.202731 276.002828,233.396026 C280.587627,230.549225 286.045281,229.107318 292.093576,229.107318 C299.56373,229.107318 305.732313,230.845317 310.475953,234.224158 C315.298242,237.703238 318.620024,242.190882 320.597055,247.943086 C322.61264,253.969791 323.681347,266.877551 323.681347,278.065818 L323.681347,290.402983 L285.21098,290.402983 Z" id="path3047"></path>
                <g id="g3289" transform="translate(61.143682, 0.000000)">
                    <path d="M35.6541045,60.9949313 L16.9555879,0.865128316 L0.0367074468,0.865128316 L25.2168624,86.6716572 L25.3371498,87.3440327 L25.3371498,88.0364562 L25.3371498,148.30351 L45.1830228,148.30351 L45.1830228,88.0364562 L45.1830228,87.3239848 L45.3403217,86.6331036 L67.1616833,0.866670462 L50.2011649,0.866670462 C45.2231186,23.5177065 38.9373327,45.3005145 35.6541045,60.9949313 Z" id="path3051"></path>
                    <path d="M127.134187,51.6649498 C124.878028,48.1056775 121.559331,45.1617214 117.208938,42.8685507 C112.821533,40.4766828 107.326868,39.3108206 101.002529,39.3108206 C93.5693863,39.3108206 87.4424414,41.1290104 82.8160043,44.7083306 C78.271301,48.2460128 75.2255632,52.7336568 73.487565,58.504366 C71.6292794,64.632853 70.7194135,73.4878536 70.7194135,84.7732759 L70.7194135,105.430318 C70.7194135,115.886065 71.2344901,123.774141 72.2615592,128.793825 C73.2099788,133.497369 74.8307739,137.53008 77.0051993,140.791718 C79.1410711,143.954659 82.2253625,146.366575 86.2164356,147.98737 C90.5652865,149.706863 95.9427485,150.616729 102.267088,150.616729 C107.882041,150.616729 112.821533,149.588117 117.051639,147.552485 C121.124446,145.635598 124.364494,142.748701 126.895155,138.697485 C129.502923,134.624678 131.202368,130.237273 131.995031,125.59233 C132.826247,120.552598 133.25959,112.329877 133.25959,101.14161 L133.25959,81.9681128 C133.25959,73.3506027 132.783067,66.9645773 131.916381,62.9133606 C131.085165,59.1366457 129.465912,55.3414252 127.134187,51.6649498 Z M110.292414,119.305002 C110.292414,127.606373 109.660135,130.551871 109.108046,132.192714 C107.882041,135.631699 105.312826,137.60873 101.991044,137.60873 C98.6723464,137.60873 96.1000474,135.514496 94.8771259,131.836478 C94.3234955,130.116986 93.65112,127.034237 93.65112,118.040443 L93.65112,72.2818957 C93.65112,62.5972207 94.2833998,59.4928814 94.9156795,57.7332931 C96.1416853,54.2742603 98.7494537,52.2987717 102.069693,52.2987717 C105.431571,52.2987717 108.000786,54.334404 109.186696,57.9121821 C109.740326,59.6131688 110.292414,62.6758701 110.292414,72.2818957 L110.292414,119.305002 Z" id="path3053"></path>
                    <path d="M190.504039,39.5683589 L190.504039,111.063776 C190.504039,125.630884 190.109249,125.256143 189.711376,126.995683 C189.278033,128.952666 187.657238,133.498911 181.965178,133.498911 C176.589258,133.498911 174.889813,129.150061 174.414832,127.311823 C173.98149,125.513681 173.504967,126.007168 173.504967,112.013737 L173.504967,39.5699011 L150.537791,39.5699011 L150.537791,111.262713 C150.537791,122.074696 150.733643,129.348997 151.049783,132.828078 C151.327369,135.950923 152.076852,138.975071 153.302858,141.84192 C154.411661,144.411134 156.071009,146.486862 158.444372,148.08761 C160.893299,149.767006 164.136431,150.618271 168.088951,150.618271 C171.527936,150.618271 174.414832,149.748501 176.984047,147.950359 C179.514708,146.170723 181.610484,143.542906 183.387036,139.904985 L190.504039,142.791881 L190.226452,148.306594 L213.472757,148.306594 L213.472757,39.5714432 L190.504039,39.5714432 L190.504039,39.5683589 Z" id="path3055"></path>
                </g>
            </g>
        </g>
    </g>
</svg>