<?xml version="1.0" encoding="UTF-8"?>
<svg width="318px" height="371px" viewBox="0 0 318 371" version="1.1" xmlns="http://www.w3.org/2000/svg" xmlns:xlink="http://www.w3.org/1999/xlink">
    <!-- Generator: Sketch 50.2 (55047) - http://www.bohemiancoding.com/sketch -->
    <title>Artboard</title>
    <desc>Created with Sketch.</desc>
    <defs></defs>
    <g id="Artboard" stroke="none" stroke-width="1" fill="none" fill-rule="evenodd">
        <g id="logo" fill="#000000" fill-rule="nonzero">
            <g id="Group" transform="translate(81.000000, 329.000000)">
                <path d="M28.1,6.6 C26.8,8 24.9,10.5 22.3,14.1 C19.7,17.7 17.8,20 16.8,21 C15.7,22 14.9,22.5 14.2,22.5 C13.7,22.5 13.2,22.1 12.7,21.3 C12.2,20.5 11.6,18.9 10.8,16.6 C9.2,11.8 8.2,9 7.7,8.2 C7.5,8.6 7.4,9.3 7.2,10.3 C6.8,12.4 6.3,14.9 5.6,17.8 C4.3,23.5 3.5,27.2 3.4,29.1 C3.4,29.3 3.2,29.6 2.8,29.8 C2.4,30.1 2.1,30.2 1.9,30.2 C1.4,30.2 1,30 0.6,29.5 C0.2,29 0,28.6 0,28.2 C0,27.1 0.4,25.1 1.1,22.4 L2.8,16.2 C3.8,12.3 4.4,9.4 4.7,7.5 C4.9,5.6 5.1,4.2 5.1,3.1 C5.1,2 6,1.4 7.7,1.4 C8.1,1.4 8.5,1.7 8.9,2.4 C9.3,3 9.6,3.6 9.7,4.1 C9.9,4.6 10.1,5.1 10.3,5.7 L12.9,12.8 C13.9,15.7 14.5,17.4 14.8,17.7 C15,18.1 15.2,18.3 15.4,18.3 C16,18.2 18.3,15.4 22.3,9.9 C26.7,3.9 29.2,0.9 29.8,0.9 C30.3,0.9 30.9,1.1 31.5,1.5 C32.1,1.9 32.4,2.2 32.4,2.5 C32.4,2.6 32,5.4 31.3,10.9 C31,12.9 30.8,15.3 30.6,18.2 C30.4,21 30.3,22.6 30.3,23 C30.3,23.6 30.4,24.4 30.6,25.2 C30.8,25.9 30.9,26.5 30.9,26.9 C30.9,27.2 30.8,27.7 30.7,28.4 C30.6,29.1 30.3,29.4 29.9,29.6 C29.5,29.7 29.1,29.8 28.9,29.8 C27.6,29.8 26.9,28.7 26.9,26.5 C26.9,24.5 27.3,19.5 28.2,11.6 C28.3,11 28.3,10.6 28.3,10.4 C28.3,10.3 28.4,9.9 28.5,9.1 C28.6,8.5 28.7,7.9 28.7,7.5 C28.2,7 28.2,6.8 28.1,6.6 Z" id="Shape"></path>
                <path d="M49.7,22.1 C47.9,24.5 46.2,26.3 44.4,27.5 C42.7,28.7 41.1,29.3 39.6,29.3 C38.6,29.3 37.8,28.9 37.1,28.1 C36.4,27.3 36,26.2 36,24.9 C36,21.6 37.5,18 40.5,14.1 C43.5,10.2 46.4,8.3 49.4,8.3 C50.5,8.3 51.3,8.9 51.8,10.1 C52,10.5 52.2,10.7 52.6,10.7 C53.6,10.7 54.1,11.1 54.1,11.9 C54.1,12.3 54,12.8 53.9,13.5 C53.2,17.2 52.9,19.9 52.9,21.4 C52.9,24.5 53.5,26.3 54.7,26.9 C55.3,27.2 55.5,27.6 55.5,28 C55.5,28.4 55.2,28.8 54.7,29.2 C54.2,29.6 53.6,29.8 53.1,29.8 C52.1,29.8 51.3,29.1 50.7,27.8 C50,26.5 49.7,24.6 49.7,22.1 Z M48.5,11.4 C46.8,11.4 44.9,13 42.7,16.1 C40.5,19.2 39.4,21.8 39.4,23.9 C39.4,25.4 39.9,26.1 40.8,26.1 C42.2,26.1 44.1,24.7 46.6,21.9 C49.1,19.1 50.3,16.5 50.3,14.1 C50.3,12.3 49.7,11.4 48.5,11.4 Z" id="Shape"></path>
                <path d="M69,24.7 C69,23.9 68,22.9 66,21.9 C63.4,20.6 61.7,19.5 60.8,18.7 C59.9,17.9 59.4,17 59.4,16 C59.4,13.5 60.7,11.4 63.2,9.7 C65.7,8 67.8,7.2 69.4,7.2 C70.4,7.2 71.2,7.4 71.6,7.7 C72.1,8.1 72.3,8.7 72.3,9.5 C72.3,9.9 72.1,10.2 71.8,10.5 C71.5,10.8 71.2,10.9 71,10.9 C70.9,10.9 70.6,10.8 70.2,10.6 C69.8,10.4 69.5,10.3 69.4,10.3 C68.8,10.3 67.5,10.8 65.5,11.7 C63.6,12.6 62.6,13.7 62.6,14.8 C62.6,15.5 62.9,16.2 63.6,16.7 C64.3,17.3 65.5,18 67.3,18.8 C68.7,19.5 69.9,20.2 70.7,21 C71.6,21.8 72,22.7 72,23.8 C72,25.7 70.7,27.3 68,28.4 C65.3,29.5 62.8,30 60.3,30 C58.2,30 57.2,29.3 57.2,27.9 C57.2,27.4 57.4,27.1 57.9,26.8 C58.4,26.6 58.8,26.5 59.3,26.5 C59.5,26.5 59.9,26.6 60.4,26.7 C60.9,26.8 61.3,26.9 61.4,26.9 C62.8,26.9 64.3,26.7 65.9,26.2 C67.6,26 68.6,25.4 69,24.7 Z" id="Shape"></path>
                <path d="M85.2,24.7 C85.2,23.9 84.2,22.9 82.2,21.9 C79.6,20.6 77.9,19.5 77,18.7 C76.1,17.9 75.6,17 75.6,16 C75.6,13.5 76.9,11.4 79.4,9.7 C81.9,8 84,7.2 85.6,7.2 C86.6,7.2 87.4,7.4 87.8,7.7 C88.3,8.1 88.5,8.7 88.5,9.5 C88.5,9.9 88.3,10.2 88,10.5 C87.7,10.8 87.4,10.9 87.2,10.9 C87.1,10.9 86.8,10.8 86.4,10.6 C86,10.4 85.7,10.3 85.6,10.3 C85,10.3 83.7,10.8 81.7,11.7 C79.8,12.6 78.8,13.7 78.8,14.8 C78.8,15.5 79.1,16.2 79.8,16.7 C80.5,17.3 81.7,18 83.5,18.8 C84.9,19.5 86.1,20.2 86.9,21 C87.8,21.8 88.2,22.7 88.2,23.8 C88.2,25.7 86.9,27.3 84.2,28.4 C81.5,29.5 79,30 76.5,30 C74.4,30 73.4,29.3 73.4,27.9 C73.4,27.4 73.6,27.1 74.1,26.8 C74.6,26.6 75,26.5 75.5,26.5 C75.7,26.5 76.1,26.6 76.6,26.7 C77.1,26.8 77.5,26.9 77.6,26.9 C79,26.9 80.5,26.7 82.1,26.2 C83.9,26 84.9,25.4 85.2,24.7 Z" id="Shape"></path>
                <path d="M104.7,22.1 C102.9,24.5 101.2,26.3 99.4,27.5 C97.7,28.7 96.1,29.3 94.6,29.3 C93.6,29.3 92.8,28.9 92.1,28.1 C91.4,27.3 91,26.2 91,24.9 C91,21.6 92.5,18 95.5,14.1 C98.5,10.2 101.4,8.3 104.4,8.3 C105.5,8.3 106.3,8.9 106.8,10.1 C107,10.5 107.2,10.7 107.6,10.7 C108.6,10.7 109.1,11.1 109.1,11.9 C109.1,12.3 109,12.8 108.9,13.5 C108.2,17.2 107.9,19.9 107.9,21.4 C107.9,24.5 108.5,26.3 109.7,26.9 C110.3,27.2 110.5,27.6 110.5,28 C110.5,28.4 110.2,28.8 109.7,29.2 C109.2,29.6 108.6,29.8 108.1,29.8 C107.1,29.8 106.3,29.1 105.7,27.8 C105.1,26.5 104.7,24.6 104.7,22.1 Z M103.6,11.4 C101.9,11.4 100,13 97.8,16.1 C95.6,19.2 94.5,21.8 94.5,23.9 C94.5,25.4 95,26.1 95.9,26.1 C97.3,26.1 99.2,24.7 101.7,21.9 C104.2,19.1 105.4,16.5 105.4,14.1 C105.4,12.3 104.8,11.4 103.6,11.4 Z" id="Shape"></path>
                <path d="M127.9,22.2 C127.7,22.1 127.3,22.4 126.6,23.3 C125.4,24.7 124,25.9 122.2,26.9 C120.4,28 118.7,28.5 117.2,28.5 C116.1,28.5 115.2,28.1 114.5,27.4 C113.9,26.7 113.5,25.7 113.5,24.4 C113.5,22.4 114.2,20.2 115.7,17.8 C117.2,15.4 119.3,13.3 121.9,11.5 C124.6,9.7 126.9,8.8 128.9,8.8 C130,8.8 130.9,9.1 131.7,9.7 C131.9,9.9 132.1,10 132.2,10.1 C132.4,10.3 132.6,10.6 132.8,11.1 C133,11.6 133.1,12 133.1,12.3 C133.1,12.5 133,12.8 132.9,13.2 C132.1,15.3 131.6,17.1 131.3,18.4 C131,19.8 130.7,22.1 130.4,25.4 C130.1,28.3 129.8,30.6 129.4,32.2 C129,33.8 128.4,35.3 127.5,36.8 C126.6,38.3 125.5,39.4 124.2,40.1 C122.9,40.8 121.6,41.2 120.2,41.2 C117.8,41.2 115.5,40.4 113.2,38.7 C110.9,37.1 109.7,35.7 109.7,34.8 C109.7,34.2 109.9,33.9 110.4,33.9 C110.6,33.9 111.3,34.3 112.4,35 C115.4,37 118.1,38 120.5,38 C122.6,38 124.2,36.9 125.3,34.7 C126.4,32.5 127.1,29.2 127.5,24.7 C127.7,23.7 127.8,22.9 127.9,22.2 Z M127.9,11.7 C126.8,11.7 125.5,12.3 123.9,13.4 C122.3,14.5 120.7,16.2 119.2,18.3 C117.7,20.5 116.9,22.3 116.9,23.7 C116.9,24.2 117.1,24.6 117.4,24.9 C117.7,25.2 118.1,25.3 118.4,25.3 C119.5,25.3 121,24.7 122.8,23.5 C124.6,22.3 126.2,20.7 127.5,18.6 C128.8,16.5 129.5,14.9 129.5,13.7 C129.5,12.4 129,11.7 127.9,11.7 Z" id="Shape"></path>
                <path d="M152.9,22.6 C152.9,23.9 151.8,25.5 149.5,27.3 C147.2,29.1 144.8,30 142.4,30 C140.4,30 138.8,29.4 137.7,28.2 C136.6,27 136,25.3 136,23.2 C136,19.6 137.2,16.1 139.7,12.8 C142.2,9.5 144.8,7.9 147.7,7.9 C148.7,7.9 149.4,8.2 150,8.8 C150.6,9.4 150.9,10.2 150.9,11 C150.9,13 149.9,14.8 148,16.6 C146.1,18.4 143.5,20.1 140.3,21.9 C139.6,22.2 139.3,22.7 139.3,23.2 C139.3,24.3 139.6,25.1 140.2,25.7 C140.8,26.3 141.7,26.7 142.9,26.7 C145.6,26.7 148.4,25.2 151.3,22.2 C151.7,21.8 152,21.6 152.3,21.6 C152.7,21.6 152.9,22 152.9,22.6 Z M139.6,19.6 C145,16.4 147.7,13.8 147.7,11.9 C147.7,11.1 147.4,10.8 146.7,10.8 C145.5,10.8 144.2,11.7 142.7,13.4 C141.3,15.1 140.2,17.2 139.6,19.6 Z" id="Shape"></path>
            </g>
            <g id="Group" transform="translate(202.000000, 135.000000)">
                <path d="M3.4,25.7 C3.4,26.6 3.5,27.5 3.8,28.6 C3.9,28.8 3.9,29 3.9,29.1 C3.9,29.3 3.7,29.6 3.3,29.9 C2.9,30.2 2.4,30.4 2,30.4 C0.8,30.4 0.2,29.4 0.2,27.4 C0.2,25.3 0.7,22 1.6,17.5 C1.9,15.9 2.1,14.9 2.1,14.6 C2.1,13.9 2.2,13.3 2.5,12.8 C2.8,12.3 3.2,12 3.7,12 C4.3,12 4.9,12.1 5.2,12.4 C5.6,12.7 5.8,13 5.8,13.3 C5.8,13.6 5.7,14.1 5.5,14.6 C4.6,17.6 4,19.8 3.7,21 C3.5,22.4 3.4,23.9 3.4,25.7 Z M5.8,6.7 C5.5,6.7 5.3,6.4 5.2,5.9 C5.1,5.7 5.1,5.6 5,5.4 C4.7,4.7 4.5,4 4.5,3.5 C4.5,3 4.8,2.6 5.4,2.1 C6,1.6 6.7,1.4 7.4,1.4 C7.8,1.4 8.2,1.5 8.6,1.8 C9.1,2.1 9.3,2.3 9.3,2.5 C9.3,2.9 9.1,3.5 8.8,4.4 C8.5,5.3 8,5.9 7.3,6.2 C6.7,6.5 6.2,6.7 5.8,6.7 Z" id="Shape"></path>
                <path d="M25.6,16 C24.4,16 21.9,19.2 18.1,25.4 C16.8,27.5 16,28.6 15.8,28.8 C15.6,29 15.2,29.2 14.6,29.3 C14,29.4 13.5,29.5 13.2,29.5 C12.4,29.5 11.9,28 11.9,25 C11.9,23.3 12.3,20.3 13.1,15.9 C13.4,14.1 13.6,12.9 13.6,12.1 C13.6,11.3 14,11 14.7,11 C16.1,11 16.8,11.9 16.8,13.7 C16.8,14.6 16.6,16.2 16.1,18.7 C15.6,21.5 15.3,23.3 15.3,23.9 C16.1,23.2 17.2,21.7 18.7,19.4 C20.8,16.2 22.4,14.2 23.4,13.4 C24.4,12.6 25.5,12.1 26.6,12.1 C27.4,12.1 28.1,12.6 28.6,13.6 C29.1,14.6 29.4,16.9 29.5,20.7 C29.5,21.6 29.6,22.3 29.8,22.8 C30,23.3 30.1,23.5 30.2,23.5 C30.8,23.5 32.1,21.7 34.1,18 C35.2,16.1 36.2,14.6 37.2,13.6 C38.2,12.6 39.3,12.1 40.5,12.1 C41.5,12.1 42.3,12.6 42.7,13.5 C43.2,14.5 43.5,15.9 43.7,17.7 C43.9,19.6 44.2,21.3 44.6,22.9 C45,24.5 45.7,25.5 46.8,25.9 C47.5,26.2 47.9,26.6 47.9,27 C47.9,27.4 47.6,27.8 47,28.2 C46.4,28.6 45.8,28.8 45.3,28.8 C44.3,28.8 43.4,28.2 42.6,27.1 C41.8,26 41.2,23.6 40.8,19.9 C40.6,18.4 40.5,17.4 40.3,16.7 C40.1,16.1 39.9,15.8 39.5,15.8 C39,15.8 38.3,16.3 37.6,17.2 C36.9,18.1 35.7,20 34.1,22.7 C32.8,24.9 31.9,26.3 31.2,27 C30.5,27.7 29.9,28.1 29.3,28.1 C28.8,28.1 28.3,27.9 27.8,27.5 C27.4,27.1 27.1,26.6 27,26.1 C26.9,25.5 26.8,24.2 26.6,22 C26.4,18.7 26.1,16.6 25.6,16 Z" id="Shape"></path>
                <path d="M55.1,27.5 C54.5,29.5 53.9,32.4 53.4,36.1 L52.9,39.3 C52.8,39.8 52.6,40.2 52.2,40.7 C51.8,41.1 51.5,41.4 51.2,41.4 C50.8,41.4 50.4,41.2 49.9,40.9 C49.4,40.5 49.2,40.3 49.2,40 C49.2,39.4 49.4,38.5 49.7,37.4 C52,29 53.2,21.6 53.2,15.3 L53.2,13.9 C53.2,12.7 53.4,11.8 53.9,11.2 C54.4,10.6 55,10.4 55.6,10.4 C55.9,10.4 56.2,10.6 56.5,11 C56.8,11.4 56.9,12 56.9,12.8 C56.9,13.9 56.8,15.2 56.5,16.8 C56.2,18.8 56,19.9 56,20.2 C57.9,17.2 59.9,14.9 62,13.3 C64.1,11.6 66.1,10.8 67.9,10.8 C69.2,10.8 70.3,11.2 71.1,12.1 C72,13 72.4,14 72.4,15.3 C72.4,19 70.8,22.4 67.7,25.4 C64.5,28.4 61.5,29.9 58.5,29.9 C57.8,29.9 57.2,29.7 56.7,29.4 C56,29.1 55.6,28.4 55.1,27.5 Z M66.9,13.8 C65.1,13.8 62.9,15.3 60.3,18.3 C57.7,21.3 56.4,23.6 56.4,25.3 C56.4,25.7 56.7,26.1 57.2,26.5 C57.7,26.9 58.4,27.1 59.2,27.1 C61,27.1 63.1,25.9 65.4,23.5 C67.7,21.1 68.9,18.7 68.9,16.4 C68.9,15.6 68.7,14.9 68.3,14.5 C67.9,14 67.4,13.8 66.9,13.8 Z" id="Shape"></path>
                <path d="M83.5,0.6 C84.4,0.6 84.9,1.1 84.9,2.2 C84.9,3.1 84.4,5.3 83.3,8.9 C82.6,11.1 82.1,13.5 81.7,16.2 C81.3,18.9 81.1,20.9 81.1,22.5 C81.1,24.4 81.2,26.2 81.5,28.1 C81.5,28.5 81.6,28.7 81.6,28.9 C81.6,29.5 81.4,30 81,30.4 C80.6,30.8 80.1,31 79.6,31 C78.9,31 78.5,30.6 78.2,29.9 C77.9,29.1 77.8,27.9 77.8,26.3 C77.8,22.5 78.3,17.8 79.3,12.1 C80.3,6.5 81.1,3.2 81.7,2.2 C82.2,1.1 82.8,0.6 83.5,0.6 Z" id="Shape"></path>
                <path d="M102.2,23.5 C99.9,25.3 97.8,26.6 96.1,27.5 C94.3,28.3 93,28.7 92.1,28.7 C90.9,28.7 89.9,28.2 89.2,27.3 C88.5,26.4 88.2,25.3 88.2,24 C88.2,22.2 88.6,20.1 89.4,17.5 C90.2,14.9 90.8,13.4 91.2,12.9 C91.6,12.4 92.2,12.2 93,12.2 C93.4,12.2 93.6,12.4 93.9,12.8 C94.1,13.2 94.2,13.6 94.2,14.1 C94.2,14.4 94.1,14.8 93.8,15.2 C93.1,16.3 92.8,16.9 92.7,17 C92.7,17.1 92.4,17.8 92,19.1 C91.5,20.4 91.3,21.5 91.3,22.6 C91.3,23 91.4,23.6 91.6,24.4 C91.8,25.2 92.2,25.6 92.9,25.6 C93.6,25.6 94.4,25.4 95.5,25 C96.5,24.6 97.7,24 98.9,23.1 C100.2,22.2 101,21.5 101.5,21 C101.9,20.5 102.3,19.9 102.4,19.2 C102.6,18.5 102.7,17 102.8,14.8 C102.9,12.5 103.5,11.4 104.6,11.4 C105.3,11.4 105.7,11.6 105.9,11.9 C106.1,12.2 106.2,12.8 106.2,13.8 C106.2,14.6 106.1,15.5 106,16.6 C105.9,18 105.8,19 105.7,19.6 C105.5,22.7 105.1,25.9 104.3,29 C103.6,32.2 102.5,34.8 101.1,36.9 C99.7,39 97.8,40.1 95.4,40.1 C92.9,40.1 90.7,39.5 88.8,38.4 C86.9,37.2 85.9,36.2 85.9,35.4 C85.9,35 86,34.7 86.2,34.3 C86.4,33.9 86.6,33.8 86.9,33.8 C87.1,33.8 87.2,33.9 87.4,34.1 C89.1,36.4 91.7,37.5 95.2,37.5 C97,37.5 98.6,36.1 99.8,33.2 C101,30.3 101.7,27.6 101.9,25.1 C102.1,24.5 102.2,24 102.2,23.5 Z" id="Shape"></path>
            </g>
            <path d="M162.9,0.6 C74.8,0.6 0.5,69 0.5,150.9 C0.5,232.8 75.8,300.1 163.8,300.1 C251.9,300.1 317.5,230 317.5,150.9 C317.5,69 250.9,0.6 162.9,0.6 Z M152.9,245.1 C139.4,244 131,235.4 131.6,222.5 C132,213.6 136.7,207.2 144.8,203.7 C147.3,202.6 149.8,201.7 152.3,200.7 C152.2,200 152.1,199.3 151.9,198.6 C146.6,199.3 141.3,199.6 136.2,200.7 C121,204.1 103.4,222.4 104.8,239.3 C109,287 161,292.1 161,292.1 C132.8,294.2 114.9,276.3 114.9,276.3 C109.4,272 106.4,267.7 104.9,264.7 C98.1,254.5 94.7,239.9 97.4,227.5 C101,213.8 107.8,198 132.9,193.6 C144.7,191.5 160,193.3 169.1,201.5 C177.2,208.8 180.8,218.2 178.7,229.3 C176.7,238.6 164.3,246 152.9,245.1 Z M176.7,292.3 C209,288 258,234 219,185 C187,144.8 145,166 101.1,114.8 C89.5,101.2 88.1,81.6 93,63.5 C98.6,42.6 111.3,27.3 130.7,17.6 C139.7,13.1 149.2,10.6 158.7,10.1 C197.7,8.1 248.3,76.9 201.9,101.3 C198.3,103.2 194.7,108 179.1,106.9 C173.9,106.5 167,105.6 162.8,102.4 C171,101.4 179.1,102.3 186.2,96.9 C194.2,90.8 196.4,78.7 192.1,69.5 C174.6,31.9 118.3,69 145.4,100.2 C160.5,117.6 192.2,118.5 210.6,106.5 C230.2,93.7 235.6,70.8 226.8,49.6 C222.6,39.6 215.9,30.6 207.6,23.5 C203.5,20 198.9,16.9 194,14.4 C191.9,13.4 180.2,7 178.1,7.3 C181.1,6.6 208.2,12.8 215.9,15.9 C236.3,23.9 256.9,35.4 272.2,51 C284.6,63.6 299.7,87.5 304.2,101.8 C309,114.5 311.4,126 312.7,137.8 C312.8,138.9 312.7,160.8 312.6,154.3 C313.7,224.9 246,292.4 176.7,292.3 Z" id="Shape"></path>
        </g>
    </g>
</svg>