<?xml version="1.0" encoding="utf-8"?>
<!-- Generator: Adobe Illustrator 22.0.1, SVG Export Plug-In . SVG Version: 6.00 Build 0)  -->
<svg version="1.1" id="Layer_1" xmlns="http://www.w3.org/2000/svg" xmlns:xlink="http://www.w3.org/1999/xlink" x="0px" y="0px"
	 viewBox="0 0 300 300" style="enable-background:new 0 0 300 300;" xml:space="preserve">
<style type="text/css">
	.st0{fill:#231F20;}
</style>
<image style="overflow:visible;" width="586" height="644" xlink:href="0.png"  transform="matrix(0.4456 0 0 0.4456 318.347 6.5052)">
</image>
<g>
	<path class="st0" d="M150,15.9c67.3,0,121.9,51,121.9,114s-54.6,114-121.9,114s-121.9-51-121.9-114S82.7,15.9,150,15.9 M150,12.8
		c-16.8,0-33.2,3.1-48.6,9.2c-14.9,5.9-28.2,14.3-39.7,25C50.2,57.8,41.2,70.3,34.9,84.2C28.3,98.7,25,114,25,129.9
		s3.3,31.2,9.9,45.6c6.3,13.9,15.3,26.5,26.8,37.2c11.5,10.7,24.8,19.2,39.7,25c15.4,6.1,31.7,9.2,48.6,9.2s33.2-3.1,48.6-9.2
		c14.9-5.9,28.2-14.3,39.7-25c11.5-10.7,20.5-23.3,26.8-37.2c6.5-14.5,9.9-29.8,9.9-45.6s-3.3-31.2-9.9-45.6
		c-6.3-13.9-15.3-26.5-26.8-37.2c-11.5-10.7-24.8-19.2-39.7-25C183.2,15.9,166.8,12.8,150,12.8L150,12.8z"/>
	<g>
		<path class="st0" d="M113.5,262l-4.8,6.5c-2.2,3.1-3.9,4.7-5.2,4.7c-0.6,0-1.1-0.3-1.5-1c-0.4-0.6-0.9-1.6-1.3-2.9
			c-0.5-1.3-0.8-2.3-1-3c-0.4-1.6-0.7-2.5-0.8-2.7l-0.7,3.8c-0.2,1.2-0.5,2.3-0.7,3.3c-0.2,1-0.5,2.2-0.8,3.7
			c-0.3,1.4-0.5,2.5-0.5,3.2c0,0.2-0.2,0.5-0.7,0.8c-0.4,0.3-0.8,0.4-1,0.4c-0.5,0-0.9-0.2-1.3-0.6c-0.4-0.4-0.6-0.8-0.6-1.2
			c0-0.9,0.2-2.1,0.6-3.5c1.6-5.8,2.5-9.5,2.7-11s0.3-2.8,0.3-3.8c0-0.5,0.2-0.9,0.7-1.2c0.5-0.3,1-0.4,1.8-0.4
			c0.4,0,0.8,0.3,1.2,0.8c0.4,0.5,0.7,1,0.8,1.4l0,0l2,5.6c0.8,2.2,1.3,3.7,1.6,4.3c1-1.1,2.6-3.1,4.6-5.9c2-2.8,3.4-4.6,4.2-5.4
			c0.8-0.8,1.3-1.2,1.6-1.2c0.5,0,1,0.2,1.6,0.6c0.6,0.4,0.9,0.7,0.9,1c0,0.2-0.2,1.7-0.6,4.4c-0.3,1.9-0.5,4-0.7,6.4
			c-0.2,2.4-0.3,3.7-0.3,4.2c0,0.5,0.1,1.1,0.2,1.6c0.1,0.4,0.1,0.8,0.1,1.2c0,1-0.2,1.6-0.5,2c-0.3,0.3-0.8,0.5-1.5,0.5
			c-1.3,0-1.9-0.9-1.9-2.9c0-1.8,0.2-4,0.5-6.6c0.3-2.6,0.6-4.6,0.9-6C113.4,262.6,113.5,262.2,113.5,262z"/>
		<path class="st0" d="M130.6,273.1c-2.5,3.3-5,5-7.4,5c-0.9,0-1.6-0.3-2.2-1c-0.6-0.7-0.9-1.6-0.9-2.6c0-2.6,1.1-5.3,3.4-8.2
			c2.3-2.9,4.6-4.3,6.9-4.3c1.2,0,1.9,0.6,2.3,1.8c1.1,0,1.7,0.4,1.7,1.3c0,0.4-0.1,1.1-0.3,2.2c-0.4,2-0.6,3.6-0.6,4.8
			c0,1.2,0.1,2.1,0.3,2.6c0.2,0.5,0.3,0.8,0.4,1c0.1,0.2,0.3,0.3,0.7,0.5c0.4,0.2,0.6,0.4,0.6,0.8c0,0.5-0.2,0.9-0.7,1.2
			c-0.5,0.3-1,0.5-1.6,0.5C131.2,278.6,130.4,276.7,130.6,273.1z M129.7,265.1c-1,0-2.2,1.1-3.8,3.2c-1.6,2.2-2.3,4-2.3,5.5
			c0,0.8,0.2,1.2,0.5,1.2c1.1,0,2.5-1,4.2-3c1.7-2,2.5-3.8,2.5-5.3c0-0.5-0.1-0.9-0.3-1.2C130.2,265.2,130,265.1,129.7,265.1z"/>
		<path class="st0" d="M144.8,274.3c0-0.5-0.9-1.2-2.5-1.9c-2-1-3.3-1.8-3.8-2.5c-0.5-0.7-0.8-1.4-0.8-2.3c0-1.7,1-3.2,2.9-4.5
			c1.9-1.3,3.7-1.9,5.4-1.9c1.6,0,2.4,0.7,2.4,2.1c0,0.4-0.2,0.7-0.6,1c-0.4,0.3-0.7,0.4-0.9,0.4c-0.1,0-0.3-0.1-0.6-0.2
			c-0.3-0.1-0.5-0.2-0.6-0.2c-0.9,0-1.8,0.3-2.8,0.9c-1,0.6-1.5,1.3-1.5,2c0,0.4,0.2,0.7,0.5,1.1c0.4,0.4,1.1,0.8,2.2,1.3
			c1.7,0.8,2.8,1.5,3.3,2.1c0.5,0.6,0.8,1.3,0.8,2.1c0,1.4-1,2.6-2.9,3.5c-1.9,0.9-4,1.4-6.4,1.4c-1.7,0-2.6-0.6-2.6-1.9
			c0-0.5,0.2-0.9,0.5-1.2c0.4-0.3,0.8-0.5,1.2-0.5c0.2,0,0.5,0.1,0.9,0.2c0.4,0.1,0.7,0.2,1.1,0.2c0.9,0,1.9-0.1,2.9-0.4
			C143.8,275.1,144.5,274.7,144.8,274.3z"/>
		<path class="st0" d="M157.3,274.3c0-0.5-0.9-1.2-2.5-1.9c-2-1-3.3-1.8-3.8-2.5s-0.8-1.4-0.8-2.3c0-1.7,1-3.2,2.9-4.5
			c1.9-1.3,3.7-1.9,5.4-1.9c1.6,0,2.4,0.7,2.4,2.1c0,0.4-0.2,0.7-0.6,1c-0.4,0.3-0.7,0.4-0.9,0.4c-0.1,0-0.3-0.1-0.6-0.2
			c-0.3-0.1-0.5-0.2-0.6-0.2c-0.9,0-1.8,0.3-2.8,0.9c-1,0.6-1.5,1.3-1.5,2c0,0.4,0.2,0.7,0.5,1.1c0.4,0.4,1.1,0.8,2.2,1.3
			c1.7,0.8,2.8,1.5,3.3,2.1c0.5,0.6,0.8,1.3,0.8,2.1c0,1.4-1,2.6-2.9,3.5c-1.9,0.9-4,1.4-6.4,1.4c-1.7,0-2.6-0.6-2.6-1.9
			c0-0.5,0.2-0.9,0.5-1.2c0.4-0.3,0.8-0.5,1.2-0.5c0.2,0,0.5,0.1,0.9,0.2c0.4,0.1,0.7,0.2,1.1,0.2c0.9,0,1.9-0.1,2.9-0.4
			C156.4,275.1,157,274.7,157.3,274.3z"/>
		<path class="st0" d="M173,273.1c-2.5,3.3-5,5-7.4,5c-0.9,0-1.6-0.3-2.2-1c-0.6-0.7-0.9-1.6-0.9-2.6c0-2.6,1.1-5.3,3.4-8.2
			c2.3-2.9,4.6-4.3,6.9-4.3c1.2,0,1.9,0.6,2.3,1.8c1.1,0,1.7,0.4,1.7,1.3c0,0.4-0.1,1.1-0.3,2.2c-0.4,2-0.6,3.6-0.6,4.8
			c0,1.2,0.1,2.1,0.3,2.6c0.2,0.5,0.3,0.8,0.4,1c0.1,0.2,0.3,0.3,0.7,0.5c0.4,0.2,0.6,0.4,0.6,0.8c0,0.5-0.2,0.9-0.7,1.2
			c-0.5,0.3-1,0.5-1.6,0.5C173.6,278.6,172.8,276.7,173,273.1z M172.1,265.1c-1,0-2.2,1.1-3.8,3.2s-2.3,4-2.3,5.5
			c0,0.8,0.2,1.2,0.5,1.2c1.1,0,2.5-1,4.2-3c1.7-2,2.5-3.8,2.5-5.3c0-0.5-0.1-0.9-0.3-1.2C172.6,265.2,172.4,265.1,172.1,265.1z"/>
		<path class="st0" d="M190.3,273.5c-1.1,1.2-2.3,2.2-3.7,3c-1.4,0.8-2.7,1.2-3.7,1.2c-1,0-1.8-0.3-2.4-0.9
			c-0.6-0.6-0.8-1.4-0.8-2.5c0-1.5,0.6-3.2,1.7-5c1.1-1.8,2.7-3.4,4.7-4.8c2-1.4,3.8-2,5.4-2c0.9,0,1.7,0.2,2.3,0.7
			c0.2,0.1,0.3,0.2,0.4,0.3c0.2,0.2,0.4,0.5,0.6,0.9c0.2,0.4,0.3,0.8,0.3,1.1c0,0.2-0.2,0.8-0.5,1.8c-0.4,1-0.6,2-0.8,3
			c-0.1,1-0.4,3.4-0.9,7.3c-0.4,3.4-1.3,5.8-2.8,7.4c-1.5,1.6-3.1,2.3-4.9,2.3c-1.9,0-3.7-0.6-5.5-1.9c-1.8-1.3-2.7-2.3-2.7-3.2
			c0-0.7,0.4-1.1,1.1-1.1c0.3,0,0.8,0.3,1.7,0.8c2.2,1.4,4.1,2.2,5.7,2.2c1.2,0,2.2-0.8,3-2.2C189.2,280.3,189.8,277.5,190.3,273.5z
			 M190.6,265.5c-0.7,0-1.6,0.4-2.8,1.3c-1.2,0.9-2.2,2-3.2,3.5c-1,1.4-1.5,2.6-1.5,3.6c0,0.5,0.2,0.8,0.5,0.8
			c1.2,0,2.5-0.5,3.7-1.5c1.2-1,2.2-2.2,3-3.5c0.8-1.3,1.1-2.3,1.1-3c0-0.3-0.1-0.6-0.3-0.8C191.1,265.6,190.9,265.5,190.6,265.5z"
			/>
		<path class="st0" d="M210.3,273c0,1-0.8,2.2-2.5,3.6c-1.7,1.4-3.6,2.1-5.7,2.1c-1.6,0-2.9-0.5-3.8-1.5c-0.9-1-1.4-2.5-1.4-4.3
			c0-2.7,1-5.2,2.9-7.6c1.9-2.4,4-3.5,6.1-3.5c1.1,0,1.9,0.3,2.6,1c0.7,0.7,1,1.5,1,2.4c0,1.7-0.8,3.3-2.4,4.8
			c-1.6,1.5-3.7,2.6-6.2,3.1c-0.3,0.1-0.4,0.2-0.4,0.5c0,0.5,0.2,0.9,0.6,1.3c0.4,0.4,1,0.6,1.6,0.6c1.9,0,3.9-1,5.8-3
			c0.4-0.4,0.7-0.6,1.1-0.6C210,272,210.3,272.3,210.3,273z M200.6,270.4c1.5-0.3,2.9-1,4-2s1.7-1.9,1.7-2.7c0-0.3-0.1-0.6-0.3-0.8
			c-0.2-0.2-0.4-0.3-0.7-0.3c-0.8,0-1.8,0.6-2.8,1.9S200.9,269,200.6,270.4z"/>
	</g>
	<g>
		<g>
			<path class="st0" d="M234.7,131.3c-1.2,0-2.7,1.1-4.5,3.4c-1.9,2.3-2.8,4.1-2.8,5.4c0,0.3,0.2,0.6,0.5,0.9
				c0.3,0.3,0.7,0.4,1.2,0.4c1.2,0,2.6-1,4.2-2.9c1.6-1.9,2.4-3.7,2.4-5.5c0-0.6-0.1-1-0.3-1.3C235.1,131.4,234.9,131.3,234.7,131.3
				z"/>
			<path class="st0" d="M232.8,51.8c-33.2-29.2-52.4-27.1-52.4-27.1c44.8,20.8,30.9,70.4,2.1,79.2s-48.8-9.4-45.9-31.5
				c2.8-21,37.9-24,41.2,0.5c3.2,24.4-20.6,24.1-20.6,24.1c36.7,9.1,65.2-48.7,18.2-69.4c-47.9-21.2-91.9,29.7-72.3,69.1
				c21.8,43.9,97,26,101.4,89.3c1.8,26.2-18.6,46.6-43,50.6c-0.7,0.2-1.1,0.3-1.1,0.3C251.3,237.9,307.2,117.1,232.8,51.8z
				 M190,132.8l-0.1,0.3c-0.5,1.8-0.8,3.3-0.9,4.5c-0.1,1.2-0.2,2.1-0.2,2.8c0,0.6,0.1,1.4,0.3,2.3c0,0.2,0,0.3,0,0.4
				c0,0.2-0.2,0.5-0.6,0.9c-0.4,0.4-0.9,0.6-1.3,0.6c-1.3,0-1.9-1-1.9-2.9c0-1.6,0.2-3.6,0.7-5.9c0.1-0.5,0.2-1,0.3-1.5v0
				c0.3-1.7,0.5-2.7,0.5-3c0-0.7,0.2-1.3,0.5-1.8c0.3-0.5,0.7-0.7,1.3-0.7c0.6,0,1.2,0.2,1.5,0.5c0.4,0.3,0.5,0.6,0.5,1
				C190.5,130.8,190.3,131.6,190,132.8z M192.2,124.4c-0.6,0.5-1.1,0.8-1.6,0.8c-0.6,0-1.1-0.2-1.5-0.7c-0.4-0.5-0.7-1-0.7-1.4
				c0-0.7,0.2-1.2,0.7-1.7c0.4-0.4,1.1-0.6,1.9-0.6c0.6,0,1.2,0.2,1.6,0.6c0.4,0.4,0.6,0.8,0.6,1.3
				C193.1,123.3,192.8,123.9,192.2,124.4z M220,143.1c-0.5,0.4-1.1,0.6-1.7,0.6c-1,0-1.7-0.5-2.3-1.4c-0.5-1-0.9-2.9-1.1-5.8
				c-0.1-1.4-0.2-2.3-0.3-2.8c-0.1-0.5-0.3-0.7-0.5-0.7c-0.2,0-0.5,0.3-0.9,1c-0.4,0.7-1.1,2-2.1,4.1c-0.9,1.8-1.6,3.1-2.2,3.8
				c-0.6,0.7-1.3,1.1-2,1.1c-0.6,0-1.1-0.2-1.7-0.7c-0.6-0.5-0.9-2.2-0.9-5.2c0-2.7-0.2-4-0.5-4c-0.4,0-1.4,1.2-2.9,3.6
				c-1.5,2.4-2.7,4.5-3.5,6.4c-0.1,1-0.7,1.5-1.6,1.5c-1.3,0-1.9-0.9-1.9-2.7c0-2.9,0.2-5.4,0.5-7.5c0.2-1.6,0.4-3.2,0.4-4.8
				c0-0.4,0.1-0.7,0.4-0.9c0.2-0.3,0.6-0.4,1-0.4c1.4,0,2.1,0.9,2.1,2.6c0,0.6-0.3,2-0.8,4.3c-0.3,1.4-0.5,2.4-0.5,3
				c2.7-6,5.2-9,7.4-9c0.9,0,1.6,0.4,2.1,1.1c0.5,0.7,0.8,2.3,0.8,4.7c0,2.2,0.1,3.3,0.3,3.3c0.2,0,0.8-1.1,1.8-3.2
				c1.1-2.4,2.1-3.9,2.9-4.7c0.8-0.8,1.7-1.1,2.5-1.1c1.1,0,1.8,0.5,2.3,1.4c0.5,0.9,0.8,2.5,1,4.6c0.1,1.7,0.3,3,0.6,3.9
				c0.2,0.9,0.7,1.5,1.3,1.7c0.5,0.2,0.7,0.6,0.7,1C220.9,142.3,220.6,142.7,220,143.1z M235.5,140.5c-2.4,2.5-4.8,3.8-7.1,3.8
				c-1.1,0-1.8-0.4-2.1-1.3c-0.2,0.7-0.3,1.7-0.5,3l-0.7,5.6c-0.1,0.9-0.3,1.6-0.7,1.9c-0.3,0.4-0.7,0.5-1.2,0.5
				c-0.4,0-0.8-0.2-1.2-0.5c-0.4-0.3-0.6-0.7-0.6-1.1c0-0.8,0.1-1.7,0.4-2.7c1.4-5.7,2.2-11.6,2.3-17.7v-0.3c0-1.3,0-2.1,0.1-2.6
				c0.1-0.4,0.3-0.8,0.6-1.1c0.3-0.3,0.8-0.5,1.4-0.5c1,0,1.6,0.8,1.6,2.4c0,0.6-0.1,1.8-0.4,3.3l-0.1,1c1.1-1.8,2.4-3.3,3.9-4.5
				c1.5-1.2,2.8-1.8,4-1.8c1.1,0,2,0.4,2.7,1.1c0.8,0.8,1.1,1.7,1.1,2.9C239.1,135.1,237.9,137.9,235.5,140.5z M247.3,127.5
				c-0.5,1.7-0.8,3.6-1.1,5.6c-0.2,2-0.4,3.6-0.4,4.7c0,1.2,0.1,2.7,0.3,4.3c0,0.4,0.1,0.7,0.1,0.8c0,0.6-0.2,1.1-0.6,1.5
				c-0.4,0.4-0.9,0.6-1.4,0.6c-0.7,0-1.2-0.3-1.4-1c-0.3-0.6-0.4-1.7-0.4-3.3c0-3.4,0.4-7.3,1.2-11.9c0.8-4.5,1.4-7.2,1.9-8.1
				c0.5-0.8,1.1-1.2,1.7-1.2c1,0,1.5,0.6,1.5,1.7c0,0.5-0.1,1.1-0.2,1.7C248.3,123.6,247.9,125.1,247.3,127.5z M263.3,142.3
				c-0.4,2.2-1,4.2-1.7,5.9c-0.8,1.8-1.6,3-2.4,3.6c-0.9,0.6-1.9,1-3.1,1c-1.3,0-2.5-0.2-3.7-0.7h0c-1-0.4-1.9-1-2.6-1.7
				c-0.7-0.7-1.1-1.3-1.1-1.8c0-0.4,0.1-0.8,0.3-1.1c0.2-0.3,0.5-0.4,0.9-0.4c0.3,0,0.6,0.1,0.8,0.4c1.2,1.6,3,2.4,5.3,2.4
				c0.9,0,1.9-1,2.7-3c0.9-2,1.4-4.4,1.7-7.1c-3,2.3-5.2,3.5-6.8,3.5c-1,0-1.8-0.4-2.5-1.2c-0.6-0.8-0.9-1.8-0.9-3
				c0-1.2,0.3-2.8,0.8-5c0.5-2.2,1-3.6,1.4-4.1c0.4-0.5,1-0.8,1.8-0.8c0.5,0,0.8,0.2,1.1,0.6c0.2,0.4,0.4,0.8,0.4,1.3
				c0,0.1-0.3,1-1,2.4c-0.8,1.8-1.3,3.3-1.3,4.6c0,0.7,0.1,1.2,0.3,1.5c0.2,0.3,0.4,0.5,0.6,0.5c0.5,0,1-0.1,1.7-0.4
				c0.7-0.3,1.4-0.8,2.3-1.4c0.9-0.7,1.5-1.2,1.7-1.6c0.3-0.4,0.5-0.8,0.6-1.4c0.2-0.6,0.3-1.8,0.4-3.7c0-1.1,0.1-1.8,0.2-2.1
				c0.1-0.3,0.2-0.5,0.5-0.8c0.3-0.2,0.6-0.4,1.1-0.4c0.6,0,1.1,0.1,1.3,0.4c0.3,0.3,0.4,0.9,0.4,1.9l-0.3,4.7
				C263.9,137.8,263.6,140.1,263.3,142.3z"/>
		</g>
		<path class="st0" d="M154,167.7c0,0-0.6-0.4-0.9-0.6c-0.8-0.5-1.6-0.9-2.4-1.2c-4.2-1.8-8.7-2.8-13.5-2.8
			c-19.4,0-35.1,16.4-35.1,36.7s15.7,36.7,35.1,36.7c1.6,0,3.1-0.1,4.6-0.3c-17.4-0.5-31.4-15.3-31.4-33.7c0-15.6,10.2-28.8,24-32.6
			c-2.7,2.9-4.4,6.9-4.4,11.3c0,8.9,6.9,16.2,15.5,16.2c8.6,0,15.5-7.2,15.5-16.2C160.9,175.5,158.1,170.6,154,167.7z"/>
	</g>
</g>
</svg>
