<?xml version="1.0" standalone="no"?>
<!DOCTYPE svg PUBLIC "-//W3C//DTD SVG 20010904//EN"
 "http://www.w3.org/TR/2001/REC-SVG-20010904/DTD/svg10.dtd">
<svg version="1.0" xmlns="http://www.w3.org/2000/svg"
 width="700.000000pt" height="700.000000pt" viewBox="0 0 700.000000 700.000000"
 preserveAspectRatio="xMidYMid meet">
<metadata>
Created by potrace 1.11, written by Peter Selinger 2001-2013
</metadata>
<g transform="translate(0.000000,700.000000) scale(0.100000,-0.100000)"
fill="#000000" stroke="none">
<path d="M3389 6926 c-2 -2 -42 -7 -89 -10 -47 -4 -128 -13 -180 -21 -90 -14
-111 -17 -170 -30 -14 -3 -34 -7 -45 -9 -469 -92 -982 -335 -1384 -658 -299
-240 -589 -574 -776 -893 -17 -27 -35 -59 -41 -70 -24 -41 -143 -282 -172
-350 -67 -154 -174 -503 -198 -645 -3 -14 -9 -50 -14 -80 -6 -30 -12 -75 -16
-100 -3 -25 -7 -50 -9 -57 -25 -76 -25 -781 0 -823 1 -3 6 -27 9 -55 21 -163
73 -385 90 -385 7 0 59 13 117 29 57 16 167 46 244 66 77 20 170 45 207 56 66
19 67 20 58 47 -12 35 -49 219 -56 276 -2 24 -7 55 -9 67 -7 31 -18 247 -18
324 0 74 12 273 18 304 2 13 7 43 9 67 20 167 111 491 185 659 152 343 332
607 587 860 339 337 756 572 1222 689 101 26 107 27 262 51 598 94 1255 -45
1795 -380 204 -126 462 -349 621 -536 236 -279 411 -600 518 -954 20 -65 38
-128 40 -139 3 -12 11 -52 19 -91 9 -38 18 -90 22 -115 3 -25 8 -56 10 -70 26
-152 26 -600 0 -700 -2 -8 -6 -37 -10 -65 -3 -27 -11 -70 -16 -95 -6 -25 -12
-52 -14 -60 -100 -466 -354 -938 -691 -1286 -99 -103 -227 -217 -294 -264 -19
-13 -37 -27 -40 -30 -11 -14 -189 -129 -275 -177 -190 -108 -450 -213 -640
-257 -266 -63 -332 -72 -570 -82 -78 -4 -134 -10 -141 -17 -9 -10 -220 -373
-268 -462 -6 -11 -16 -27 -22 -35 -6 -8 -27 -44 -46 -80 l-36 -65 116 -4 c225
-7 564 -1 638 13 18 3 141 18 174 21 8 1 29 4 45 8 17 3 47 9 67 12 21 2 59
10 85 16 27 6 55 12 63 14 211 44 524 161 755 280 317 164 570 349 825 605
422 421 703 906 870 1500 33 118 75 329 86 430 3 36 8 68 10 71 15 27 22 493
8 614 -3 33 -6 67 -6 75 0 8 -6 62 -14 120 -102 731 -440 1405 -959 1913 -88
86 -155 147 -210 192 -28 22 -57 46 -65 52 -52 44 -215 158 -300 211 -372 232
-850 413 -1236 467 -22 3 -48 8 -59 10 -11 2 -47 7 -80 10 -33 4 -71 9 -85 12
-28 6 -515 14 -521 9z"/>
<path d="M3242 5291 c-6 -14 -64 -170 -130 -346 -65 -176 -190 -511 -276 -745
-87 -234 -161 -434 -166 -445 -5 -11 -46 -119 -91 -240 -153 -416 -181 -490
-189 -510 -15 -34 -370 -994 -370 -1000 0 -3 163 -4 362 -3 l363 3 110 330
c60 182 113 335 117 340 7 12 1183 13 1195 1 5 -4 58 -157 119 -339 l111 -332
361 -3 c212 -1 362 2 362 7 0 7 -957 2572 -1004 2691 -8 19 -24 62 -36 95 -12
33 -30 80 -40 105 -9 25 -48 129 -86 231 l-69 186 -317 0 -317 0 -9 -26z m366
-931 c17 -52 108 -323 202 -603 93 -279 170 -511 170 -515 0 -8 -807 -8 -816
1 -3 3 86 280 197 616 112 336 207 607 210 603 3 -4 20 -50 37 -102z"/>
</g>
</svg>
