<?xml version="1.0" standalone="no"?>
<!DOCTYPE svg PUBLIC "-//W3C//DTD SVG 20010904//EN"
 "http://www.w3.org/TR/2001/REC-SVG-20010904/DTD/svg10.dtd">
<svg version="1.0" xmlns="http://www.w3.org/2000/svg"
 width="500.000000pt" height="500.000000pt" viewBox="0 0 500.000000 500.000000"
 preserveAspectRatio="xMidYMid meet">
<metadata>
Created by potrace 1.11, written by Peter Selinger 2001-2013
</metadata>
<g transform="translate(0.000000,500.000000) scale(0.100000,-0.100000)"
fill="#000000" stroke="none">
<path d="M2417 4824 c-1 -1 -50 -5 -108 -8 -58 -4 -114 -8 -125 -10 -10 -2
-41 -7 -69 -10 -1037 -146 -1884 -919 -2075 -1896 -41 -209 -48 -536 -16 -745
134 -857 742 -1562 1615 -1870 127 -44 340 -97 451 -110 30 -4 58 -9 61 -11
12 -7 217 -18 349 -18 126 -1 299 8 345 18 24 5 97 17 128 21 102 14 304 69
443 120 141 52 382 172 504 253 242 158 473 373 626 582 84 114 114 158 114
166 0 4 6 15 14 23 27 32 119 219 168 341 57 142 120 381 139 526 22 171 17
490 -10 644 -18 96 -21 113 -48 215 -72 279 -226 580 -423 830 -89 112 -286
305 -410 401 -360 277 -781 450 -1260 518 -84 12 -405 27 -413 20z m169 -65
c452 -9 947 -165 1324 -417 30 -20 57 -39 60 -42 3 -3 21 -17 40 -30 119 -81
322 -275 434 -414 168 -209 295 -439 381 -690 20 -59 39 -119 41 -134 3 -15 9
-40 14 -57 5 -16 16 -75 25 -130 9 -55 19 -113 21 -130 16 -89 10 -419 -10
-530 -2 -16 -8 -50 -11 -75 -13 -92 -75 -309 -120 -420 -149 -372 -369 -666
-706 -945 -139 -116 -372 -254 -569 -338 -98 -41 -271 -103 -316 -111 -10 -2
-55 -13 -99 -24 -77 -19 -197 -42 -260 -48 -16 -2 -64 -7 -105 -11 -91 -9
-380 -9 -472 0 -511 52 -961 233 -1351 544 -183 145 -408 402 -529 603 -128
213 -236 490 -272 695 -3 17 -10 54 -16 83 -31 163 -33 462 -6 652 12 77 16
99 35 181 96 410 316 791 636 1102 48 46 152 133 270 226 84 65 337 204 480
264 159 66 398 136 550 161 101 16 204 27 305 33 63 3 117 7 119 9 2 2 7 2 11
-1 3 -2 47 -5 96 -6z"/>
<path d="M2395 4614 c-133 -24 -186 -41 -294 -91 -331 -156 -578 -491 -627
-853 -6 -40 -6 -224 0 -240 3 -8 8 -32 11 -54 15 -105 88 -268 167 -375 146
-195 354 -326 783 -495 436 -172 552 -226 703 -328 239 -161 386 -392 436
-683 20 -120 14 -330 -13 -429 -92 -340 -364 -594 -751 -701 l-85 -24 105 5
c58 3 116 7 130 9 14 2 45 7 70 10 250 35 560 153 782 297 260 170 475 383
650 648 206 311 333 658 374 1020 13 124 6 461 -11 513 -2 6 -6 28 -9 47 -5
32 -8 46 -20 105 -11 56 -59 204 -92 287 -130 325 -355 614 -684 875 -314 250
-615 400 -855 427 -57 6 -59 9 66 -65 95 -56 115 -71 208 -162 253 -247 315
-615 159 -947 -105 -224 -306 -386 -533 -430 -96 -18 -105 -19 -205 -20 -356
-3 -629 248 -631 580 0 93 11 152 42 212 63 123 204 207 359 214 271 12 443
-173 428 -459 -8 -147 -75 -252 -203 -315 -33 -16 -76 -32 -95 -36 -68 -12
-83 -15 -88 -21 -6 -5 18 -7 133 -10 377 -9 723 383 691 784 -24 305 -236 538
-603 660 -157 53 -357 71 -498 45z m2073 -1945 c5 -13 -1 -56 -15 -112 -26
-103 -36 -179 -37 -286 -1 -57 -5 -76 -18 -84 -12 -8 -21 -7 -33 3 -15 13 -17
29 -11 130 3 63 8 126 10 140 32 183 49 230 83 230 7 0 17 -9 21 -21z m-1113
-20 c13 -20 -5 -59 -30 -65 -43 -11 -73 34 -43 64 15 15 64 16 73 1z m694
-142 c5 -13 6 -42 1 -65 l-7 -42 46 48 c78 79 122 92 168 46 23 -23 25 -31 20
-79 -6 -56 -39 -119 -85 -162 -47 -43 -134 -73 -148 -51 -14 22 -22 0 -33 -84
-7 -51 -17 -98 -23 -105 -14 -17 -33 -16 -48 2 -12 14 -6 79 16 170 12 52 24
169 25 248 1 45 6 72 16 82 21 22 42 18 52 -8z m-590 -20 c6 -15 4 -47 -4 -88
-8 -35 -12 -65 -11 -67 2 -1 16 21 31 50 33 64 51 85 88 104 52 28 76 -3 82
-103 2 -30 6 -57 9 -60 2 -3 17 19 31 49 45 89 72 118 108 118 42 0 54 -21 67
-112 13 -91 17 -105 35 -112 26 -10 17 -43 -15 -54 -26 -10 -32 -8 -50 15 -11
14 -20 31 -21 37 0 6 -2 20 -4 31 -2 11 -6 42 -9 69 -3 27 -7 50 -8 52 -9 8
-26 -17 -63 -89 -48 -94 -65 -112 -99 -103 -30 7 -35 24 -40 119 -2 38 -6 71
-9 74 -8 8 -61 -70 -104 -152 -30 -59 -43 -75 -60 -75 -16 0 -25 8 -29 26 -6
24 2 204 10 249 3 11 5 26 5 33 2 23 51 14 60 -11z m1325 -47 c-1 -67 -10
-165 -20 -210 -3 -14 -7 -35 -10 -48 -10 -47 -56 -130 -80 -143 -35 -18 -95
-14 -143 10 -50 26 -65 51 -46 77 13 18 14 18 37 -3 24 -22 69 -43 93 -43 33
0 73 78 91 174 l5 29 -28 -18 c-115 -76 -182 -58 -175 45 6 89 34 175 60 185
8 3 23 -1 31 -10 14 -14 14 -21 -7 -78 -39 -109 -24 -149 44 -112 56 30 75 58
80 116 9 94 12 101 42 97 26 -3 27 -5 26 -68z m-1479 50 c4 -6 -1 -43 -10 -83
-10 -39 -17 -100 -17 -134 1 -65 -12 -88 -45 -81 -30 6 -33 79 -8 198 3 14 8
41 11 60 4 19 9 38 11 43 6 11 51 9 58 -3z"/>
<path d="M4139 2423 c-41 -35 -89 -110 -89 -139 0 -48 56 -38 107 19 85 93 70
193 -18 120z"/>
<path d="M2160 1813 c-48 -7 -155 -36 -164 -44 -6 -5 -16 -9 -22 -9 -46 0
-237 -154 -292 -235 -96 -143 -136 -274 -136 -445 1 -212 71 -379 219 -526 66
-66 99 -90 176 -128 104 -51 205 -76 306 -76 75 0 79 5 13 14 -203 28 -397
175 -486 370 -47 104 -64 189 -60 311 2 61 7 123 10 138 27 118 94 241 181
332 40 42 132 105 198 135 37 16 69 30 73 30 3 0 -2 -12 -12 -27 -49 -76 -58
-106 -58 -198 0 -94 14 -135 67 -207 52 -70 182 -126 264 -114 90 13 136 37
196 100 60 65 80 117 81 216 1 73 -3 93 -26 144 -48 101 -133 164 -273 201
-58 15 -205 26 -255 18z"/>
</g>
</svg>
